<?xml version="1.0" standalone="no"?>
<!DOCTYPE svg PUBLIC "-//W3C//DTD SVG 1.1//EN" "http://www.w3.org/Graphics/SVG/1.1/DTD/svg11.dtd" >
<svg xmlns="http://www.w3.org/2000/svg" xmlns:xlink="http://www.w3.org/1999/xlink" version="1.1">
<metadata>
Created by FontForge 20170812 at Fri Aug  5 12:58:58 2016
 By www-data
Typeface (c)WOODCUTTER MANERO MMXVI All Rights Reserved
</metadata>
<defs>
<font id="GolfIcons" horiz-adv-x="1014" >
  <font-face 
    font-family="Golf Icons"
    font-weight="400"
    font-stretch="normal"
    units-per-em="2048"
    panose-1="2 0 5 0 0 0 0 0 0 0"
    ascent="1638"
    descent="-410"
    x-height="1428"
    cap-height="1433"
    bbox="29 -319 3066 1604"
    underline-thickness="150"
    underline-position="-292"
    unicode-range="U+0020-F002"
  />
<missing-glyph horiz-adv-x="1024" 
d="M100 0v1434h824v-1434h-824zM150 50h724v1334h-724v-1334zM325 1148q31 28 58 43q53 30 112 30q92 0 148 -47.5t56 -127.5q0 -49 -23 -98.5t-87 -129.5q-63 -80 -99 -132t-36 -99q0 -38 24 -133h-32q-35 97 -35 148q0 76 81.5 218t81.5 217q0 57 -33 90t-91 33
q-38 0 -69 -17q-26 -15 -56 -40v45zM389 334l57 58q11 10 20 10q10 0 22 -11l56 -60q9 -11 9 -20q0 -11 -10 -22l-56 -62q-14 -14 -21 -14q-11 0 -20 10l-61 71q-7 9 -7 18q0 10 11 22z" />
    <glyph glyph-name=".notdef" horiz-adv-x="1024" 
d="M100 0v1434h824v-1434h-824zM150 50h724v1334h-724v-1334zM325 1148q31 28 58 43q53 30 112 30q92 0 148 -47.5t56 -127.5q0 -49 -23 -98.5t-87 -129.5q-63 -80 -99 -132t-36 -99q0 -38 24 -133h-32q-35 97 -35 148q0 76 81.5 218t81.5 217q0 57 -33 90t-91 33
q-38 0 -69 -17q-26 -15 -56 -40v45zM389 334l57 58q11 10 20 10q10 0 22 -11l56 -60q9 -11 9 -20q0 -11 -10 -22l-56 -62q-14 -14 -21 -14q-11 0 -20 10l-61 71q-7 9 -7 18q0 10 11 22z" />
    <glyph glyph-name=".null" horiz-adv-x="0" 
 />
    <glyph glyph-name="nonmarkingreturn" horiz-adv-x="508" 
 />
    <glyph glyph-name="space" unicode=" " horiz-adv-x="508" 
 />
    <glyph glyph-name="space" unicode="&#xa0;" horiz-adv-x="508" 
 />
    <glyph glyph-name="exclam" unicode="!" horiz-adv-x="2593" 
d="M974 1604q129 0 160 -92q14 -50 14 -89v-53q0 -260 -305 -408q-102 -39 -181 -39h-67q-57 0 -68 -153q0 -73 57 -88q119 35 220 177q39 117 78 117q14 7 39 7h57q7 -1 7 -7v-32q0 -39 -71 -198q-2 -30 -21 -54v-3q191 159 230 276q61 183 188 256q41 25 103 25
q125 0 160 -110q3 -14 3 -29v-53q0 -98 -64 -241q-3 -6 -3 -18v-3h3q54 9 110 78q63 90 149 347q38 44 47 103q0 28 63 139q34 7 54 7h28q30 0 46 -22v-28q0 -32 -67 -199q0 -11 -46 -103q0 -9 -164 -411l15 -28q47 13 138 134q59 91 82 121q56 164 184 451q0 56 99 149
q53 28 110 28h14q110 0 110 -124v-39q0 -82 -102 -281q-51 -144 -132 -251q-79 -71 -159 -71q-43 -22 -43 -39q0 -25 82 -36q109 0 227 139q47 81 78 81h25q28 0 28 -28v-43q0 -36 -74 -120q-119 -110 -185 -110q-124 0 -124 -61q0 -130 -124 -319q-56 -49 -92 -53h-61
q-88 13 -88 88q-4 15 -4 25q0 61 35 128q6 39 47 110q7 27 7 32q-53 -28 -103 -28h-29q-99 0 -99 120v21h-3q-37 -17 -68 -17h-74q-81 -96 -110 -96q-50 -25 -110 -25h-36q-113 15 -113 103q-4 0 -4 21v11h-3q-135 -114 -249 -177q-61 -167 -131 -231q-70 -39 -82 -39
q-13 -4 -28 -4h-46q-75 0 -99 68l-4 21v57q0 110 199 170q45 26 64 46h-4q-67 -46 -124 -46h-39q-135 0 -135 167v53q0 66 18 153q-128 74 -128 81q-96 75 -96 252v11q0 113 96 202q31 35 64 35h18q60 -12 60 -56v-29q0 -19 -67 -81q-47 -61 -47 -114q0 -64 107 -149l25 -14
h3q18 6 46 106q22 17 78 142q121 203 263 263q71 21 138 21zM609 1047l18 -3h10q174 0 330 209q19 38 43 138q-8 71 -64 71q-109 0 -295 -316q-42 -92 -42 -99zM2117 916q74 59 124 195q45 74 78 181q39 70 39 124l-7 4q-61 -58 -71 -114q-44 -74 -75 -184q-31 -49 -88 -206
zM1201 721q11 -43 36 -43q38 10 81 64l4 7q-7 41 -7 60q0 63 46 75q57 0 85 191q-14 50 -42 50q-35 0 -118 -145q-49 -73 -49 -128q-20 -24 -36 -131zM1882 334q18 0 78 128l39 117q4 14 4 28v11q-12 0 -57 -131q-17 -28 -64 -153zM545 377q4 -7 4 -11q28 0 81 74v4
q-77 -34 -85 -67zM236 103h8q28 0 28 -31q0 -55 -75 -68h-7v-25q1 -7 7 -7h15q32 0 60 61q11 21 39 21h3q29 0 29 -29v-7q0 -15 -7 -28h3q20 13 39 60h22q3 0 3 -3q12 7 21 7h11q5 0 11 -11q17 11 28 11h11q5 0 10 -14q-17 -50 -17 -61v-3h3q18 6 43 71q3 3 57 7l10 -14v-15
q0 -13 -14 -46q16 5 39 68l7 3h14l7 -3q-17 -40 -24 -71h3q31 17 60 106h22l7 -3q-36 -77 -36 -103q17 2 36 53q17 25 39 25h7q19 0 25 -14v-11q0 -35 -46 -39q-7 3 -11 3v-3q5 -14 11 -14h3q43 0 64 64q15 14 28 14q16 -4 25 -4q12 32 18 32h21v-3q-35 -93 -35 -103h3
q25 19 25 32h7q7 -1 7 -7q-22 -43 -49 -43h-11l-14 11q-4 -11 -21 -11h-8q-14 6 -14 21q-21 -21 -46 -21h-10q-14 0 -32 18q0 -6 -22 -18h-17q-9 0 -11 14h-4l-21 -14h-18q-9 0 -10 14h-4q-19 -14 -32 -14h-14q-12 0 -25 11q-11 -43 -21 -43h-14q-7 0 -7 7q10 20 10 29h-3
q-6 -4 -14 -4h-11q-5 0 -11 11v10q0 13 14 50h-3q-20 0 -43 -67h-24v3l21 64q-25 0 -43 -64l-7 -3h-21v7l3 7h-3q-43 -18 -46 -18h-11q-16 0 -32 21q0 -14 -46 -28h-14q-32 5 -32 32v28q-24 0 -32 36v10q0 21 21 36l14 -18l-10 -14v-7q2 -21 10 -21h8q0 44 63 70zM1425 103
h14l7 -3q0 -49 -57 -117l-35 -25h-21q-8 0 -8 7l22 92q-18 0 -43 -21v-7l11 -14v-11l-4 -7q-32 7 -32 32v4q0 30 82 56q3 11 21 11q7 -1 7 -7v-4q-15 -14 -28 -96q36 22 60 107q0 3 4 3zM641 89q14 -5 14 -10v-11q0 -5 -11 -11h-10q-11 4 -11 22q12 10 18 10zM1865 89
q14 -5 14 -10v-11q0 -5 -11 -11h-10q-11 4 -11 22q12 10 18 10zM1219 82h21v-3q-35 -93 -35 -103h3q25 19 25 32h7q7 -1 7 -7q-22 -43 -49 -43h-11l-14 11q-4 -11 -21 -11h-7q-15 7 -15 18q-18 -18 -32 -18h-10q-5 0 -11 11v10q0 13 14 50h-3q-21 0 -43 -67q-18 0 -60 -4
q0 5 -11 11q-13 -11 -25 -11h-7q-14 7 -14 21q0 46 39 75h18l14 -11q1 7 7 7h21v-3q-21 -56 -21 -68v-3q19 0 46 74h25q4 0 4 -3q11 7 21 7h11q5 0 10 -14q-17 -50 -17 -61v-3h3q19 14 46 71q12 7 21 7q16 -4 25 -4q12 32 18 32zM1631 82h17l7 -3l-7 -15h11v-7
q-21 -10 -21 -21q-22 -48 -22 -60h7q16 5 43 64q15 14 35 14h4q28 0 28 -29l-3 -35q14 6 32 43l-4 17q7 16 14 18h4l11 -7l-4 -7v-4q0 -2 25 -25v-3q0 -8 -11 -46h4q13 4 39 71l7 3h14l7 -3q-18 -40 -25 -71h4q18 10 53 78h7q57 0 57 -11v-3l-46 -50l25 -4h3q4 0 43 61l25 7
h7q19 0 25 -14v-11q0 -35 -47 -39q-6 3 -10 3v-3q5 -14 10 -14h4q43 0 60 64q15 14 29 14q15 -4 25 -4q11 32 17 32h22v-3q-36 -93 -36 -103h4q24 19 24 32h8q7 -1 7 -7q-23 -43 -50 -43h-11l-14 11q-3 -11 -21 -11h-7q-14 7 -14 18q-20 -18 -43 -18h-11q-28 4 -28 21
q-22 -21 -35 -21h-8l-24 7l-18 -3l-4 7v3l46 50l-7 3h-10q-8 -3 -32 -49l-25 -18h-18q-9 0 -10 14q-15 -14 -29 -14h-7q-14 7 -14 21q11 32 11 43q0 7 -8 7q0 -42 -85 -71h-10q-25 0 -25 18h-4q-23 -18 -35 -18h-11q-2 0 -18 18q0 -13 -39 -18h-10q-16 0 -32 21
q-13 -21 -43 -21h-10q-20 0 -29 18v17q10 61 50 61h7q19 0 25 -14v-11q0 -35 -46 -39q-7 3 -11 3v-3q5 -14 11 -14h3q40 0 64 64q19 14 32 14h7q25 0 25 -25q-2 -25 -11 -25h-21v4l4 25q-19 0 -25 -43v-7q1 -7 7 -7h3q64 14 64 74h-7v7q19 11 29 25zM2230 82h18l7 -3
q-11 -18 -11 -29l7 4h18q5 0 11 -11v-14q0 -15 -11 -39h4q11 5 35 60h18l7 -3q-25 -62 -25 -68h7q11 3 36 68l7 3h14q7 -1 7 -7q-28 -66 -28 -71h3q3 0 36 36q7 -1 7 -7q-14 -27 -61 -57q-9 -36 -35 -36h-11q-5 0 -14 15q0 27 36 31v4q-26 0 -36 18q-45 -18 -53 -18h-4
q-19 0 -24 14v21q0 25 35 89zM201 29h3q40 12 40 43l-8 3h-3q-32 -27 -32 -46zM286 -14v-10h4q5 0 10 10q-3 7 -3 15q17 9 17 14v21h-3q-17 0 -25 -50zM1677 -7v-17h3q11 3 11 7l-4 18q18 9 18 14v21h-4q-13 0 -24 -43zM733 11h11q5 0 10 11v11q-10 0 -21 -22zM1453 11h11
q5 0 10 11v11q-12 -3 -21 -22zM1996 11h11q5 0 10 11v11q-10 0 -21 -22zM524 -28q39 8 39 53v4q-26 0 -39 -57zM815 -10v-11h3q16 0 29 46l-8 4h-3q-11 0 -21 -39zM957 -17q3 0 3 -4q28 13 28 50h-10q-21 -24 -21 -46zM1159 -10v-11h3q16 0 29 46l-7 4h-4q-11 0 -21 -39z
M2074 -10v-11h4q15 0 28 46l-7 4h-4q-10 0 -21 -39zM2230 18v-7l4 -18h10q7 29 7 36h-10q-5 0 -11 -11zM2219 -10v-7q2 -7 8 -7l3 7zM2290 -70v-4h7q6 0 11 14h-3q-15 -5 -15 -10zM463 -102h18q78 -12 78 -96v-18q-10 -99 -64 -99q0 -4 -14 -4h-18q-67 0 -78 103v7
q11 103 64 103q0 4 14 4zM659 -102h17q78 -12 78 -96v-18q-10 -99 -64 -99q0 -4 -14 -4h-17q-68 0 -78 103v7q10 103 63 103q0 4 15 4zM1038 -102h18q42 0 42 -14l-3 -18q-42 7 -50 7q-57 -10 -57 -82v-7q0 -68 57 -78h7q12 0 39 18h4q5 0 14 -18q-24 -25 -53 -25h-21
q-67 0 -78 100v14q13 103 81 103zM2294 -102h25q27 0 32 -14q0 -18 -7 -18t-39 7q-19 0 -29 -18v-25q1 -11 68 -42q21 -26 21 -50q0 -45 -64 -57h-18q-20 0 -39 15q7 11 7 21q2 0 54 -11q28 9 28 32q0 30 -71 60q-18 20 -18 43v3q8 54 50 54zM130 -106h21q14 0 46 -145h4
q39 145 50 145q10 0 46 -138h7q34 138 42 138h18q7 -1 7 -7q-49 -166 -64 -206h-3q-12 0 -53 146h-4q-38 -146 -50 -146q-13 13 -67 213zM797 -106h57q81 -17 81 -81v-29q0 -80 -71 -96q-4 -3 -25 -3h-42q-7 0 -7 7v195q1 7 7 7zM1148 -106h14q7 -1 7 -7v-131q4 -50 46 -50
q43 0 43 46v135q1 7 7 7h14q7 -1 7 -7v-152q0 -42 -63 -54h-22q-60 9 -60 61v145q1 7 7 7zM1315 -106h152q7 -1 7 -7v-11q0 -7 -7 -7h-60v-177q0 -7 -7 -7h-18q-7 0 -7 7v177h-60q-7 0 -7 7v11q1 7 7 7zM1485 -106h153q7 -1 7 -7v-11q0 -7 -7 -7h-61v-177q0 -7 -7 -7h-17
q-8 0 -8 7v177h-60q-7 0 -7 7v11q1 7 7 7zM1677 -106h110q7 -1 7 -7v-11q0 -7 -7 -7h-89v-56h60q7 -2 7 -8v-10q0 -7 -7 -7h-60v-78h89q7 -1 7 -7v-11q0 -7 -7 -7h-110q-7 0 -7 7v195q1 7 7 7zM1833 -106h53q48 0 67 -35v-29q0 -36 -39 -49q51 -79 57 -96h-28l-61 89h-24
v-82q0 -7 -8 -7h-17q-7 0 -7 7v195q1 7 7 7zM2106 -106h110q7 -1 7 -7v-11q0 -7 -7 -7h-89v-56h60q8 -2 8 -8v-10q0 -7 -8 -7h-60v-78h89q7 -1 7 -7v-11q0 -7 -7 -7h-110q-7 0 -7 7v195q1 7 7 7zM417 -209q0 -85 57 -85q53 9 53 75v21q0 71 -60 71q-50 -10 -50 -71v-11z
M612 -209q0 -85 57 -85q53 9 53 75v21q0 71 -60 71q-50 -10 -50 -71v-11zM818 -134v-149q1 -7 7 -7h14q55 0 64 67v32q0 60 -71 60zM1858 -138v-57q1 -7 7 -7h3q53 4 53 22v21q0 28 -53 28h-3q-7 -1 -7 -7zM2014 -276h14q5 0 14 -14v-14q0 -6 -14 -15h-14q-6 0 -15 15v14
q0 5 15 14z" />
    <glyph glyph-name="quotedbl" unicode="&#x22;" horiz-adv-x="810" 
d="M242 1425q44 0 84 -54q11 0 35 -20q36 -6 39 -20q49 5 74 5q136 0 168 -113q0 -9 49 -94q25 -56 49 -148q-14 -24 -14 -39q24 -44 24 -69v-5q0 -52 -74 -552q0 -76 -108 -242l24 -39v-15q-32 -20 -49 -20q-74 0 -74 64q-12 0 -44 10q-40 -20 -54 -20q-84 16 -84 30
q0 44 59 44q11 15 25 74l-5 10v20l19 19v70q0 130 15 192l-5 10q0 14 10 79h-10q0 -13 -187 -380q-69 -140 -69 -143l5 -25l-10 -5h-40q-37 0 -44 20v10h20l49 -5q204 406 286 582l-5 24v25q0 18 10 84q-11 4 -35 84q-55 49 -113 251v25l5 25h-5l-30 -5l-24 14q0 -5 -30 -29
l-5 10v19q0 18 5 45q-39 59 -39 79v19q0 78 98 99h5z" />
    <glyph glyph-name="numbersign" unicode="#" horiz-adv-x="898" 
d="M177 1433h4q7 0 14 -14q-4 -9 -4 -13h4q39 4 59 4q27 0 156 -100h9v4h-14q0 9 73 32q101 -15 101 -54q0 -16 132 -32q36 0 36 -73v-28q14 -40 14 -45v-10q0 -13 -18 -13v-9q50 -106 50 -128q9 -24 9 -105v-32q22 -29 23 -37l-9 -18q3 0 27 -27l-9 -297q-24 0 -50 -233
q-12 -19 -14 -73v-27q0 -7 18 -18q-5 -78 -31 -78q-35 -9 -42 -9q-40 0 -59 23v9l14 18q-5 9 -5 14q0 6 32 36v114q-9 67 -9 74v54h-5q-62 -30 -237 -169q-23 -32 -27 -32l4 -9v-4q-8 -15 -59 -69v-4q14 -17 14 -32v-5q0 -9 -9 -9h-28q-43 0 -55 73l5 41q-18 43 -18 60
q0 11 18 41q61 -5 82 -19q20 8 128 142q55 41 64 41v14q0 36 4 86q-13 19 -13 155v5q0 36 27 128v9l-14 18v9l14 19q-7 0 -18 50q-66 102 -82 114q0 11 -46 46q-6 42 -27 68v36l4 32l-73 64q-32 66 -77 110h-46q-50 0 -50 -114q-41 -301 -41 -434q18 -7 18 -13v-32
q0 -8 -18 -19q-87 17 -87 41q12 23 37 23h31l51 539q-19 7 -19 32v13q16 33 37 46z" />
    <glyph glyph-name="dollar" unicode="$" horiz-adv-x="716" 
d="M344 1431h5q60 0 88 -78q-22 -121 -42 -138q60 -45 60 -101q-9 -51 -9 -93q4 -64 4 -82q-7 -5 -27 -5q0 -5 4 -14q0 -52 -23 -211l19 -161l-14 -10l198 -497h46q6 0 14 -13v-19q0 -9 -14 -9q-57 0 -69 60l-184 469q-28 -3 -28 -14v-23l23 -188q0 -8 23 -74l9 5
q23 -46 97 -65l9 -14v-4q0 -7 -14 -14h-41q-147 12 -147 28q2 54 13 55q-16 93 -59 179q-5 88 -19 129h-4q0 -41 -37 -41q-28 0 -28 -46q-10 0 -23 -194q-4 0 -4 -18q0 -107 55 -175v-4q-9 -21 -19 -23h-13q-79 0 -79 69q-4 0 -4 4l9 65q-32 160 -32 188v5q0 17 18 120v13
l-23 -4l-4 9v5q0 63 4 87q-4 44 -4 97v18l-28 115q0 20 9 41q-4 19 -4 33q9 74 18 87q-5 41 -5 51q0 173 92 207q2 4 92 46v18q0 11 -4 19q37 83 37 87q31 23 59 23z" />
    <glyph glyph-name="percent" unicode="%" horiz-adv-x="837" 
d="M152 1431q59 0 130 -72q14 0 14 -5q34 20 96 29h10q126 0 352 -318q-5 -25 -5 -29q34 -76 34 -116q-48 -204 -82 -404l-53 -415q-10 -14 -19 -14l4 -24q0 -58 -48 -58h-24q-5 0 -5 5q-5 0 -5 -5q-5 0 -14 5q-48 -10 -101 -10q-60 0 -106 34q0 33 96 38q39 23 39 58
q5 0 24 24l-5 34v91q-34 243 -34 285q11 72 20 72q0 5 -5 14q29 174 29 203q9 1 14 29q-17 9 -38 9l-39 -86v-44q-29 -30 -29 -38q0 -5 5 -5l-5 -24l10 -34l-10 -5q-10 0 -10 15h-4q0 -24 -34 -34q-87 -248 -183 -573h24q10 -2 10 -10v-5q0 -12 -63 -14q-34 5 -34 14
q15 15 53 19q0 12 178 593h-14v15q0 6 -10 53q0 17 53 130q0 40 20 86q-5 10 -5 15h-24l-10 5l5 33v15q-77 110 -77 144q9 64 9 68q-12 0 -24 9q0 -19 -19 -19q-38 0 -96 34h-15q-3 -39 -24 -39q-24 8 -24 24q0 6 5 49q-15 0 -29 62q33 87 92 87z" />
    <glyph glyph-name="ampersand" unicode="&#x26;" horiz-adv-x="1215" 
d="M542 1425q170 0 170 -161q10 0 10 -20q-10 -19 -10 -30h30q69 0 271 -190q121 -38 121 -121q20 -64 20 -70q-13 -50 -30 -50h-70q0 -25 20 -91q-59 -193 -221 -491q0 -29 120 -121l10 -40l-70 -20q-221 20 -221 40q-10 69 -10 111q44 60 70 140l-10 20q21 33 21 50
q-111 -50 -161 -50h-40q-23 0 -40 10q-16 -12 -101 -20l50 -80q-10 -86 -10 -131l10 -40q-13 -20 -120 -20l10 -20v-10q0 -20 -20 -20q-6 0 -50 50v-10q10 -19 10 -30l-20 -10q-30 0 -30 70h-20q0 -54 -41 -70q-10 18 -10 40h-10q0 -30 -20 -30l-20 10q40 80 50 171
q-66 119 -130 341q90 369 291 602h10l20 -10q0 10 50 50q6 111 20 111l-10 20q0 85 111 120zM803 833q-33 -48 -40 -110q99 80 120 80q-6 30 -80 30z" />
    <glyph glyph-name="quotesingle" unicode="'" horiz-adv-x="676" 
d="M115 1428h51q29 0 29 -80q24 15 43 15h22q39 0 51 -29v-15l-7 -14h7q26 14 58 14h14q11 0 22 -21v-15l-7 -14l36 7h29q11 0 22 -22q0 -9 -94 -87v-94q152 -69 152 -203q58 -101 58 -152q-87 -618 -109 -711l-14 -7h-319q-22 0 -22 72l14 8q0 9 -94 761q14 2 58 65v29
q0 16 -43 160v7q0 11 29 22l72 -15q0 203 -43 203q-80 35 -80 51v29q0 22 65 36zM180 1290v-14q5 -167 15 -167l43 -7v138q0 9 -58 50zM253 1131v-29l51 -7h7v123q-29 32 -29 51q-29 0 -29 -138zM325 1095l44 -15v65q0 15 -15 73q8 14 8 22q-37 0 -37 -145z" />
    <glyph glyph-name="parenleft" unicode="(" horiz-adv-x="383" 
d="M293 1431q13 -2 13 -13v-1418h-20v7q0 312 7 1194l-13 7q-158 -46 -191 -46q-39 56 -39 79q113 138 223 177z" />
    <glyph glyph-name="parenright" unicode=")" horiz-adv-x="1236" 
d="M248 1428q107 0 107 -125v-18l-17 -24q0 -8 89 -23q35 -30 53 -131q6 0 6 -6v-6q0 -6 -6 -6q0 -26 84 -48q31 -21 113 -53q43 21 119 35q178 187 321 304q-19 0 -36 30v23q0 34 30 42q36 0 65 -42v-11q0 -38 -77 -78l-303 -297q6 -12 6 -18q-27 -66 -90 -66q-6 11 -6 24
q-130 -24 -160 -24h-84v-6q66 -61 66 -226q-6 -32 -6 -53v-60q0 -57 36 -309h-6q-6 0 -6 -6q0 -32 -12 -107q36 -60 36 -89v-24q0 -10 -24 -24h-78q6 102 18 113l-24 125h-53q-22 0 -30 202q6 74 6 78l-47 136q-14 0 -54 -202v-59q12 -77 12 -197q-68 12 -95 12
q-20 -20 -48 -89q6 -51 6 -83v-6q0 -30 -89 -36q-30 4 -30 18v18l60 95q11 69 11 83l-11 6q17 144 53 226q0 30 6 30q-4 11 -12 83q6 32 6 60q0 24 -12 24l6 41v12q0 20 -6 30q6 24 6 42l-6 41l12 30q-6 33 -6 48l6 59q-12 42 -12 66q0 169 66 214h6v6h-12q0 -6 -6 -6
q-11 8 -18 77q0 108 71 125z" />
    <glyph glyph-name="asterisk" unicode="*" horiz-adv-x="855" 
d="M510 1428h27q59 0 68 -85q-5 -27 -5 -31q21 -41 21 -48h-10v11q-32 -4 -32 -16q53 -32 53 -58v-11l-27 -190q11 -33 11 -43l-11 -5h-31v-5q0 -50 -48 -201q31 0 69 -164l21 -80v-111q33 -110 143 -354h5q12 0 21 5q21 -8 21 -16q0 -17 -79 -26l-5 11v5q0 8 21 16l-21 42
l-27 -5q-169 0 -169 37v10q21 62 21 85l-5 11v52l-16 133q0 3 5 68q-10 31 -31 59l-27 -6h-10q-6 0 -59 96q-3 0 -47 47q-30 -148 -64 -148q-31 0 -42 -58q-24 -11 -90 -206q-8 0 -21 -53l5 -32q0 -13 -5 -42q10 -42 10 -64l-15 -10h-43q-39 0 -42 15v37q48 102 63 286
q59 117 59 132h-6q-5 0 -16 6q0 5 6 15l-6 75q0 21 11 68q-16 0 -16 11q2 16 27 37q10 129 21 143q-11 0 -11 10v11q32 66 32 84q26 35 37 112q38 103 48 111q0 18 105 58q32 20 32 26q-10 13 -10 21q0 122 84 122zM489 889l-5 -22h10v22h-5zM611 344q-11 -79 -11 -132
q0 -25 48 -64q13 -26 68 -48v6q-100 217 -100 238h-5z" />
    <glyph glyph-name="plus" unicode="+" 
d="M596 1425q12 0 74 -74q0 -34 -213 -111q0 -9 -37 -28h-18q-19 0 -19 19q0 148 93 148q87 46 120 46zM763 1351q203 0 203 -46q28 -47 28 -65l-28 -19h-203l-56 -9l-37 19q53 120 93 120zM670 1203h9q19 -3 19 -19v-9q0 -35 -74 -166q46 -70 46 -121v-148
q148 -340 148 -453v-9q0 -185 -102 -185l-65 9q-44 -102 -129 -102h-157q-109 0 -158 130q-144 0 -157 185v453q22 157 157 157q56 121 158 121h18v129q3 19 19 19h9l28 -19l-10 -46v-83h65l93 -10q61 153 83 167zM115 750v-445q0 -101 83 -101h9v647h-37q-55 -29 -55 -101z
" />
    <glyph glyph-name="comma" unicode="," horiz-adv-x="1555" 
d="M1063 1436q309 0 428 -326q10 -61 10 -97v-20q0 -251 -255 -387q-38 -25 -178 -41q-257 0 -397 260q-36 78 -36 173v15q0 248 250 382q86 41 178 41zM697 1044h20q61 -3 61 -61q-14 -51 -51 -51h-25q0 -13 10 -46h5q18 15 51 15q46 -17 46 -56v-5q0 -35 -51 -61
q7 0 15 -15l25 5h6q46 0 56 -61q-6 -10 -6 -15q44 -31 62 -31q0 29 56 41q51 -14 51 -51v-21l50 -5q29 0 36 51q19 17 46 26q29 0 61 -41q37 17 56 31l-5 10q0 66 61 66l26 -5q0 8 10 20v5q-39 0 -46 51v10q0 46 61 51q13 0 36 -15h5q0 8 10 46h-26q-40 0 -50 56q0 51 61 56
h20q0 115 -132 244q-110 87 -224 87h-31q-216 0 -336 -239q-20 -68 -20 -92zM635 1242h6q-62 -148 -62 -229q0 -230 184 -392v-10q-108 0 -326 -158q-264 -239 -367 -453h-10q0 915 575 1242zM854 998q50 0 56 -61q-13 -51 -51 -51h-15q-48 0 -51 66q0 37 61 46zM1287 998
q50 0 56 -61q-13 -51 -51 -51h-15q-41 0 -51 56q0 51 61 56zM987 962h15q51 -10 51 -50q-5 -62 -51 -62h-10q-56 11 -56 56q12 56 51 56zM1134 962h11q51 -6 51 -50v-11q-11 -51 -51 -51h-11q-50 11 -50 51v11q10 50 50 50zM910 845q62 -16 62 -56q-10 -61 -57 -61h-5
q-56 9 -56 56q13 61 56 61zM1221 845q57 0 61 -71q-17 -46 -56 -46h-5q-56 0 -56 66q24 51 56 51zM1063 820h10q51 -10 51 -51v-10q0 -40 -56 -56q-56 13 -56 51v30q23 36 51 36z" />
    <glyph glyph-name="hyphen" unicode="-" horiz-adv-x="1360" 
d="M1208 1431h3q15 0 98 -41l-206 -465l11 -45q0 -26 -79 -198q49 -44 49 -101v-15q0 -102 -206 -199q-165 -64 -221 -64v4q81 76 97 131q221 79 221 143q0 56 -337 198q-38 24 -180 79q-73 41 -120 41q-125 0 -168 -217q-8 -28 -8 -53v-41q0 -50 45 -112q21 -95 98 -158h3
v-7q-155 43 -217 139q-41 79 -41 161q45 397 285 397h7q72 0 232 -79q277 -128 311 -139h4q61 173 109 173q51 94 210 468zM488 783q92 0 165 -67q75 -76 75 -165v-12q0 -100 -67 -168q-78 -75 -173 -75q-184 0 -243 202q0 25 -4 38h4q0 3 -4 3q0 137 135 218q58 26 112 26z
M279 562h26q18 -9 18 -38q-16 -30 -41 -30q0 -18 8 -18q12 7 22 7q30 0 30 -30v-15q-11 -18 -26 -18q0 -8 49 -19q7 -49 33 -49q0 -4 4 -4q0 18 30 23q34 0 34 -41h34q3 0 18 37l19 4h4q22 0 30 -23q25 15 30 15v15q0 34 52 34v8q-20 0 -26 30q5 33 34 33q16 -4 26 -4l4 19
q-42 0 -42 41q0 23 45 23q0 55 -63 127q-66 60 -146 60q-145 0 -203 -161zM245 727h15q7 -1 7 -8q-6 0 -41 -52q0 4 -4 4q10 56 23 56zM743 671h4q48 -19 48 -27v-3q-52 0 -52 30zM773 599l120 -3q19 -16 19 -19q-51 -41 -68 -41q-71 0 -71 15q-4 38 -7 45zM368 539
q30 -10 30 -33q0 -30 -37 -34q-30 12 -30 34q9 33 37 33zM608 539q14 0 30 -22v-11q-6 -34 -30 -34q-34 5 -34 34q5 33 34 33zM526 521q33 -9 33 -38q0 -24 -33 -30q-30 0 -30 30v8q4 30 30 30zM432 517h26q19 -10 19 -30v-11q-13 -23 -34 -23q-24 0 -30 34q0 20 19 30z
M387 450h23q22 -14 22 -34q0 -24 -34 -30q-23 0 -33 30q0 19 22 34zM571 450h3q30 0 30 -30q-4 -34 -33 -34q-24 0 -30 34q0 30 30 30zM492 438q26 -11 26 -33q0 -30 -30 -30h-3q-30 0 -30 30v3q0 30 37 30zM391 292h4q63 -15 90 -15q33 0 89 15l4 -7v-4q0 -36 -63 -79
q-8 -12 -15 -198l-8 -4h-15q-7 0 -7 7q-6 210 -30 210q-49 23 -49 64v11z" />
    <glyph glyph-name="hyphen" unicode="&#xad;" horiz-adv-x="1360" 
d="M1208 1431h3q15 0 98 -41l-206 -465l11 -45q0 -26 -79 -198q49 -44 49 -101v-15q0 -102 -206 -199q-165 -64 -221 -64v4q81 76 97 131q221 79 221 143q0 56 -337 198q-38 24 -180 79q-73 41 -120 41q-125 0 -168 -217q-8 -28 -8 -53v-41q0 -50 45 -112q21 -95 98 -158h3
v-7q-155 43 -217 139q-41 79 -41 161q45 397 285 397h7q72 0 232 -79q277 -128 311 -139h4q61 173 109 173q51 94 210 468zM488 783q92 0 165 -67q75 -76 75 -165v-12q0 -100 -67 -168q-78 -75 -173 -75q-184 0 -243 202q0 25 -4 38h4q0 3 -4 3q0 137 135 218q58 26 112 26z
M279 562h26q18 -9 18 -38q-16 -30 -41 -30q0 -18 8 -18q12 7 22 7q30 0 30 -30v-15q-11 -18 -26 -18q0 -8 49 -19q7 -49 33 -49q0 -4 4 -4q0 18 30 23q34 0 34 -41h34q3 0 18 37l19 4h4q22 0 30 -23q25 15 30 15v15q0 34 52 34v8q-20 0 -26 30q5 33 34 33q16 -4 26 -4l4 19
q-42 0 -42 41q0 23 45 23q0 55 -63 127q-66 60 -146 60q-145 0 -203 -161zM245 727h15q7 -1 7 -8q-6 0 -41 -52q0 4 -4 4q10 56 23 56zM743 671h4q48 -19 48 -27v-3q-52 0 -52 30zM773 599l120 -3q19 -16 19 -19q-51 -41 -68 -41q-71 0 -71 15q-4 38 -7 45zM368 539
q30 -10 30 -33q0 -30 -37 -34q-30 12 -30 34q9 33 37 33zM608 539q14 0 30 -22v-11q-6 -34 -30 -34q-34 5 -34 34q5 33 34 33zM526 521q33 -9 33 -38q0 -24 -33 -30q-30 0 -30 30v8q4 30 30 30zM432 517h26q19 -10 19 -30v-11q-13 -23 -34 -23q-24 0 -30 34q0 20 19 30z
M387 450h23q22 -14 22 -34q0 -24 -34 -30q-23 0 -33 30q0 19 22 34zM571 450h3q30 0 30 -30q-4 -34 -33 -34q-24 0 -30 34q0 30 30 30zM492 438q26 -11 26 -33q0 -30 -30 -30h-3q-30 0 -30 30v3q0 30 37 30zM391 292h4q63 -15 90 -15q33 0 89 15l4 -7v-4q0 -36 -63 -79
q-8 -12 -15 -198l-8 -4h-15q-7 0 -7 7q-6 210 -30 210q-49 23 -49 64v11z" />
    <glyph glyph-name="period" unicode="." horiz-adv-x="2110" 
d="M363 1425h1127q38 0 58 -27v-18q-19 -32 -58 -32h-59q0 -8 199 -606h122q145 0 208 -177q14 -38 14 -81q-5 0 -5 -4q-89 45 -149 45l-9 -5h-23q-144 0 -244 -176q-23 -75 -23 -118h-941v23q0 167 -194 258q-43 13 -77 13h-41q-86 0 -181 -77h-4v46q0 94 67 181
q-36 311 -36 343q0 99 154 113h32q99 -30 99 -99v-5h5v326h-41q-39 0 -59 32v4q0 41 59 41zM449 1348v-606h100q11 0 63 -181h276q10 0 18 4q8 -4 18 -4h14l22 4l5 -9v-171h457q13 119 40 180l-262 285l-45 -36h-23q-18 8 -18 32q2 13 131 127h23q18 -8 18 -32v-5l-45 -49
l249 -267q15 48 90 117q-185 555 -199 611h-932zM562 932h23q42 0 72 -149q8 -8 32 -104h221q59 0 59 -50q0 -41 -54 -45h-285q-8 0 -90 271q-10 34 -10 36q8 31 32 41zM286 461q169 0 231 -185q0 -19 4 -50q0 -140 -153 -212q-43 -14 -77 -14q-172 0 -226 185q-5 17 -5 41
q0 162 167 226zM1811 461q170 0 230 -185q5 -31 5 -50q0 -160 -181 -221q-31 -5 -50 -5q-159 0 -221 167q-9 40 -9 64q0 159 171 221q43 9 55 9zM164 222q0 -90 127 -118q122 26 122 113v23q0 78 -100 113h-22q-113 0 -127 -131zM1693 244v-27q0 -88 122 -113
q122 26 122 113v27q0 84 -113 109h-22q-109 -28 -109 -109z" />
    <glyph glyph-name="slash" unicode="/" horiz-adv-x="1416" 
d="M1168 1425q76 -14 113 -27q-131 -619 -144 -706q22 -21 22 -72v-154q0 -23 -9 -54h73q109 0 131 -95q4 -6 4 -32v-127q-11 -126 -122 -126h-448q-9 0 -9 9q8 0 64 63h330q81 15 81 68v90q0 66 -86 77h-267q-10 0 -22 68l9 5h95q-9 29 -9 40v168q0 54 41 104l149 701h4z
M535 593h27q170 0 263 -186q22 -55 22 -108q0 -219 -235 -294q-24 -5 -45 -5h-37q-177 0 -266 208q-14 64 -14 95q0 182 204 276q48 14 81 14zM295 321l9 5h5q41 -6 41 -41q0 -36 -46 -41q0 5 -4 5v-9l4 -23h5l13 9h14q36 0 41 -45q-9 -32 -37 -32q0 -9 59 -22
q14 -59 32 -59q8 -5 18 -5q0 22 36 27q36 -5 36 -36v-13h55v13q0 36 40 36q17 0 41 -27q28 0 41 64q59 13 59 22q-32 0 -32 32v23q12 22 36 22h14l13 -9h5q0 9 9 32h-5l-9 -5q-40 7 -40 41q5 41 40 41h14v4q0 94 -118 181q-62 41 -140 41q-163 0 -240 -181q-9 -32 -9 -50z
M209 412q9 -2 9 -9q-14 -91 -40 -91q-18 -27 -18 -50v-67q0 -66 54 -86q55 0 81 -50q6 0 23 -23l-9 -4h-140q-109 22 -109 104v172q0 73 100 104h49zM408 294h5q27 -16 27 -41q0 -24 -23 -36h-31q-27 19 -27 36q0 38 49 41zM698 294q41 -7 41 -41q0 -17 -28 -36h-31
q-23 12 -23 36q6 41 41 41zM906 276h158q9 -1 9 -9v-9q0 -9 -9 -9h-163l-9 4q6 23 14 23zM503 271q29 0 37 -40q0 -36 -46 -41q-36 11 -36 45q11 36 45 36zM603 271q36 -12 36 -40q0 -36 -45 -41q-31 0 -36 45q11 36 45 36zM892 204h172q9 -2 9 -9v-10q0 -9 -9 -9h-176
q-9 0 -9 9q7 19 13 19zM440 185h18q23 -11 23 -36v-13q-12 -27 -36 -27h-5q-36 0 -36 36v4q0 36 36 36zM639 185h32q6 0 22 -22v-18q0 -36 -36 -36h-4q-25 0 -37 27v13q0 25 23 36zM549 172q36 0 40 -45q-13 -37 -45 -37q-36 15 -36 41q6 41 41 41z" />
    <glyph glyph-name="zero" unicode="0" horiz-adv-x="1486" 
d="M709 1431v-131q-144 0 -522 -136q-82 -50 -119 -95h-6q-12 57 -12 89q0 120 410 225q187 48 249 48zM774 1431q648 -107 648 -285q0 -4 -6 -77h-6q-101 117 -416 190l-231 47v113q1 12 11 12zM709 1229v-321q0 -13 6 -23q0 -6 -6 -6q0 -24 6 -24q-6 -215 -6 -309v-546
h-12q-411 250 -564 695q-35 94 -53 267q0 167 629 267zM774 1229q618 -105 618 -255v-12q0 -400 -386 -790q-197 -172 -243 -172v1217q1 12 11 12zM852 1146v-1003q291 206 421 611q36 135 36 220q-51 69 -315 142q-17 0 -142 30zM163 956q20 -266 178 -517
q110 -161 285 -296v665q0 13 -6 23q6 11 6 24v285h-6q-457 -88 -457 -184zM1000 992h12q9 0 24 -24v-12q0 -59 -101 -59h-18v-18l6 -36q0 -6 -6 -6l6 -41v-48q0 -50 6 -160h12q98 334 118 338q39 12 54 12h18q47 -4 47 -41q-12 -42 -47 -42h-24q-52 12 -65 12l-84 -279h24
q128 237 172 237h24q71 0 71 -53q-8 -25 -29 -36h-12q-46 0 -95 42q-119 -193 -119 -196q16 0 30 -30q0 -200 -95 -237q-48 0 -48 107v47q0 109 30 119v136q0 6 -6 6q0 6 6 6q-6 89 -6 131v53q0 58 95 72zM430 879q133 0 154 -172q0 -84 -118 -149q-36 -57 -36 -83h-12
q0 36 -41 95q-107 37 -107 148q21 161 160 161zM299 713q28 -119 119 -119h12q119 20 119 113v23q-20 113 -113 113q-137 -9 -137 -130zM448 772h12q12 -2 12 -12v-6q0 -12 -30 -12q-6 11 -6 24zM501 772h6q12 -2 12 -12v-12q0 -12 -12 -12h-6q-12 0 -12 12v12q2 12 12 12z
M424 730q9 0 24 -23l-18 -12h-12q-12 0 -12 12v6q0 8 18 17zM472 730h6q8 0 17 -17q0 -9 -17 -18h-6q-12 0 -12 12v11q2 12 12 12zM525 730h6q12 -2 12 -12v-11q0 -12 -12 -12h-6q-9 0 -18 18q0 8 18 17zM400 689q9 0 18 -18v-6q0 -12 -12 -12h-6q-8 0 -17 18q0 9 17 18z
M454 689q8 0 18 -18v-6q0 -12 -12 -12h-12q-12 0 -12 12v6q0 9 18 18zM501 689q9 0 18 -18v-6q0 -12 -12 -12h-6q-12 0 -12 12v12q2 12 12 12zM424 647h6q12 -2 12 -12v-6q0 -8 -18 -17q-8 0 -18 17q0 9 18 18zM472 647h6q8 0 17 -18q0 -8 -17 -17h-6q-12 0 -12 11v12
q2 12 12 12z" />
    <glyph glyph-name="one" unicode="1" horiz-adv-x="652" 
d="M340 1425h29q65 0 81 -98l-6 -41q0 -24 69 -75l24 -116l-12 -6v17h-6q0 -6 -6 -17h12l-12 -17v-6q0 -12 18 -12v-6q0 -11 -12 -11q0 17 -11 17l-12 -23q6 0 6 -6q-14 0 -35 -23q-16 0 -35 12q0 -14 -40 -105l6 -11l-6 -12q0 -3 63 -133v-29q0 -29 -46 -104v-64
q0 -138 70 -185q26 -27 87 -226q28 0 34 -70v-11q-29 -35 -69 -35q0 -20 -70 -29q-58 9 -58 23v12q51 45 93 104q-6 10 -6 23h6q-18 56 -87 145q-17 -91 -17 -139q11 -41 11 -46v-41q0 -8 -17 -17h-81q-13 0 -23 -6q-10 6 -23 6h-41q-9 0 -23 23v6q0 14 64 29q63 44 63 52
l12 52q-6 127 -6 168q-23 44 -69 214q-9 0 -18 23q12 42 23 128q-9 87 -29 87q-34 0 -81 -41q6 -96 6 -145v-46q-12 -85 -12 -93v-428q-3 -93 -63 -93h-12q-23 12 -23 35q20 15 81 23v174q0 6 6 6q0 5 -6 5l6 58v232q-12 85 -12 93v173q0 7 -34 41q11 52 29 52h34l18 -12h5
q64 32 64 41q-6 61 -23 122v5q0 37 116 134q0 61 -64 75v12q0 5 6 5q-6 23 -17 41l5 12q-58 11 -58 57q2 12 12 12h58q42 29 64 29zM519 1037v-6q0 -11 -11 -11h-6q0 8 17 17z" />
    <glyph glyph-name="two" unicode="2" horiz-adv-x="708" 
d="M396 1433h18q70 0 70 -110v-18q0 -52 -35 -52v-11q13 0 23 5q23 0 29 -58l29 6q70 0 70 -151v-17q0 -28 -6 -58l23 -284q6 0 6 -24q0 -15 -52 -52q5 -191 23 -302v-156q22 0 58 -122q-27 -12 -58 -12q-20 1 -41 53q-8 0 -17 17v46q0 13 6 24q-6 11 -6 17l6 12
q-35 98 -41 197q-21 36 -75 226l-12 6h-6q0 -15 -6 -46q0 -14 6 -87q-6 -74 -12 -82q12 -71 12 -122q-6 -72 -6 -81q35 -86 35 -104q0 -13 -6 -23q6 -11 6 -24q0 -30 -17 -34h-35q-30 0 -35 17v12q0 20 6 52l-6 11q12 19 12 29q-41 193 -41 203q0 203 -52 291q-18 0 -29 17
q6 32 6 46l-6 35q23 140 52 203v12h-6q-20 -81 -145 -81v5q-19 -11 -29 -11l23 -221l-5 -11q65 -575 81 -575q64 -20 64 -34q-18 -6 -18 -12q-87 14 -87 35v6q0 11 18 11q-70 553 -99 708q0 47 -29 70v34q0 11 139 64q0 13 29 18q0 243 58 243q54 0 76 41v12q-35 46 -35 69
v29q8 93 69 93zM547 841v-6q18 -110 18 -127h6l5 23q-23 98 -23 110h-6zM588 673v-17h6v17h-6z" />
    <glyph glyph-name="three" unicode="3" horiz-adv-x="684" 
d="M252 1428h5q88 0 113 -75q13 -9 42 -21l11 5q20 -26 48 -43q0 -14 54 -69v-6q0 -32 -22 -32l6 -26v-27q0 -54 -54 -161q54 -165 70 -262q-11 -5 -16 -5v-107q0 -44 53 -225q0 -140 43 -224q0 -4 16 -48v-22q0 -7 -16 -16h-48q-31 7 -38 198q-41 106 -69 214
q-18 1 -75 219h-32q-6 -67 -16 -96q66 -540 91 -540q7 0 26 -27v-5q0 -11 -10 -11q-42 23 -48 37v11q0 12 5 22l-80 497h-6q0 -19 -26 -144q0 -29 -49 -220q11 -17 11 -32v-43q0 -11 -48 -37q0 -24 -48 -32q-38 5 -38 16v5q0 20 43 80q4 27 27 27q0 100 32 300q0 44 -16 224
q11 12 27 118q-59 123 -59 139v5q0 93 32 225q-32 0 -32 11l21 53q-5 46 -5 70q0 43 75 80zM220 1016q0 -24 -6 -32q16 -45 16 -59h6q1 38 10 38l-21 53h-5zM70 11h11v-11h-11v11z" />
    <glyph glyph-name="four" unicode="4" 
d="M615 1430q41 0 51 -13q23 0 45 -52q4 -10 6 -28q-2 -36 -5 -47q29 -60 29 -63q0 -13 -30 -13q-28 0 -55 31q-6 -16 -10 -16h-6l-9 6q-22 -8 -33 -18q-3 -1 -7 -1h-5q-19 10 -36 27q-19 0 -32 -39q3 -74 13 -114l-1 -3q6 -16 6 -19q0 -32 -18 -64q-8 -10 -30 -23
q-6 -11 -6 -27v-15l12 -56q0 -73 24 -169l18 -31q-2 -32 -3 -32q6 -20 17 -36l-1 -7q0 -18 40 -96q184 -380 229 -464q10 -13 16 -15q37 2 50 2q27 -1 27 -10v-2q0 -16 -50 -22q-10 -1 -26 -1h-6q-33 0 -33 16v1q0 12 18 15q0 3 -48 97l-227 451q-16 11 -41 66q-2 0 -10 13
h-2q-2 -2 -4 -2q-16 11 -16 33v3q0 6 2 16q0 8 -13 9l-2 3v4l2 10h-6q-10 0 -10 10v5q-26 8 -26 29q0 2 -2 17q0 3 3 10l-22 32v6q0 2 5 4l-23 49q-40 -32 -45 -39q-4 0 -9 -11q10 -89 16 -89q1 0 6 -8v-6q-13 -9 -13 -33v-22q0 -15 -13 -100q0 -52 -25 -93q-1 -2 -1 -7v-1
q0 -4 3 -9q0 -1 -2 -4q8 -46 20 -152q10 -38 22 -47q3 -4 3 -7l-2 -3q5 -17 9 -18q1 0 9 1q20 -6 20 -16q46 -38 81 -38q15 -9 15 -17q0 -18 -39 -26q-2 0 -2 1l-7 -1h-16q-12 0 -30 1q-3 -1 -6 -1q-21 10 -31 10q-5 0 -7 -7q15 -4 33 -26q39 -38 81 -48q21 -9 21 -22v-1
q0 -27 -49 -35l-3 2q-18 -2 -18 -3l-7 1h-10q-3 0 -6 -1q-5 0 -71 19h-4l-23 -2q-41 0 -50 17v12q0 12 -1 26q5 42 13 52q-2 18 -6 25l2 8q-31 79 -49 141q-9 49 -9 66q0 16 13 92v8q0 58 -26 160q-12 65 -26 99q-15 0 -19 21q-12 1 -12 7l8 23q-12 53 -12 61q0 69 85 129
q13 13 53 40q21 22 37 47v13q18 8 18 34q6 0 15 35q-5 2 -5 10v9q0 13 17 13v1q0 3 -3 3h-11q-3 0 -3 -6h-3q0 8 -10 9v2q0 4 11 5v3q0 3 -3 3h-1q-2 0 -12 -3q13 11 13 15q-4 7 -4 11v5q2 5 10 5h16q3 0 9 35q3 0 3 3q-3 15 -3 17q3 9 7 11h1l-5 -9v-3h2q0 5 19 16q2 2 2 6
h3q0 -6 3 -6h2q10 0 18 14h-6v3q13 0 16 13q0 10 23 13h6v3l-10 2v3h4l10 -2q0 9 32 13q15 0 36 -16h3q8 0 16 19q13 20 29 20q6 16 56 32q15 3 19 3zM458 1369v-1h2v1h-2zM337 1290q2 0 2 -2q11 6 11 13q-13 -3 -13 -11zM330 1265q2 -3 2 -4q2 0 2 3v2h-1zM297 1227
q1 -5 7 -5l2 2q-3 6 -5 6h-1q-3 0 -3 -3zM300 1217v-1q1 -5 8 -5h5q3 0 3 3q0 2 -6 8q-7 -5 -10 -5zM306 1207q0 -3 2 -3h3q0 3 -3 3h-2zM310 1178l-2 -7l3 -2h5l1 8l-3 1h-4zM307 1167v-3q0 -3 3 -3h1v3q0 3 -3 3h-1z" />
    <glyph glyph-name="five" unicode="5" horiz-adv-x="1752" 
d="M370 1416h5q73 0 89 -100q-5 -40 -17 -55q33 0 194 -155q247 -122 304 -122q54 0 55 -5q537 55 559 66v44q0 41 16 45h17q9 0 22 -22v-17q-18 -72 -72 -72q-625 -61 -625 -88l-11 5q-5 0 -5 -5l-28 5h-22q-65 0 -100 -16q-16 5 -16 11l-11 -6h-11q-11 0 -11 17
q-82 -11 -122 -11h-72v-6q22 -140 55 -265q-10 -6 -16 -6v-33q0 -98 -22 -172q16 -126 16 -188v-77l6 -39h-6q33 -66 33 -88q11 0 11 -28v-22q0 -11 -11 -11h-55q-18 0 -33 116q5 17 11 17q-44 224 -44 287q-22 43 -22 61v11l5 33q-11 35 -28 117h-5q-69 -266 -116 -266
q-105 -172 -105 -182q-33 -188 -67 -188h-22q-29 0 -33 16v6q21 98 61 160l66 194q67 61 67 149q0 3 5 72q-5 44 -17 44q0 80 61 271l-16 11l5 11q-11 42 -11 44h6q-35 69 -50 177q-11 0 -11 11v28q9 0 28 39q-6 10 -6 16q39 37 39 105q22 56 83 56zM248 1217v-11h6v11h-6z
M491 1123v-6q45 -56 45 -83l-6 -27h6q97 -12 121 -12h72v6q-45 0 -238 122zM784 979v-6h23v6h-23z" />
    <glyph glyph-name="six" unicode="6" horiz-adv-x="1658" 
d="M814 1441h11l41 -130q9 0 94 42v-6q-24 -140 -42 -140h-192q-11 0 -42 140q5 0 5 6q72 -42 89 -42q0 11 36 130zM596 1160h5q40 0 83 -130q89 -161 89 -182v-5q0 -26 -11 -26q46 -99 52 -99q47 88 47 104q-10 0 -10 10v11q138 317 161 317h31q26 -16 26 -36
q0 -19 -151 -312q-41 0 -88 -136q120 -251 130 -255q98 63 172 63q98 -17 98 -94v-5q0 -68 -140 -78q-142 0 -192 172q-6 4 -84 171h-5q-136 -301 -161 -312q-59 -31 -115 -31q-140 0 -140 88q0 72 104 89q71 0 166 -63q126 225 131 266q-48 119 -73 119q-28 0 -162 312v21
q9 21 37 21zM200 1129q157 -39 157 -99q-115 -258 -115 -323q0 -102 146 -156q5 -10 5 -15q0 -31 -21 -31q-146 53 -146 176v21q0 102 99 318q-70 57 -130 57q-76 0 -114 -78q12 -68 119 -68l6 -10v-26q0 -11 -11 -11h-31q-104 16 -104 99q25 146 140 146zM1397 1129
q146 -23 146 -146q0 -85 -104 -99h-32q-10 0 -10 11v26q0 12 88 26q37 26 37 52q-37 78 -120 78q-63 0 -125 -63q99 -206 99 -296v-42q0 -120 -151 -171h-5l-10 31q1 15 99 62q45 46 52 109q0 68 -115 323v10q78 89 151 89zM351 744h16q28 0 36 -21q0 -8 -20 -16
q0 12 -26 16q-21 -5 -21 -31v-11q0 -7 15 -15h16q10 0 10 10q-20 0 -20 11v10h52v-26q-19 -31 -47 -31h-5q-44 0 -52 57q10 47 46 47zM455 744h42q36 -19 36 -52q-12 -52 -52 -52h-10q-52 12 -52 52q0 26 36 52zM549 744h16q10 -2 10 -10v-68q31 0 31 -11q0 -10 -10 -10h-47
v99zM627 744h36q11 -2 11 -10v-6q0 -10 -31 -10v-11h26v-15q0 -11 -26 -11v-26q0 -10 -11 -10h-5q-10 0 -10 10v79q1 10 10 10zM986 744h21q10 -2 10 -10v-11l-5 -10l-10 5h-16q-7 0 -16 -16v-21q0 -7 21 -15l26 5v-16q0 -7 -15 -15h-11q-52 10 -52 52q7 52 47 52zM1043 744
h5q11 -2 11 -10v-68q31 0 31 -11q0 -10 -10 -10h-37q-10 0 -10 10v79q1 10 10 10zM1111 744h5q10 -2 10 -10v-42l6 -26h15q16 3 16 41v37h15q11 -2 11 -10v-47q-7 -47 -47 -47q-42 0 -42 41v53q2 10 11 10zM1215 744h41q8 0 16 -16v-21l-5 -10q7 0 16 -16v-20
q-6 -16 -32 -16h-36q-11 0 -11 10v79q2 10 11 10zM1236 723v-21q10 0 10 11v10h-10zM450 702v-15q0 -8 21 -21q31 0 31 31v5q0 8 -15 16h-21q-8 0 -16 -16zM1236 681v-15h10q10 0 10 10v5h-20zM726 88q47 -8 47 -46v-11q-10 -31 -58 -31q-31 11 -31 42q8 46 42 46zM622 83
h31q8 0 21 -21v-10q0 -7 -16 -16l16 -26v-5h-16q-13 0 -15 21h-6q0 -21 -10 -21h-5q-11 0 -11 11v57q2 10 11 10zM788 83h6l20 -15l21 15h5q11 -1 11 -10q-31 -25 -31 -68h-6q-6 0 -20 52q-6 0 -16 21zM892 83h6q12 0 36 -73l-10 -5h-6l-15 11h-21l-16 -11h-10v5
q21 73 36 73zM955 83q10 -1 10 -10v-52q26 0 26 -11l-10 -5h-26q-11 0 -11 11v57q2 10 11 10zM637 68v-21q11 0 11 10q0 11 -11 11zM705 42q5 -21 31 -21l11 15v16q0 10 -11 10h-15q-13 0 -16 -20zM892 52q0 -6 -5 -16h11v16h-6z" />
    <glyph glyph-name="seven" unicode="7" horiz-adv-x="1571" 
d="M864 1414h23q134 0 170 -89q0 -7 -15 -74q407 -185 407 -622q-5 -103 -29 -103h-15q-116 125 -208 125q-46 -7 -118 -37q-104 126 -222 126h-22q-187 -697 -215 -725q-30 -15 -52 -15q-66 23 -66 74l192 711q-73 37 -111 37h-59q-108 -15 -119 -15q-71 111 -163 111h-59
q-10 0 -118 -15l-15 22q201 408 592 408h30q39 0 126 -8q0 89 66 89zM857 1362q-7 -24 -7 -52q113 -37 140 -37h8l7 52q-53 36 -104 37h-44zM124 962l52 8h44q103 0 193 -82h7q130 301 289 385v8h-74q-327 0 -511 -319zM465 866h7l44 8h52q101 0 178 -74h7q126 419 126 444
v7q-59 15 -74 15q-160 -40 -303 -318q-37 -69 -37 -82zM931 1236l-126 -451q7 0 59 7q99 0 215 -104q30 74 30 149v14q0 202 -126 371q-22 0 -52 14zM1079 1177v-7q81 -166 81 -319q0 -69 -22 -163l15 8h67q69 0 177 -89v15q0 390 -318 555zM738 740q-185 -638 -185 -681
l15 -7h8q27 0 155 511q6 1 52 170q-9 7 -45 7z" />
    <glyph glyph-name="eight" unicode="8" horiz-adv-x="2400" 
d="M676 1414h1414q162 0 162 -134q-29 -99 -99 -99h-116v-510q215 0 215 -340v-143l-27 -18h-90q-18 0 -62 161q-83 116 -215 116h-18q-190 0 -233 -268l-45 -9h-733q-18 0 -63 161q-88 116 -242 116q-98 -19 -98 -53l-18 9q-107 -100 -107 -215l-27 -18h-188q-22 0 -36 72
l9 125q0 40 -9 197q71 232 233 232h483q25 0 143 385h-286q-90 0 -108 117q0 116 161 116zM578 1289q0 -54 63 -54h1485q48 0 63 36v45q0 14 -36 35h-1512q-63 0 -63 -62zM981 1181q-117 -322 -152 -402l134 -63l45 72q-81 43 -81 80q22 18 36 18q206 -131 215 -152v-18
q0 -18 -18 -18q-27 0 -108 54l-53 -90q26 -46 26 -89v-134h448q0 161 152 223q72 6 72 18q25 340 107 340h170v161h-993zM1536 456v-53q0 -13 -27 -27h-492q-47 0 -54 27v179q0 113 -224 152h-421l-62 -18v9q-134 -46 -134 -206q0 -20 -9 -36q0 -9 9 -9l-9 -107v-134h134
q0 140 170 250q67 27 107 27q256 0 331 -242v-35h690q15 0 35 98q106 179 287 179q219 0 295 -259v-18h27v98q0 242 -63 242q0 26 -143 45l-9 17v323h-161q-24 0 -72 -340q-205 0 -205 -162zM542 394h45q161 -48 161 -188v-18q-42 -188 -188 -188q-206 33 -206 197
q39 197 188 197zM1849 394h18q158 0 188 -197q-33 -197 -197 -197q-165 0 -197 206q42 188 188 188zM417 197q16 -134 134 -134q134 18 134 116v27q-22 134 -125 134q-143 -24 -143 -143zM1724 215v-18q16 -134 134 -134q134 18 134 116v36q0 95 -125 116h-27
q-116 -29 -116 -116z" />
    <glyph glyph-name="nine" unicode="9" horiz-adv-x="1279" 
d="M570 1430h36q299 0 470 -332q36 -100 36 -195q0 -285 -253 -455q-11 0 -29 -80q-101 -144 -130 -144q-22 0 -58 -188q-28 -36 -65 -36q-72 0 -101 195q-10 24 -79 58q-9 30 -87 144q0 59 -87 109q-173 167 -173 390v28q0 303 332 470q81 36 188 36zM93 903
q0 -315 333 -462q77 -22 130 -22h50q208 0 376 209q79 141 79 246v65q0 261 -318 419q-105 28 -173 29q-285 0 -441 -311q-21 -46 -36 -173zM881 917q72 -16 72 -72q-10 -65 -65 -65h-29q-10 0 -43 43v29q11 65 65 65zM281 874q51 0 65 -80q0 -46 -65 -57h-29q-10 0 -43 43
v43q26 51 72 51zM866 867l-7 -29l22 -15h7q14 0 14 15v14q0 15 -14 15h-22zM252 802q0 -11 22 -22h7q15 0 15 14v15q0 14 -15 14h-7q-10 0 -22 -21zM693 831h7q65 -10 65 -65v-22q-26 -51 -72 -51q-65 10 -65 65v8q9 65 65 65zM447 823h7q65 -9 65 -65v-7q-9 -65 -65 -65
q-72 10 -72 65q7 72 65 72zM686 787q-8 -21 -15 -21q7 -14 7 -22h22q14 0 14 14v22zM433 773v-36h29q14 0 14 14l-22 29q-14 -7 -21 -7zM859 737q42 0 72 -58v-7q-10 -73 -65 -73h-7q-72 13 -72 65q9 73 72 73zM310 693h7q65 -9 65 -65v-7q0 -65 -79 -65q-58 20 -58 72
q9 65 65 65zM837 672v-8l15 -21q29 11 29 21v8q0 14 -15 14h-14q-15 -2 -15 -14zM296 643v-22q2 -14 14 -14h22v36q-15 0 -15 7q-14 -7 -21 -7zM693 650h29q10 0 43 -43v-29q0 -55 -72 -65q-51 0 -65 79q0 47 65 58zM512 643q65 -10 65 -65v-29q-25 -43 -65 -43h-7
q-65 11 -65 65q17 72 72 72zM678 599v-21q3 -15 15 -15h7q10 0 22 22q0 10 -22 22q-14 -8 -22 -8zM491 578v-7l14 -22q29 11 29 22q-7 14 -7 21h-22q-14 -2 -14 -14zM361 404l93 -137q65 0 65 -58q38 -158 51 -158h14q18 13 65 209q60 0 87 79q21 0 51 51v7
q-63 -21 -195 -36q-117 7 -231 43z" />
    <glyph glyph-name="colon" unicode=":" horiz-adv-x="1340" 
d="M646 1425h13q325 -403 325 -436q0 -19 -72 -19q221 -280 222 -306q-22 -13 -39 -13h-92l228 -300v-19q0 -13 -13 -13h-358v-299q0 -10 -19 -20h-365q-9 0 -19 20v299h-377q-10 0 -20 19l234 313h-110q-17 0 -20 26l221 293q-78 0 -78 26q290 380 339 429zM379 1022v-7h58
q10 0 20 -19v-7l-221 -286v-7h110q10 0 20 -19v-7l-234 -306h1034q-47 67 -228 300v13q0 9 20 19h104v7q-215 273 -215 299q0 13 72 13l-260 351h-7q-5 0 -273 -344zM502 319v-273h319v273h-319z" />
    <glyph glyph-name="semicolon" unicode=";" horiz-adv-x="2136" 
d="M1809 1425q142 -80 194 -132q0 -26 -361 -563q0 -22 9 -70q0 -68 -123 -247v-17q53 -86 53 -167q-46 -229 -370 -229h-114q-472 0 -845 123q-202 106 -202 264q113 412 299 616q85 88 211 88q218 0 660 -343q94 132 176 132h35q312 490 378 545zM1818 1355l-334 -493v-9
q15 0 105 -70h18l325 492zM112 396v-27q0 -197 492 -272q342 -35 537 -44q378 0 378 185q0 223 -493 589q-330 202 -448 202h-44q-223 0 -422 -633zM1273 713q211 -211 211 -247q96 114 105 185v26q0 48 -158 150q-97 0 -158 -114zM446 325q433 -140 686 -140q160 0 211 88
h18q17 -3 17 -18q-31 -132 -255 -132q-275 0 -704 158v18q0 13 27 26z" />
    <glyph glyph-name="semicolon" unicode="&#x37e;" horiz-adv-x="2136" 
d="M1809 1425q142 -80 194 -132q0 -26 -361 -563q0 -22 9 -70q0 -68 -123 -247v-17q53 -86 53 -167q-46 -229 -370 -229h-114q-472 0 -845 123q-202 106 -202 264q113 412 299 616q85 88 211 88q218 0 660 -343q94 132 176 132h35q312 490 378 545zM1818 1355l-334 -493v-9
q15 0 105 -70h18l325 492zM112 396v-27q0 -197 492 -272q342 -35 537 -44q378 0 378 185q0 223 -493 589q-330 202 -448 202h-44q-223 0 -422 -633zM1273 713q211 -211 211 -247q96 114 105 185v26q0 48 -158 150q-97 0 -158 -114zM446 325q433 -140 686 -140q160 0 211 88
h18q17 -3 17 -18q-31 -132 -255 -132q-275 0 -704 158v18q0 13 27 26z" />
    <glyph glyph-name="less" unicode="&#x3c;" horiz-adv-x="3037" 
d="M686 1415q58 0 326 -263h25q272 263 325 263l313 -276q119 132 301 276h25l313 -276q3 20 300 276q67 0 301 -225v-1152q-13 -38 -75 -38h-2692q-68 0 -88 50v1290q0 18 38 37h25l263 -238q0 9 300 276zM386 1039q-70 48 -238 201v-389h2692v301q0 10 -200 163h-13
l-301 -263h-37l-301 263q-125 -101 -300 -263h-38l-300 263h-13q-296 -276 -313 -276t-313 276h-12zM148 764v-676h2692v676h-2692z" />
    <glyph glyph-name="equal" unicode="=" horiz-adv-x="1333" 
d="M294 1431q97 0 122 -134q0 -112 -139 -134q-122 30 -122 123v29q0 80 104 116h35zM184 1140h6q17 0 17 -75v-24q9 1 58 70q-23 0 -23 23l12 6h64v-11q0 -18 -24 -18q28 -39 58 -70l6 70v18q2 11 12 11h6q107 0 139 -151v-29q0 -134 -180 -367h-6q-52 66 -52 76
q129 191 134 256v6h-6q0 -59 -116 -221q-6 9 -6 29h-6l-41 -12q-75 119 -75 198h-12q0 -103 186 -361v-11q0 -47 -46 -47q-45 0 -105 111q-134 182 -134 337q30 186 134 186zM1010 1024q128 -26 128 -128v-18q0 -86 -105 -122h-46q-43 0 -94 64q63 37 105 82v5
q-108 -75 -186 -75q-35 6 -35 17v12q24 42 111 87q48 76 122 76zM1103 756q125 0 157 -192q17 -56 17 -128q0 -165 -64 -197q-43 -12 -81 -12h-47q0 -9 117 -87q23 -31 23 -53q-10 -75 -64 -75h-17q-49 12 -355 238q-18 42 -18 52q0 60 82 70h209q0 16 -23 181
q134 43 134 87v12q-12 52 -58 52q-77 -29 -88 -29v11q0 61 76 70zM271 727q12 -24 12 -35l-18 -11q-23 29 -23 35q19 11 29 11zM434 710h6l64 -594l-18 -11h-11q-29 48 -117 372q-17 42 -17 52l6 24v40zM1115 692q52 0 52 -46q0 -44 -111 -76q-1 -11 -35 -17q-34 71 -34 87
q100 52 128 52zM120 681h6q118 -169 122 -169q-41 -436 -58 -436q-6 0 -35 -24h-18q-75 0 -75 64q23 298 58 565zM963 634q47 -47 47 -87q-254 -117 -268 -117h-6q-6 0 -34 41h-12l-52 -29h-18q-12 0 -12 12v11q82 51 349 163q0 6 6 6zM329 512q22 -30 93 -297
q16 -38 41 -122h99q23 -9 23 -41v-11q0 -32 -23 -41h-23q-99 26 -99 76q0 28 -134 418zM323 390h12l105 -332l-12 -6h-6q-75 0 -75 146zM672 128q53 -9 53 -47q0 -30 -29 -46h-47q-23 9 -23 41v23q15 29 46 29z" />
    <glyph glyph-name="greater" unicode="&#x3e;" 
d="M444 1431h13q186 -39 205 -64v-19q0 -28 -109 -33h-32l-77 7q30 -32 103 -32h26q12 -2 12 -13q-36 -116 -115 -116h-45q-115 41 -115 135q23 135 134 135zM412 1335v-7h13v7h-13zM438 1136h32q158 0 218 -154q7 -13 7 -19q-52 -26 -71 -26q-13 0 -13 38h-6q0 -42 -77 -64
q-12 7 -26 7h-6v-7l32 -6h38l-6 -45v-19q0 -54 128 -270q-115 -38 -237 -58q-112 0 -174 103q-25 0 -25 26q90 161 90 199v25l-7 32q14 7 58 13v7h-19l-13 -7q-71 24 -71 58h-6v-32h-7q-70 16 -70 32q60 148 141 148q0 19 90 19zM200 943q16 0 71 -13q-51 -185 -51 -237v-38
l552 -578q100 51 115 51q39 -41 39 -45v-19q0 -51 -90 -51h-13q-54 0 -77 64q-11 0 -546 539q-64 0 -64 45q0 31 -45 64q-51 45 -51 71l26 19q70 -69 70 -77h7q34 173 57 205zM707 937q52 -136 52 -308l-20 -13h-32q-25 0 -45 186l-38 122q15 13 83 13zM605 526
q-13 -73 -13 -102v-110l-7 -12q7 0 7 -7l-13 -6q-21 31 -122 135v64q0 14 148 45v-7zM387 507q57 -5 57 -19v-26q0 -13 -13 -13l-44 52v6zM303 488h7q8 0 134 -135v-270q-9 -83 -77 -83q-57 20 -57 64v295q0 42 -7 129zM457 334h7q8 0 128 -129v-122q0 -71 -64 -83
q-71 13 -71 71v263z" />
    <glyph glyph-name="question" unicode="?" horiz-adv-x="1958" 
d="M203 1431h1519q10 -2 10 -10v-59q0 -10 -10 -10h-246v-5l182 -730l10 -5h54q9 -2 94 -109q54 -49 54 -138q7 0 10 -34h-10q-71 59 -153 59q-124 0 -197 -133q-18 -72 -30 -74h-828q-6 0 -40 98q-79 109 -192 109q-124 0 -197 -129q-24 -78 -30 -78h-143l-10 4
q49 446 64 523h59v55q2 9 10 9h153q25 223 54 578h-187q-10 0 -10 10v59q2 10 10 10zM479 1352v-642h158l-104 262v5q8 19 35 19h10q18 -11 133 -310q69 -146 69 -173h163q10 -2 10 -10v-261h399v261q2 10 10 10h123q0 8 25 69q-81 73 -202 192q-20 0 -40 50q-7 0 -14 15
q7 1 88 83h10q10 -1 10 -9v-10l-64 -69q5 -41 217 -227q5 0 5 5q0 14 10 14q67 -4 84 -4l-183 720q9 5 20 5v5h-972zM1002 1228q79 -9 79 -34q113 0 113 -30v-10q0 -24 -108 -34q-51 0 -84 20h-5q0 -19 119 -40v-10q0 -61 -109 -89q-82 0 -113 94v25q18 108 108 108z
M903 1006q60 0 74 -93h-14q-44 44 -69 44q-50 -7 -50 -44v-5q0 -41 109 -104q-10 -69 -10 -123h173q69 0 69 -99q29 -244 29 -276q-24 -45 -69 -45q-69 0 -69 153q0 50 -15 138h-187q-114 0 -114 139v59q0 156 79 232q19 14 64 24zM898 952q11 0 104 -79q-11 -4 -44 -64
q-61 35 -104 84v29q17 30 44 30zM1012 873q103 -44 202 -44h30q29 -19 29 -25v-30q0 -6 -29 -29h-69v-5h24v-5q0 -7 -14 -15h-5l-20 30q-192 32 -192 64q25 41 44 59zM430 335h20q65 0 128 -83q20 -47 24 -84q0 -111 -133 -168h-39q-141 0 -168 173q0 106 128 158q19 4 40 4
zM1737 335q69 0 128 -83q25 -45 25 -89q0 -112 -138 -163h-35q-111 0 -158 123q-4 19 -4 45v5q0 122 143 162h39zM351 163q19 -74 74 -74h15q69 16 69 64v30q0 53 -79 64h-5q-59 0 -74 -84zM1643 178v-20q16 -69 69 -69h10q79 10 79 79q-15 79 -74 79h-5q-79 -10 -79 -69z
" />
    <glyph glyph-name="at" unicode="@" horiz-adv-x="684" 
d="M331 1433h9q0 -36 46 -36v-9q-46 0 -46 -41h-9v27q-30 14 -41 14v9q41 0 41 36zM459 1347q0 -37 54 -37v-9q-39 0 -59 -36h-5q0 36 -50 36v9q41 0 60 37zM104 1333q19 -18 36 -18l14 9q94 -50 136 -82q-9 -1 -9 -9q41 -23 41 -32q-27 -55 -73 -82q-41 -27 -100 -27l-4 -9
q5 -54 63 -160q0 -7 -45 -50h-5q-35 25 -82 155q-16 0 -36 27l32 14q0 6 -5 46q18 26 18 31q-27 46 -27 78q24 109 46 109zM104 1306q-23 -42 -23 -96l4 -23h10q13 65 36 100q0 7 -23 19h-4zM267 1215q0 -10 -63 -91h9q30 0 82 68v4q0 8 -28 19zM395 1210h9q0 -32 32 -32v-9
q-32 -5 -32 -32h-9q0 32 -32 32v9q32 0 32 32zM372 1083h18q15 0 78 -28q75 -4 86 -31v-10q-12 -27 -105 -27q-20 0 -63 9q30 -27 86 -27h9v-14q0 -46 -77 -77h-36q-64 0 -91 86v19q18 100 95 100zM217 914q33 -37 101 -72q4 -5 9 -60q39 40 41 51q-7 0 -14 13v5h54v-9
q-13 0 -13 -14q32 -34 32 -46h9q4 69 18 69h9q97 0 127 -137q-54 -27 -68 -27h-4v14l-9 31h-5v-691q-19 -41 -68 -41q-46 21 -46 50v419h-18v-401q-5 -68 -68 -68q-46 19 -46 55v727q-75 55 -91 78v9q47 45 50 45zM590 701q23 -58 23 -173q0 -114 -41 -114h-13q-7 0 -28 27
q0 27 5 96q-5 88 -14 136q42 25 68 28z" />
    <glyph glyph-name="A" unicode="A" horiz-adv-x="1179" 
d="M745 1420h11q48 0 83 -97q16 -31 60 -60q17 -15 27 -65q10 -12 35 -40q10 -19 10 -33l-3 -1l-2 1q1 -10 5 -10v-8q-2 0 -27 25h-3q10 -18 20 -57l21 -43q0 -23 6 -23q31 -105 61 -142q27 -42 27 -79v-6q-9 -67 -9 -116q1 -52 3 -74l-3 -2q-15 2 -26 2h-1
q-16 -100 -16 -112v-7q0 -12 17 -107q3 -24 4 -53q0 -42 -21 -116q-4 -22 -4 -32q6 -49 17 -49q9 0 15 -24q20 -35 20 -51v-3q0 -21 -46 -24q-49 0 -88 -11q-11 -3 -33 -3q-68 0 -68 45q0 21 66 28q24 6 46 32q6 0 6 61q-8 289 -22 310q-8 24 -8 47l4 34v5h-1
q-7 -32 -23 -86l-2 -9q13 -66 13 -83v-3q0 -26 -18 -91q-3 -7 -3 -22q0 -24 16 -37v-1l5 -56q-2 -15 -9 -15q-9 0 -108 -13h-8q-57 0 -57 34q0 16 52 28q48 23 54 27q1 27 1 35q-5 187 -15 222q0 11 -1 21q3 51 12 111q-5 0 -5 3q9 91 20 131q9 31 9 51v2q-4 29 -4 33l-2 -1
h-6q-2 0 -4 4q2 28 2 39l1 3v1h-1q-31 -49 -69 -100q0 -1 -2 -4q8 0 8 -10q0 -2 -13 -14v-28q0 -18 -38 -27v-14q0 -10 -15 -13q-4 -9 -13 -13q-2 -5 -4 -5h-6l-2 1q0 -5 -7 -9h-6q-6 0 -6 3q-10 0 -38 -35q-249 -276 -431 -481q-48 -61 -72 -61h-8q-35 9 -35 32v6
q0 16 26 16q14 0 47 -16h7q12 10 486 544v9q0 11 34 130q6 20 17 131q21 62 21 89q-6 0 -6 10q-5 57 -5 96q0 38 26 53q0 2 2 5q0 2 -21 19q-2 0 -25 -24h-6q-14 0 -25 18q-11 0 -11 11q-6 1 -10 14q-17 2 -17 9q4 17 4 23v4q0 8 -14 30q-5 28 -11 45q13 31 38 50
q13 11 39 20l19 1q9 -1 11 -1q16 16 29 16zM748 1390q20 -18 20 -21h2v1q-13 20 -22 20zM793 1298q0 -5 -7 -28q5 -26 12 -26q0 2 8 8h5q2 0 10 -13l7 1h2q10 -8 33 -16v1q-13 18 -33 37q-35 31 -35 36h-2zM782 1011v-3q0 -110 -39 -189v-3h1q25 33 31 62q12 60 35 76
q1 0 6 7q0 6 -33 50h-1z" />
    <glyph glyph-name="B" unicode="B" horiz-adv-x="1219" 
d="M631 1414q28 0 59 -23q39 -42 39 -57v-2q-12 -44 -12 -57q1 -5 31 -56q0 -6 -15 -6h-5q-29 0 -44 33q-22 -11 -27 -26q-4 -13 -11 -13q-3 0 -11 6q-11 -8 -25 -8q-8 -16 -15 -16h-1q-7 0 -19 14l-13 8v0q9 -19 9 -23q-14 -7 -14 -9q30 -42 30 -56q0 -35 10 -69
q2 -21 6 -41q2 0 11 2q2 -4 2 -12v-14q-4 -4 -4 -5v-9q0 -18 11 -27q0 -1 2 -4l-7 -8v-1q31 -42 63 -101q20 -15 27 -46q11 -27 11 -43q0 -8 -12 -44q36 -46 36 -48q0 -4 48 -68q121 -175 177 -268q33 40 35 40q9 0 13 -18v-9q0 -18 -40 -30q-12 0 -30 36q-103 168 -201 294
q-50 57 -52 57q-14 0 -21 9q-4 0 -13 11q-21 2 -21 15h1q-7 6 -7 12v2q-10 0 -12 13q1 1 1 2h-2q-14 0 -14 19v37q0 7 -18 26q-37 44 -37 76q0 4 -20 31q-9 13 -13 25h-4q0 -7 -13 -8q-20 -53 -38 -75h9q26 0 30 -38q1 -8 1 -9q0 -8 -8 -31v-3q8 -36 24 -71q16 -25 16 -39
q8 -23 13 -67q12 -31 12 -70q3 -15 17 -57q1 -5 1 -9v-5q0 -13 -9 -31q0 -51 -35 -185q-13 -69 -25 -100q-3 -26 -5 -43q26 -12 53 -12q18 -6 18 -19q0 -2 1 -4q-48 -18 -93 -18q0 -3 6 -10q0 -10 10 -10q13 -12 19 -12q26 -7 26 -24v-4q0 -10 -11 -10q-3 -1 -14 -1h-10
q-51 0 -83 33q-27 22 -29 22q-3 -4 -6 -4q-39 19 -65 41l-6 6v1q10 10 13 29q3 7 5 7q-3 0 -5 47q-23 98 -23 131q-10 56 -17 118q-11 49 -11 86q-15 62 -34 103q-8 25 -8 54q0 5 -19 32q-2 3 -4 30q-20 21 -20 53q-6 54 -6 88q0 14 24 51q12 19 12 23q0 6 7 18q-3 10 -3 15
q0 21 20 46q-1 5 -1 8q0 4 8 27q0 31 26 82q10 32 47 80q17 28 50 60q29 25 49 25q41 2 41 11q1 0 11 12h3q11 0 19 -15q5 0 19 11q0 12 18 22q0 1 14 14l8 -2q-3 3 -3 5q4 13 15 18q30 25 51 25z" />
    <glyph glyph-name="C" unicode="C" horiz-adv-x="1399" 
d="M888 1428h7q11 0 23 -5v4h1q6 -7 12 -7q0 -1 24 -15q15 -13 25 -47q3 -18 8 -31v-1q-3 -19 -10 -24q-2 0 -2 -4v-1q0 -8 9 -15v-1h-3l1 -10v-4q0 -3 -7 -13v-1h2q17 0 27 -8q78 -42 91 -54q26 -24 67 -126q28 -75 28 -98v-11q0 -34 -32 -98q-2 -1 -16 -23q-6 -4 -14 -6
q-4 -1 -6 -15q-5 -10 -23 -23q-8 -2 -8 -9q-9 -26 -17 -26q0 -8 -17 -22q-24 -25 -25 -27q134 -645 134 -648q1 0 2 -11q0 -16 -23 -29h-4q-29 7 -29 20v2q0 4 39 15q5 2 5 7q-134 606 -138 628h-1l-18 -75q0 -22 -20 -50q-6 -15 -18 -30q-25 -73 -26 -85q-6 -24 -17 -24
q-9 -4 -11 -8v-1q5 -33 5 -67v-15q0 -33 2 -127q0 -4 -6 -24q3 -2 20 -4q23 -9 23 -31q0 -5 1 -9q0 -2 -13 -13l-1 -5q1 -39 1 -43q-2 -9 -17 -9h-1v-1q17 -25 17 -36q0 -5 -9 -7q-46 4 -46 14q-2 2 -2 4h-10q-12 0 -12 18l-1 1q-12 0 -12 -2q-4 -42 -10 -42l-640 -20
q-26 3 -26 21q0 9 -5 12v14q4 2 4 9l6 66q-4 1 -4 2q2 16 8 16q0 12 17 13q48 0 48 5q2 4 3 4h8q7 -6 19 -7q25 0 169 3q0 21 22 45q18 13 39 13h7q5 0 125 -20q19 -3 25 -3q30 32 30 60q2 55 33 66q7 0 7 8q9 30 13 35q5 0 14 29q3 10 3 15q-6 118 -16 195q-3 35 -3 56v18
q0 22 1 51q-1 6 -1 20q5 19 5 26q-1 8 -2 10q7 7 11 15l4 10q-9 29 -9 56q1 10 7 27v1q0 11 -15 12q-24 30 -34 40q-1 0 -17 25q-9 8 -9 28q-8 14 -8 35q0 3 9 10q-1 6 -1 10q1 0 1 2v8q2 12 43 73q41 44 42 44q2 0 25 13l48 24q9 9 24 17v1q-2 8 -2 10q-3 -4 -8 -4h-3
q-13 1 -13 6l-9 3q2 3 2 7q0 6 -7 11v2q0 1 7 5l1 6q-10 20 -18 20v0l-3 -1h-1q-3 0 -3 18q2 4 8 13l-1 8v0q-4 -2 -6 -2v1q3 0 7 5q-4 2 -4 5v2q-6 0 -11 15v1h2q0 -5 7 -8q0 7 3 7q6 0 6 12q33 53 67 53zM791 1043q0 -6 -10 -7q1 -2 1 -4q-1 0 -10 -10v-1q2 -6 2 -7v-8
q-2 -6 -2 -7q10 -30 15 -30v0q0 35 8 70v2q0 1 -2 2h-2zM1087 999q-14 -82 -24 -146h1q7 0 11 14q0 16 10 37q8 6 8 23v19v9q0 2 -5 44h-1zM744 177l20 -5q0 3 9 16q0 5 3 7h1q7 -5 7 -10v-1q0 -5 -1 -13q1 -2 1 -4q2 0 2 1q18 -3 28 -3h4q-4 5 -9 29q-3 5 -11 31
q-3 0 -15 -15q-5 0 -37 -24q-2 -6 -2 -9z" />
    <glyph glyph-name="D" unicode="D" horiz-adv-x="1032" 
d="M598 1428q5 0 7 -4v-5q0 -5 -1 -16q35 -7 35 -24q61 -83 78 -119q14 -38 14 -68v-5q-24 -34 -59 -56q-2 -1 -3 -1q12 -12 38 -68q36 -31 43 -57l48 -126q52 -94 52 -175q0 -46 -32 -358q-7 -78 -7 -149q0 -20 1 -67q1 -2 1 -3q0 -4 -14 -34v-4l8 -60v-3q0 -18 -35 -22
q-20 -4 -39 -4h-30q-26 0 -26 7v5q0 26 33 62q9 11 9 19v9q0 15 -21 64q-2 13 -2 20v309h-1q-36 -81 -76 -131q-76 -88 -164 -186q-24 -24 -29 -57q-8 -69 -18 -94q-10 -19 -24 -19q-48 0 -57 78q-1 19 -1 26q0 18 5 57h-1q-8 0 -8 16v1q0 57 13 57q15 8 57 18q13 8 25 35
q44 84 107 169q29 34 29 42q10 42 19 115l-5 77v7q0 17 22 81q1 7 1 13q-12 76 -23 98q-23 30 -82 98q-44 56 -52 104q-6 33 -18 45q-40 30 -48 37q-18 -16 -256 -276q0 -2 33 -54q3 -10 3 -13v-9q0 -14 -18 -17h-5q-31 0 -52 30q-2 7 -2 13q0 33 72 102q8 10 211 232
q-42 53 -42 85q0 19 18 52q3 0 29 12q12 3 22 3q34 0 76 -43q24 21 35 34v12q0 7 8 7l-3 6q0 5 21 17q0 6 34 32q20 17 35 17q8 4 12 4zM345 1329q0 -1 24 -7q15 -8 30 -25q25 15 35 15q-31 25 -57 25q-19 -2 -32 -8zM552 1323h-13q-13 0 -25 2q-3 -5 -52 -50q26 -49 35 -57
q23 7 56 38q9 8 9 11q0 41 16 58v1q-17 -3 -26 -3zM335 1325l-3 -4q0 -25 24 -60l2 -1q11 19 36 35q-30 30 -59 30zM328 1315q-11 -25 -11 -42q0 -21 17 -43q1 5 20 27q-16 13 -25 58h-1zM338 1221v-2q24 -10 33 -10q19 0 28 52q9 20 29 20q6 0 26 -1q8 1 8 3v1q-3 6 -23 24
h-3q-35 -8 -78 -53q-20 -28 -20 -34zM615 1221l5 -16l30 5q-7 33 -7 57v17q-10 -12 -28 -62v-1zM429 1138q8 -11 18 -56q0 -11 23 -56h1q30 32 55 44q8 6 12 6q-40 -28 -53 -62l34 -45q8 24 42 59v-1q-30 -40 -34 -68q16 -14 18 -14q0 14 22 45v-1q-8 -22 -8 -39q0 -5 2 -18
l15 28l5 4v-1q-6 -18 -6 -31q0 -11 29 -101q77 -8 106 -8h5q64 0 87 28q-60 188 -155 279v2q27 6 33 9q-6 66 -26 66q0 1 -1 1q-19 -2 -35 -8q-28 62 -51 62h-2q-43 -44 -64 -49q-46 -22 -70 -67q-2 -7 -2 -8zM612 1185v-2q-5 -10 -11 -17v-1q13 0 29 -25h-1q-23 19 -42 25
v1q11 6 25 19zM809 844q-4 -8 -4 -10q2 -10 3 -22q1 0 7 10q0 9 -5 22h-1zM740 817q0 -1 1 -14q0 -6 -3 -15h2q29 0 49 13q-1 19 -1 24l-2 1q-25 -9 -46 -9zM606 816q-4 -10 -4 -25v-2q26 -3 66 -3h47q5 0 18 1q0 8 1 14q-1 6 -1 15q-57 -2 -64 -2q-9 0 -63 2zM342 205
q1 -18 1 -32v-6q30 -32 44 -36v-1q0 -17 -4 -17q-17 2 -42 26l-1 -6v-18q0 -1 -1 -1l1 -2v-7q0 -52 31 -87l15 -4q20 0 27 50q12 73 20 95q-35 16 -54 65l-8 22q-19 0 -27 -25zM733 96q-50 -59 -50 -71v-1q36 -15 90 -15q18 3 18 17q0 21 -29 40q7 10 10 11q23 -18 23 -50
q9 7 9 8q0 40 -31 57q-11 6 -25 6z" />
    <glyph glyph-name="E" unicode="E" horiz-adv-x="1877" 
d="M1001 1420h447l22 -11q-178 -298 -178 -335v-940q0 -59 -79 -134q-38 82 -67 123v973q0 41 -168 313zM553 1353q336 0 470 -369q11 -43 11 -89v-67q0 -311 -369 -448q-43 -11 -89 -11h-45q-338 0 -459 358q-22 50 -22 145q0 381 459 481h44zM106 861v-22l33 22
q17 0 34 -33q0 -23 -22 -23h-23l-22 11l33 -134h12q0 34 22 34h11q23 -4 23 -23v-11q0 -22 -23 -22h-11l-22 11v-11q29 -55 44 -56q4 56 34 56h34q22 -4 22 -22v-34q0 -34 -45 -34q-22 12 -33 12q0 -16 67 -68h11q0 68 22 68h34q16 0 33 -34v-22q0 -34 -56 -34
q61 -67 202 -67h44q287 0 403 324l11 45l-22 -11h-11q-23 0 -23 22v11q0 23 56 23v45q0 289 -335 402q-61 11 -123 11q-266 0 -392 -313q-22 -43 -22 -123zM1482 1174l324 -335v-23q-403 -80 -403 -167l-56 -45h-11v190q41 0 112 336q22 44 34 44zM151 794q16 0 33 -33
q0 -23 -22 -23h-34v34q4 22 23 22zM922 772q23 -4 23 -23v-11q0 -22 -23 -22q-22 0 -22 22v11q4 23 22 23zM878 693h11q22 -3 22 -22v-11q0 -22 -22 -22h-11q-23 0 -23 22v11q4 22 23 22zM330 649h11q22 -4 22 -23v-11q0 -22 -22 -22h-11q-23 0 -23 22v11q4 23 23 23z
M721 649q22 -4 22 -23v-22l-11 -22q51 -22 56 -45v-11q0 -16 -33 -34h-34q-22 0 -22 22v34l22 34q-16 0 -33 33q0 16 33 34zM811 649h22q16 0 33 -34v-22q0 -16 -33 -34h-22q-17 0 -34 34v22q0 16 34 34zM419 638h22q17 0 34 -34v-22q0 -16 -34 -34h-33q-22 0 -22 22v34
q0 16 33 34zM520 626h11q17 0 45 -44v-12q0 -33 -45 -33q45 -50 45 -56v-11q0 -16 -34 -34h-33q-23 0 -23 23v33l23 34l-23 33v34q0 16 34 33zM609 626h34q16 0 33 -33v-23q0 -22 -33 -22v-22q33 0 33 -23v-33q0 -23 -22 -23h-34q-16 0 -33 34v11l33 45v11q-33 0 -33 22v34
q3 22 22 22zM1101 570h12q0 -22 11 -22l-11 -56v-123q-325 -358 -403 -358l-56 -11l-11 22q0 132 279 358q118 146 179 190zM419 537h22q17 0 34 -34v-22q0 -16 -34 -34h-22q-16 0 -33 34v22q0 16 33 34z" />
    <glyph glyph-name="F" unicode="F" horiz-adv-x="1856" 
d="M660 1425h74q101 0 361 -56q47 0 287 -425q67 -174 83 -194q250 -135 250 -324v-47h-9q-61 19 -84 19h-37q-176 -43 -176 -222h-916q-15 0 -37 157q-63 120 -203 120h-93q0 -64 28 -64q-129 -75 -129 -121h-19q0 17 28 84q-19 69 -19 74q0 47 102 111l-18 27q74 65 92 65
v666q-25 0 -55 -18q-93 0 -93 74q434 74 583 74zM271 1295q10 -272 10 -360h74l46 9q0 -9 9 -9q9 27 56 27h27q93 -132 93 -240l-9 -84q110 19 138 28q129 0 186 -111v-18l-10 -65h47q18 -3 18 -19v-83h287q0 41 28 139q-113 0 -130 204l-139 101q-9 0 -64 -46h-19v9
q0 71 130 195l9 -19q0 -28 -28 -74q76 -55 185 -120h83q0 10 10 28q-59 200 -278 499q-159 56 -370 56q-177 -10 -389 -47zM1613 389q185 -37 185 -185q-37 -185 -185 -185q-185 36 -185 185q37 185 185 185zM234 370q185 -37 185 -185q-42 -185 -175 -185q-195 31 -195 185
q32 185 185 185zM1502 204q24 -102 102 -102h18q75 0 102 102q0 92 -120 111q-73 0 -102 -111zM123 194q18 -111 102 -111h19q92 19 92 93v28q0 74 -102 92q-111 -23 -111 -102zM1595 268h37q33 -17 46 -55q0 -65 -65 -65h-18q-15 0 -37 37v46q0 15 37 37zM225 250
q65 -13 65 -37v-28q0 -48 -28 -55h-55q-37 15 -37 64q0 28 55 56z" />
    <glyph glyph-name="G" unicode="G" horiz-adv-x="1479" 
d="M743 1425q472 0 682 -484q33 -109 33 -172v-100q0 -335 -351 -576q-171 -93 -338 -93h-33q-387 0 -616 378q-80 155 -80 311v40q0 329 298 563q205 133 405 133zM139 775h7l40 7q74 0 86 -106q-22 -79 -80 -79h-46l20 -80q40 26 73 26q93 -11 93 -92q0 -77 -80 -93
q20 -31 20 -40l46 13q100 0 100 -139q75 -40 86 -40q31 60 73 60h33q67 0 80 -99v-14h125v40q0 55 73 73h34q72 -13 72 -66q92 53 100 53l-7 13v20q13 99 93 99q26 -6 46 -6l20 26v7q-57 0 -79 86q13 99 86 99h7q33 0 72 -26q20 65 20 80h-46q-57 0 -80 86q17 99 100 99
l33 -7v7q0 189 -219 404q-188 140 -384 140q-414 0 -590 -425q-13 -38 -27 -126zM385 703h26q59 0 80 -93q0 -85 -106 -93q-67 0 -87 99q24 87 87 87zM1100 703h20q65 0 80 -100q0 -71 -100 -86q-86 19 -86 80v19q7 87 86 87zM637 650q86 -23 86 -80v-20q-7 -86 -86 -86h-20
q-63 0 -80 86q9 100 100 100zM875 650q86 -22 86 -87v-20q-16 -79 -79 -79h-47q-59 33 -59 79v14q0 82 99 93zM504 451q66 0 86 -100q0 -68 -99 -93q-93 29 -93 93q13 100 106 100zM1014 451q73 0 86 -100q-22 -86 -79 -86h-20q-93 13 -93 93q0 79 106 93zM743 411h19
q80 -20 80 -80v-26q-16 -80 -80 -80h-13q-93 0 -93 93v7q22 86 87 86z" />
    <glyph glyph-name="H" unicode="H" horiz-adv-x="914" 
d="M740 1428q89 0 118 -91v-23q0 -138 -94 -138q-159 31 -189 31q0 -39 -28 -78q-11 -65 -11 -75q58 27 70 27v-184q46 0 91 -107q12 -28 12 -78v-704q0 -8 -8 -8h-464q-8 0 -8 8v130q0 5 -55 19q-134 80 -134 252v232q0 203 173 267q32 0 130 59q0 83 -12 99q4 20 4 63
q-216 27 -216 39l-4 16q0 57 27 71q303 -37 303 -52l4 -15q0 -71 -35 -71l-28 4v-4q0 -36 -12 -75v-4q0 -19 4 -59q110 47 110 59q21 105 24 106q-8 12 -8 28q0 21 12 63q-28 19 -28 43v8q0 68 181 134q47 8 71 8zM103 653v-232q0 -123 126 -169v566h-4q-122 -44 -122 -165z
M319 629v-228h287v228h-287zM319 362q0 -9 -4 -16q4 -6 4 -24q23 0 28 -3q55 3 94 3h165v40h-287z" />
    <glyph glyph-name="I" unicode="I" horiz-adv-x="987" 
d="M490 1433q192 0 292 -198q23 -66 23 -121q0 -209 -221 -303q-59 -15 -101 -15q-182 0 -284 182q-31 63 -31 144q0 115 89 214q96 97 233 97zM215 1145h19q39 -7 39 -38q0 -30 -27 -43h-27q0 -10 7 -35q15 12 35 12q39 -8 39 -39q0 -43 -35 -43v-4q0 -12 55 -15
q15 -17 15 -31v-24q33 -19 43 -19q0 20 35 27h7q37 0 39 -50h55v11q0 22 27 39h19q19 0 39 -27q35 19 39 19v24q5 34 35 34h19l8 -3q0 6 8 15v4q-35 0 -35 43q8 39 39 39q20 0 35 -12q7 29 7 35h-27q-27 14 -27 39v4q0 32 35 38h23q0 99 -116 195q-76 50 -155 50
q-163 0 -253 -167q-19 -54 -19 -78zM331 1114q39 -10 39 -42q-7 -43 -39 -43q-46 2 -46 46q13 39 46 39zM646 1114q27 0 42 -42q0 -39 -46 -43q-39 8 -39 39q4 46 43 46zM420 1087h16q39 -8 39 -39q-4 -46 -43 -46q-27 0 -43 42q0 26 31 43zM537 1087h4q21 0 39 -27v-19
q0 -32 -43 -39q-39 10 -39 39v7q5 39 39 39zM358 998h20q35 -5 35 -35v-12q0 -29 -43 -39q-21 0 -39 31v12q0 32 27 43zM595 998h8q39 -5 39 -39v-4q-6 -39 -35 -39h-12q-31 0 -39 43q11 39 39 39zM487 982q42 -6 42 -46q-10 -39 -42 -39q-38 0 -43 46q0 33 43 39zM370 792
q51 -19 105 -19h23q54 0 105 19q4 -7 4 -12q0 -50 -78 -101q-15 0 -19 -143h66q54 -10 66 -62h50q114 0 163 -132q8 -17 8 -62v-160q0 -3 -12 -11l-19 4h-722v178q0 129 136 179q21 4 35 4h42q36 62 78 62h58q0 163 -46 163q-51 35 -51 78v7q1 8 8 8zM327 365v-148l8 4h311
v144h-319zM191 97l20 -4h664q8 0 15 4q43 -8 43 -39v-50q0 -8 -8 -8h-885v70q0 5 23 23h117q11 0 11 4z" />
    <glyph glyph-name="J" unicode="J" horiz-adv-x="1711" 
d="M786 1423q99 0 127 -52q20 -26 30 -75q3 0 7 -59q-3 -51 -7 -70h4q54 0 174 67q52 26 127 43q16 0 66 39q30 9 51 9q9 -1 14 -5q0 4 12 6l8 -1q0 13 27 14q0 -2 2 -2q0 9 27 12q0 -1 2 -1q4 7 20 11q3 0 18 -11q23 11 26 11h2q13 -12 18 -30q0 -15 -17 -21q-7 -1 -7 -5
v-1q24 -34 24 -54v-15q6 0 6 -3l-1 -14h12q14 -10 14 -25q0 -16 -15 -20v-1q18 -76 27 -192v-6q0 -31 -17 -142q-4 -17 -4 -29v-6q-16 -18 -60 -31h-22q-3 0 -6 -1q-2 1 -6 1h-1q-5 0 -5 -1l-8 1h-24q-24 0 -65 2q-2 -11 -32 -32h-18q-54 0 -89 30l-22 14q-15 -17 -15 -46
q10 -59 20 -175q6 -7 27 -121q15 -91 30 -137q20 -12 20 -23v-35q7 -32 7 -71q-21 -88 -44 -161q-4 -9 -6 -9h-467q-3 0 -3 3v14q-5 56 -12 107l-2 16q2 23 2 47v13l13 75q2 22 10 63q0 9 -31 158q-19 40 -19 66v9q0 5 5 11q-22 16 -63 127q-6 11 -23 75q-38 52 -46 116
q-2 14 -5 27h-4q-6 0 -261 -107q-112 -49 -112 -51q-13 -22 -40 -60q-33 -32 -52 -34q-39 0 -72 76q-2 9 -2 21q4 55 40 55q0 2 11 2h1q38 0 75 -28q19 -14 31 -15q47 15 263 112q4 0 95 43q17 8 21 8v17q0 71 16 87q8 21 35 45q28 23 69 32q-26 31 -29 64q0 9 3 19
q-5 19 -12 23q-32 -6 -45 -6q-44 17 -44 52q0 69 41 69q14 4 32 4h13q19 47 53 60q17 8 57 8zM1050 1044q0 -3 11 -9h14q68 13 81 13h5q17 -21 20 -21q16 0 27 -8h22q5 0 10 -21q26 -20 33 -20h23q2 0 14 -14l64 -11q43 -18 52 -18v1q31 86 31 102v56q0 16 -2 47q-4 0 -7 6
v6q0 1 3 12v2h-8l-72 56l-3 2q-7 0 -49 -45q-48 -5 -48 -15q-45 -48 -93 -77z" />
    <glyph glyph-name="K" unicode="K" horiz-adv-x="2269" 
d="M1967 1425q242 -131 242 -191q0 -40 -367 -550q-14 -9 -33 -9h-25q-401 -642 -425 -667l-42 -8h-900q-109 0 -325 358q-42 104 -42 167v8q0 167 242 167h83q529 0 917 -300h8q31 26 217 342q52 73 58 75q-16 27 -16 50q30 70 367 550zM383 433v-25q103 -266 242 -266h550
l42 8v42q-278 266 -692 266h-117q-12 0 -25 -25z" />
    <glyph glyph-name="L" unicode="L" horiz-adv-x="1931" 
d="M336 1428h57q89 0 95 -114q143 -10 209 -10q0 81 381 114h124q371 -44 371 -314v-9q45 0 95 9q200 -25 200 -190q0 -230 -342 -333q-52 -10 -86 -10q-217 0 -371 200l-48 10q-134 -10 -276 -48q-40 67 -48 67q-207 -98 -209 -115v-504q19 0 19 -10q9 0 9 10
q90 0 191 -152v-10q0 -19 -19 -19h-619q-19 0 -19 19v19q107 143 162 143q17 -10 38 -10l9 19v1086q0 113 77 152zM764 1057q0 -95 48 -162q150 19 200 19h38q95 0 238 -171q85 -29 114 -29h86q247 71 247 200q-18 43 -38 48q-151 -10 -181 -10q-86 18 -86 76l10 86
q0 141 -276 171h-19q-352 -21 -352 -85q-29 -86 -29 -143zM869 1200h9q33 0 48 -105v-38q-15 -105 -48 -105h-19l-28 124q12 124 38 124zM488 1180v-333q142 76 152 76l-9 115v66l9 67h-85z" />
    <glyph glyph-name="M" unicode="M" horiz-adv-x="1798" 
d="M1378 1428q140 -38 140 -133v-40q0 -92 -120 -133h-40q-126 33 -126 93q-13 25 -13 54v6q0 128 159 153zM1259 1295v-6q22 -40 99 -40h20q87 0 100 40v6q-53 -33 -80 -33h-26q-52 0 -113 33zM263 1269h19q14 -2 14 -14v-219q0 -105 6 -345q20 0 20 -33h7v112
q-10 9 -20 80q0 67 86 67h14q15 0 20 -107h6q0 9 53 73l-20 27l14 7h59q14 -2 14 -14q-10 0 -20 -20q48 -73 60 -73q4 107 20 107h6q104 0 166 -113v-7q-13 0 -73 -66l-20 13v-86q-153 -93 -153 -240q9 -59 60 -59v-7q0 -13 -13 -13h-27q-46 0 -46 13q-24 -13 -60 -13
q-14 0 -93 13q113 -113 113 -159q-13 -87 -86 -87q-67 19 -67 40q0 13 7 13l-7 47q-6 284 -6 319q13 0 13 13v106h-7q0 -18 -20 -40v-172q0 -230 20 -273l-93 -86h-33q-10 0 -33 40v40q0 26 119 53v40l-6 66h6l-6 13v259q-208 127 -213 133l-6 34v19q0 27 186 93l6 -13v-66
l7 -33q-13 -7 -20 -7q3 -14 33 -27q-6 114 -20 545zM502 1235h26q133 -41 133 -132v-20q-27 -153 -146 -153q-153 22 -153 153q0 115 106 146q11 6 34 6zM1212 1202q57 -93 166 -93h14q75 0 132 93q96 -61 140 -199q0 -12 20 -60l-106 -40q-20 62 -20 80h-7v-246
q0 -27 47 -73v-73q0 -80 66 -80q18 0 40 14q12 0 33 -346q-28 -73 -86 -73q-93 0 -93 206q0 46 -7 173q-173 157 -173 173h-6q-180 -163 -180 -186q-11 -352 -59 -352q-34 -14 -54 -14q-53 16 -73 60q11 359 34 359q21 -14 39 -14q67 9 67 67v93l46 53v252q-8 0 -33 -66
q-99 24 -99 40q51 187 152 252zM395 1116v-7q25 -53 127 -53q99 21 99 47v6q-53 -40 -113 -40q-62 0 -113 47zM1053 923h20q13 0 80 -26q-20 -230 -20 -332q-20 -47 -60 -47h-7q-46 24 -46 66q0 169 33 339zM1677 923h14q26 -179 26 -305v-40q0 -60 -60 -60q-46 0 -53 73
v126q0 62 -20 173q54 33 93 33zM794 797q100 -134 100 -173v-6q0 -60 -113 -60q-127 -49 -127 -166q-24 -27 -53 -27q-46 12 -46 47v26q0 148 192 226q-20 38 -20 53q0 14 67 80zM130 571q133 -14 133 -33q6 -233 6 -319h-6q-213 219 -213 253v26q0 59 80 73zM860 558
q24 -25 34 -67q-14 -102 -14 -278q-12 -107 -86 -107q-86 19 -86 80q0 32 13 193q-67 -20 -87 -20q47 39 47 113q63 86 179 86zM588 113q45 0 53 -67q0 -25 -40 -46h-40q-28 16 -39 46q15 67 66 67z" />
    <glyph glyph-name="N" unicode="N" horiz-adv-x="1687" 
d="M885 1431h31q49 0 104 -78q88 -39 88 -72l-16 -11h-36q-74 0 -151 68h-5q34 -43 99 -83v-5q-35 -52 -83 -52h-36q-72 0 -99 109q0 102 104 124zM771 1218q54 0 67 -88q-10 -44 -10 -52h-11q0 74 -67 94q-47 -9 -47 -47v-10q0 -37 78 -223q0 -11 -5 -57l83 -270v-5l-5 -10
q-61 41 -94 41h-41q-7 7 -62 166q-68 20 -68 114v26q0 158 88 290q42 31 94 31zM734 1161h37q15 0 57 -134l-78 -21h-5q-37 88 -37 114q0 28 26 41zM833 1016q59 -145 135 -280v-20q-13 -32 -47 -32h-10q-40 17 -161 306q43 26 83 26zM983 716l151 -135q-17 -11 -31 -11
l-140 120v5q0 8 20 21zM294 560h41q93 -34 93 -99v-25q0 -75 -98 -109h-31q-73 0 -109 103v11q23 119 104 119zM724 560h42q84 0 98 -114q0 -97 -104 -119h-15q-97 0 -114 119q24 114 93 114zM1165 560h46q68 0 94 -109v-10q0 -97 -120 -114q-119 20 -119 119q26 114 99 114
zM1336 415q144 -122 161 -130l77 47h11q36 -26 36 -57q0 -42 -104 -42q-130 120 -145 120q0 7 -47 41v10q2 11 11 11zM200 301h213q68 0 114 -94h5q45 94 114 94h202q75 0 115 -94q58 94 124 94h207q146 -46 146 -249q5 0 5 -47l-11 -5h-67q-12 0 -21 124q-14 37 -21 37
v-151q0 -10 -10 -10h-26q-5 0 -5 5l-10 -5h-218q-11 0 -11 10v151q-11 0 -36 -161h-78q-7 0 -26 130q-10 0 -10 26h-5v-146q0 -10 -10 -10h-265q-10 0 -10 10v140h-5q-29 -149 -37 -150h-67q-13 0 -36 161h-6v-151q0 -10 -10 -10h-264q-11 0 -11 10v151h-5q-21 -75 -31 -161
h-73l-10 5q18 253 130 291q9 5 20 5z" />
    <glyph glyph-name="O" unicode="O" horiz-adv-x="815" 
d="M462 1425q42 0 101 -42h23q82 0 107 -41q0 -35 -113 -48q-76 6 -118 18q0 -19 89 -35h35l12 -6q0 -77 -113 -119h-41q-87 0 -119 136q25 137 137 137zM373 1122q13 0 17 -95q7 0 54 60l-18 29l12 6h59v-6q-9 -23 -18 -23l54 -66q12 95 24 95q145 0 178 -184v-6
q-14 0 -89 -29q-12 27 -12 59h-6v-867q0 -66 -65 -83h-24q-48 0 -66 71v535h-23v-541q0 -49 -66 -65h-17q-62 0 -66 95v855h-6q-10 -59 -23 -59q-84 31 -84 47q49 172 173 172h12zM188 926l84 -29q-6 -128 -6 -190v-125q0 -5 -42 -42l-47 -445q6 -10 6 -24v-6
q-62 -65 -95 -65h-18q-30 15 -30 59q0 40 113 48q30 230 41 451q-29 9 -29 77v89q0 127 23 202zM729 920h18q11 -76 11 -142v-178q0 -38 -47 -54q-27 0 -53 48l5 41v89q-5 107 -5 173q22 13 71 23z" />
    <glyph glyph-name="P" unicode="P" horiz-adv-x="1341" 
d="M852 1425q96 0 412 -364q25 -61 25 -89q0 -87 -89 -162q-121 -138 -170 -138h-8q-25 0 -65 24q-145 -139 -146 -145l32 -57q0 -57 -202 -235q-191 -183 -421 -251l-49 -8q-64 0 -121 178q275 397 275 664q25 178 57 178q31 8 65 8h48q49 -16 49 -113q299 259 299 380v17
q0 7 -16 97z" />
    <glyph glyph-name="Q" unicode="Q" horiz-adv-x="1427" 
d="M207 1423q184 -290 499 -825q57 -98 98 -98q37 9 455 257q14 7 22 7q84 0 84 -219q7 0 7 -76q0 -146 -340 -242h-76q-255 0 -447 409q-74 112 -424 696v15q40 40 122 76zM191 431q152 -25 152 -143v-16q-26 -151 -152 -151q-151 26 -151 144v23q0 120 151 143zM471 235
q68 -132 258 -197v-15l-144 -23q-235 30 -235 61q95 89 106 174h15z" />
    <glyph glyph-name="R" unicode="R" horiz-adv-x="681" 
d="M421 1431h23q62 0 69 -98q0 -14 -5 -24q11 -18 11 -29q-8 0 -17 -17q40 -46 64 -46l-6 -12q58 -54 58 -180v-98q0 -6 -6 -6l6 -11q0 -27 -23 -197l5 -35q-58 -60 -58 -128q-11 -49 -11 -87q11 -52 11 -75v-40q0 -43 -46 -192q6 -38 6 -75v-6q-19 -13 -29 -69l-29 -6h-29
q-16 17 -87 23q-17 21 -17 41v6q0 13 58 23q17 45 17 75q-35 91 -87 382v70l-17 23q11 24 11 35l-5 23q11 58 11 116v52q0 25 12 46q-6 23 -6 47h-6q0 -64 -197 -122v-17l99 -522l52 -226q0 -41 -64 -69q-26 11 -29 23v12q0 9 75 40q-104 505 -173 730q-11 0 -12 29
q0 31 70 41q127 91 127 150q10 186 64 186q0 5 75 11v12q-29 28 -29 64v23q0 6 6 6q-6 17 -12 17l-29 -6l-5 12l46 34q17 41 58 41zM542 1014l-11 -81q29 -57 29 -64h6v12l-18 133h-6zM409 400q35 -81 35 -168v-35q8 0 17 17v145l-23 215v40q-21 -1 -29 -214z" />
    <glyph glyph-name="S" unicode="S" horiz-adv-x="754" 
d="M568 1431q105 0 105 -117v-6q0 -14 -6 -25q24 -49 24 -68l-18 -12h-25q-12 0 -68 31q-20 -13 -37 -13q-18 0 -37 37q-30 -8 -30 -43v-43q0 -14 6 -25l-6 -12q12 -25 12 -37q0 -59 -49 -93q-25 -68 -25 -80q0 -29 49 -296q0 -68 161 -592q74 -3 74 -25l-19 -12h-31
q-15 0 -55 12v13q12 15 12 24q-148 499 -148 518l-12 -6q-56 102 -56 105q6 34 6 56q-30 82 -49 172l-18 19l-37 -43v-31q0 -53 18 -99q-10 0 -43 -210q-10 0 -19 -49q6 -228 68 -228q0 -19 99 -49v-13q-16 -37 -136 -37q45 -25 87 -68q67 -15 67 -37v-6q0 -29 -92 -37
l-93 19h-49q-9 0 -18 18q0 50 6 117q-68 165 -68 222q12 88 12 124v12q-32 259 -74 259v6l6 25q-12 43 -12 74q0 78 154 191l13 43l-37 62q8 32 86 136q33 62 80 80h31q0 18 12 18h6q0 -24 37 -24q12 6 19 6q0 -9 18 -19q0 28 99 56z" />
    <glyph glyph-name="T" unicode="T" horiz-adv-x="1201" 
d="M1094 1433h8q37 -21 51 -59q-197 -454 -253 -531q-58 0 -76 -76q-51 -86 -51 -135q144 -90 144 -219q0 -176 -194 -253q0 -19 -34 -59q-15 -84 -34 -84q-22 83 -59 135q0 25 -50 25q-42 -116 -135 -152q-92 -25 -143 -25q-201 0 -228 135q0 130 177 160q95 0 287 -101v8
q-93 97 -93 211q0 208 253 244h33l17 -8q93 177 93 211q-17 27 -17 50q177 391 253 515zM461 405q37 -194 177 -194h43q140 0 177 177v42q0 152 -211 177q-186 -41 -186 -202zM706 497q12 0 25 -25v-17q0 -17 -17 -17h-17q-16 0 -16 17v17q0 12 25 25zM773 489h26
q17 -3 17 -17v-8q0 -12 -26 -26h-8q-12 0 -25 26v8q2 17 16 17zM655 421h9q12 0 25 -25v-8q0 -17 -17 -17h-17q-12 0 -25 25q0 12 25 25zM731 421h17q12 0 25 -25q0 -12 -25 -25h-17q-17 0 -17 17v17q3 16 17 16zM816 421h16q17 -2 17 -16v-17q0 -17 -17 -17h-16
q-17 0 -17 17v17q2 16 17 16zM613 354h17q12 0 25 -25q0 -12 -25 -26h-17q-17 0 -17 17v17q3 17 17 17zM697 354h17q17 -3 17 -17v-17q0 -17 -17 -17h-17q-16 0 -16 17v17q2 17 16 17zM782 354h8q12 0 26 -25v-9q0 -17 -17 -17h-17q-12 0 -25 26q0 12 25 25zM655 295h9
q12 0 25 -25v-9q0 -12 -25 -25h-9q-19 0 -25 42zM740 295h8q17 -3 17 -17v-17q0 -12 -25 -25q-12 0 -26 25v9q0 12 26 25z" />
    <glyph glyph-name="U" unicode="U" horiz-adv-x="1349" 
d="M682 1423h7q0 -13 25 -89l57 32q0 -6 6 -6q-19 -101 -31 -101h-139q-26 0 -26 107l63 -32q26 89 38 89zM309 1297l7 -13q-25 -57 -45 -63q-9 0 -19 19v19q8 22 57 38zM1030 1297q49 -16 57 -38v-19q0 -10 -19 -19q-19 0 -44 69q6 0 6 7zM189 1227h6q-25 -38 -25 -57v-6
q0 -9 19 -19h38l38 31v-19q-14 -107 -76 -107q0 25 -63 31v38q0 60 63 108zM1144 1227h6q64 -48 64 -108v-31q0 -12 -57 -19q0 -19 -13 -19q-52 0 -76 126h7q3 0 38 -31h37q19 0 19 25q0 16 -25 57zM682 1145q213 0 298 -234q12 -54 12 -95q0 -186 -221 -291
q-90 -13 -101 -13q-216 0 -304 247q-6 42 -6 82q0 231 278 304h44zM423 835q0 -188 196 -253q23 0 57 -6q174 0 247 202v88q0 127 -171 203q-28 12 -82 12q-165 0 -234 -177q-13 -24 -13 -69zM94 1069v-6l-12 -76q0 -38 50 -45q70 12 70 83v12h12q26 -79 26 -120
q0 -95 -64 -95h-6q0 19 -12 19q-24 0 -57 -25q-35 0 -51 120q0 82 44 133zM1245 1069q26 0 45 -133q-17 -120 -51 -120q-34 25 -57 25q-13 0 -13 -19h-6q-63 0 -63 95q0 41 25 120h13v-12q0 -83 82 -83q38 15 38 51q-13 60 -13 76zM714 936h25q10 0 26 -25v-13
q0 -10 -26 -25h-25q-19 6 -19 38q10 25 19 25zM822 936h25q19 -6 19 -38q-10 -25 -19 -25h-25q-10 0 -26 25v13q0 10 26 25zM777 854q29 -12 32 -25v-7q0 -33 -19 -38h-25q-10 0 -26 26v12q12 23 38 32zM879 854q28 -12 31 -25v-26q0 -9 -19 -19h-25q-9 0 -19 19v26
q3 13 32 25zM657 847h32q19 -6 19 -37q0 -10 -26 -26h-25q-19 7 -19 38q10 25 19 25zM88 778h13l-7 -32v-6q0 -95 57 -95q64 0 76 95l-6 32h12q57 -96 57 -146v-38q0 -37 -38 -63h-6q-21 19 -32 19q-7 0 -50 -38h-19q-76 67 -76 177q0 28 19 95zM1106 772h13q0 -13 -6 -13
q0 -114 88 -114q44 0 44 127q15 0 26 -64q-7 -12 -7 -19q0 -6 7 -19q0 -92 -76 -164h-19q-39 38 -63 38q0 -9 -19 -19h-7q-38 26 -38 63v25q0 67 57 159zM619 765h19q9 0 19 -19v-31q0 -15 -31 -19q-29 12 -32 25v19q0 10 25 25zM720 765q45 0 45 -38q-13 -29 -26 -31
q-44 0 -44 44q0 10 25 25zM822 765h19q9 0 25 -25v-19q-13 -25 -38 -25q-32 10 -32 38q13 28 26 31zM676 689q29 -12 32 -25v-19q0 -10 -26 -25h-19q-9 0 -25 25q0 44 38 44zM758 683h32q9 0 19 -19v-19q0 -10 -25 -25h-19q-26 12 -26 38q10 25 19 25zM322 525h6
q152 -75 152 -165q-6 -37 -19 -37l-32 6q-30 -70 -37 -70h-19q-171 72 -171 203h12q30 -89 83 -89h12q45 26 45 76q0 24 -32 70v6zM1018 525v-6q-32 -46 -32 -70q0 -54 44 -76h13q52 0 82 89h13q0 -122 -165 -203h-25q-7 0 -38 70l-31 -6q-15 0 -19 44q0 87 158 158z
M524 304q38 0 51 -45q0 -24 -38 -50h-25q-28 15 -38 44q4 51 50 51zM815 304q51 -3 51 -51q-13 -44 -51 -44h-12q-38 26 -38 50q0 38 50 45zM455 177h6q50 0 76 -44l-38 -19q-10 25 -44 25q-32 -9 -32 -44v-25q0 -11 38 -32q32 8 32 19v6q-32 0 -32 13v13q2 12 13 12h63
l13 -6q-15 -89 -70 -89h-32q-59 0 -75 83q16 88 82 88zM644 177h19q70 0 83 -95q0 -66 -95 -82q-74 0 -89 95q21 82 82 82zM784 171h19q12 -2 12 -13v-114h38q13 -2 13 -12v-13q0 -13 -13 -13h-69q-13 0 -13 13v139q2 13 13 13zM897 171h70q13 -2 13 -13v-13q0 -12 -13 -12
h-38v-25h32q12 -2 12 -13v-13q0 -12 -12 -12h-32v-51q0 -13 -13 -13h-19q-12 0 -12 13v139q2 13 12 13zM607 89q12 -45 50 -45q33 0 44 45q-12 39 -31 44h-13q-39 0 -50 -44z" />
    <glyph glyph-name="V" unicode="V" horiz-adv-x="850" 
d="M624 1428q49 0 60 -67q0 -75 -114 -93h-113q0 -41 -7 -447h40q59 340 87 340q56 33 140 47q50 0 80 -47v-33q0 -69 -93 -80h-40q-87 13 -100 13l-47 -240q107 -25 107 -94v-6q-27 -177 -27 -214v-280q27 -105 27 -114v-6q0 -95 -134 -107h-133q-128 0 -147 107
q0 44 13 120q-143 176 -173 280v13q0 109 160 154q0 114 74 140q3 0 26 7v6q0 34 -6 101l-14 -7h-73q-107 12 -107 93q0 41 60 54q134 0 160 -127v-107q2 -13 14 -13h6q14 0 14 13q-7 174 -7 274v20l-67 -7q-127 0 -127 100q18 47 67 47q147 -43 147 -94q7 -206 7 -327v-13
q2 -13 13 -13h13q14 0 14 13q6 292 6 434q0 117 134 160h60zM103 514v-27q0 -52 127 -213q0 55 14 153l-27 207q-114 -56 -114 -120zM290 607h-53v-46q2 -14 13 -14h320q15 0 21 60h-281q-6 0 -6 7zM237 260v-26l-7 -34h347v60h-340z" />
    <glyph glyph-name="W" unicode="W" horiz-adv-x="1974" 
d="M576 1428h117q520 -25 534 -84q205 -482 376 -617q226 -118 226 -268q-9 0 -9 -8q-58 17 -100 17h-33q-242 -58 -242 -243v-50q0 -16 -17 -16h-309l-42 -9v9l-17 -9h-542q0 7 8 50q-41 268 -267 268h-9q-50 0 -125 -25l-25 33v8q6 0 175 176v41q0 33 -158 234q8 0 8 9
q110 -17 150 -17v376h-75q-96 25 -150 25v8q0 34 301 75q80 17 225 17zM301 1303v-376q175 -10 175 -42h8q0 92 59 92q74 0 92 -184q25 -73 25 -108l100 8q8 0 8 -8l17 8h50q117 -13 117 -92v-41q0 -23 -17 -51q67 -21 67 -75v-67h317q-107 104 -125 251l17 33
q-19 6 -151 101q-31 -51 -41 -51h-17q-17 0 -17 17q0 42 134 209h17q12 0 25 -25q0 -8 -34 -50v-9q0 -10 142 -108q17 39 92 92q-167 420 -209 467q-447 9 -718 9h-133zM484 877v-25h9v25h-9zM493 843v-25h8v25h-8zM501 810v-17q33 -128 33 -142h-8l-225 50v-33
q209 -50 250 -67v9l-42 200h-8zM234 401h41q157 0 184 -217q-47 -184 -184 -184h-41q-120 0 -184 167v58q0 128 184 176zM1678 401h51q175 -45 175 -167v-50q-36 -184 -184 -184h-33q-184 39 -184 175v50q42 176 175 176zM142 200v-8q27 -108 108 -108q117 0 117 141
q-38 92 -117 92q-89 0 -108 -117zM1587 192q34 -108 116 -108q117 31 117 116q0 96 -125 117q-108 -30 -108 -125z" />
    <glyph glyph-name="X" unicode="X" horiz-adv-x="1350" 
d="M277 1423q69 0 227 -86q123 -43 140 -43q111 48 140 48q43 0 167 -113q244 -92 361 -119v-5q-283 -291 -399 -291l-108 27q-18 0 -161 -81q-64 -22 -103 -22h-16q-92 0 -92 11q-95 0 -318 -108v-630q0 -11 -10 -11h-49q-11 0 -11 11v647q0 12 -5 21q5 10 5 22v32
q0 16 -5 16l5 27v609q6 16 33 16q14 0 32 -10q110 32 167 32zM239 1170q10 -54 17 -54q2 0 54 27l5 -11v-243h27l38 6v323h-54q-60 -43 -87 -48zM482 1110q9 -24 38 -54q-43 -19 -43 -70v-16q0 -67 113 -81q113 21 113 87v21q0 32 -49 70q34 35 38 60q0 67 -86 80h-16
q-108 0 -108 -97zM590 1164q17 0 38 -37q0 -29 -27 -44h-22q-32 19 -32 49q11 32 43 32zM590 1030q43 -17 43 -54q0 -33 -43 -38h-22q-7 0 -27 27v16q7 49 49 49zM56 415v-404h38q11 0 11 11v393h-49z" />
    <glyph glyph-name="Y" unicode="Y" horiz-adv-x="1233" 
d="M783 1431h44q42 0 101 -63h152q22 0 64 -108q0 -51 -51 -51q-42 0 -76 108v25h-76l6 -44v-13q0 -116 -145 -139q-123 0 -139 152l6 44h-260q204 -199 298 -259q32 -46 32 -70v-6q0 -48 -152 -254q-7 -11 -7 -25v-25q0 -95 7 -260q120 -242 120 -259q0 -62 -76 -70
q-46 0 -120 190q-5 2 -64 133q0 6 7 6l-7 76v159q-5 0 -38 6v-608q-6 -76 -63 -76h-13q-37 0 -63 51q6 95 6 139v526q0 166 32 208q8 0 44 57h-139q-76 7 -76 64v297h-44q-13 0 -13 13t76 19q0 19 51 25q22 0 57 -31q10 25 44 25h19q23 0 51 -25h304q59 63 101 63zM270 1285
v-171h177v7q0 8 -177 164z" />
    <glyph glyph-name="Z" unicode="Z" horiz-adv-x="1255" 
d="M968 1425h18q12 -2 12 -12v-79q92 -18 133 -36l6 30v61q6 18 36 18q30 -4 30 -18v-97q0 -12 -12 -12q-11 0 -54 18v-115q0 -5 66 -36v-72q0 -6 -6 -6q6 -12 6 -18q-6 -12 -6 -18h-6q-11 0 -54 18q-6 -12 -6 -18q6 -88 6 -97q60 -20 60 -36v-97q0 -12 -12 -12q0 9 -48 30
v-96l60 -49v-652q-2 -12 -30 -24q-27 12 -30 24v477l-6 30h6l-6 12q0 13 6 13l-6 42v115q0 18 -151 60v-60q0 -13 -12 -13q-54 25 -163 37v60h-6l-91 -30q6 82 6 102q-115 -27 -115 -36v-66l-6 -12q-40 11 -78 60v54q-40 25 -54 25h-19q7 82 7 102q-4 0 -73 -60h-6
q0 29 12 97l-30 -7h-6q-38 13 -54 13l-19 -91q37 -24 67 -24l30 6q-12 -69 -12 -97l72 55h12v-37q-21 -23 -84 -48q-6 11 -6 24l-12 -6h-30q-26 0 -61 30q12 19 12 103q-106 54 -151 54l-30 -42q-30 32 -30 48h54q31 77 31 103h-7v6q2 12 13 12h6q0 -28 84 -48q2 -5 61 -36
l18 108q-69 37 -79 37v18q68 36 97 36v-6q-12 -83 -12 -91q30 -18 48 -18l30 6q0 -6 6 -6q-12 -66 -12 -90q85 37 85 157q-9 0 -67 -55l-6 12q12 76 12 91h-6q-13 0 -24 -6q-12 6 -18 6v6q0 7 54 36q0 -6 6 -6l-6 -12v-12h6q41 19 73 78h6q31 0 48 -30l-6 -30h-6
q-25 24 -48 24h-6l-6 -72v-24q31 0 60 -31v49l6 42q9 0 54 -12q16 0 25 42q112 30 126 30v-36q97 25 97 55q0 60 42 60q12 15 79 18zM841 1220q61 12 72 12q16 0 73 -12l6 12v102l-60 6q-91 0 -91 -54v-66zM618 1244v-85h6q120 20 120 55v72q-126 -24 -126 -42zM738 1117
v-30q14 6 91 24v-6q0 -30 -6 -91h24q20 0 30 6q86 -18 103 -18q6 11 6 24v79q78 -18 145 -48v120l-139 37v-67q0 -42 -12 -42q-54 12 -79 12h-12l-60 -6v12q0 30 6 91q-91 -20 -91 -37q-6 -31 -6 -60zM539 1171q0 -38 -6 -90h-6q-32 24 -54 24h-6l-12 -97q30 0 72 -36v85
l6 12q20 -12 36 -12h43v96h-31q-20 0 -42 18zM612 1051v-37l-6 -60q29 0 120 24q-6 -82 -6 -102q97 25 97 54v78q-59 -24 -85 -24h-6v6q6 76 6 91h-6q-111 -30 -114 -30zM986 990v-108q36 0 145 -55v103q-24 27 -145 60zM527 966q-6 -82 -6 -103q29 -18 78 -18q0 32 7 103
h-19q-29 0 -60 18zM811 833v-30l12 6h30q49 0 127 -30v109q-89 24 -121 24q-42 0 -42 -24q-6 -23 -6 -55zM708 761v-12q0 -12 -12 -12h-12q-12 0 -12 12q20 12 36 12z" />
    <glyph glyph-name="bracketleft" unicode="[" horiz-adv-x="1343" 
d="M299 1425q140 -46 140 -92v-6q-8 -55 -55 -55q-48 0 -85 141q-7 0 -7 6q7 0 7 6zM91 1260q65 -39 152 -61q49 -33 49 -86q0 -56 -79 -67q-68 0 -110 183q-6 0 -19 25q7 0 7 6zM696 1254h6q187 -67 190 -98l6 -31v-12q0 -67 -80 -67q-65 0 -104 171q-11 2 -18 37z
M482 1174q141 -42 141 -104q-13 -43 -49 -43h-12q-50 0 -80 135q-6 0 -6 12h6zM672 1021h24q18 0 18 -24q313 0 545 -300q12 -12 12 -36q-91 30 -147 30h-24q-52 0 -104 -55q-106 55 -196 55q-27 0 -104 -12v-410q0 -14 6 -24q-6 -11 -6 -25v-134q-7 -86 -79 -86
q-74 21 -74 73l12 7h19q3 0 36 -37h25q15 0 24 49l-6 12v98q0 6 6 6l-12 37l12 24q-6 11 -6 25h6l-6 12v214q0 49 6 116q-4 25 -12 25q-30 -19 -43 -19q-46 61 -140 61h-13q-100 0 -159 -61q-69 55 -116 55q-60 -12 -116 -30v12q111 199 434 306q151 20 171 30q0 6 7 6z
M103 703h6q43 13 67 13q49 0 116 -43q128 220 306 299v7h-12q-169 0 -404 -184q-77 -83 -79 -92zM684 979q-55 -179 -55 -300q84 37 153 37h24q72 0 153 -37v6q-122 241 -275 294z" />
    <glyph glyph-name="backslash" unicode="\" horiz-adv-x="2298" 
d="M792 1433q106 0 130 -280l-30 -20h-10q-24 0 -60 200q-20 30 -40 30q-53 0 -401 -501q-8 -2 -131 -170h1775q-447 604 -532 661q-17 10 -40 10q-45 -55 -70 -220l-20 -10h-10l-30 20q30 280 140 280q114 -7 381 -401q391 -445 391 -631v-20q0 -151 -180 -311
q-152 -70 -311 -70h-70q-281 0 -381 180q-30 58 -70 271q-88 50 -131 50q-130 0 -130 -230q-82 -271 -371 -271h-70q-350 0 -451 281l-10 70v70q0 178 331 561q291 451 401 451zM190 621q-70 -137 -70 -240q0 -39 50 -160h20l211 400h-211zM230 150q104 -80 241 -80h10
l291 551h-281q-52 -51 -261 -471zM942 621q32 -90 50 -90q52 30 100 30h20q114 -30 131 -30q0 18 30 90h-331zM1293 461q24 -205 80 -291h20q6 23 271 451h-251q-120 -21 -120 -160zM1734 621q-291 -486 -291 -511q124 -50 281 -50l301 551v10h-291zM842 611l-291 -551h10
q331 31 331 231q30 158 30 180q0 91 -70 140h-10zM2085 601l-271 -531h10q174 0 301 171q40 103 40 140v40q0 48 -60 180h-20z" />
    <glyph glyph-name="bracketright" unicode="]" horiz-adv-x="1338" 
d="M1087 1431v-7q-292 -351 -389 -618q-137 -281 -298 -792l-14 -7q-306 599 -306 938v55q0 223 924 417q12 7 83 14zM143 952q0 -251 229 -723h14q125 426 284 744q148 237 230 319h-21q-736 -144 -736 -340zM1094 1111h35q139 -8 139 -83v-28q0 -85 -132 -104
q-89 0 -195 63h-14l-201 -514q14 -3 14 -14v-14q-137 -417 -188 -417q-55 5 -55 56q148 409 180 409q29 0 42 70q191 477 222 521q68 55 153 55zM393 1049h7q173 -38 173 -167v-41q0 -105 -132 -160q-40 -51 -48 -111h-14q-26 125 -91 125q-90 71 -90 173q0 152 195 181z
M240 847q0 -108 146 -138q152 24 152 152q-29 146 -125 146h-41q-115 0 -132 -146v-14zM413 924h14q14 -2 14 -14v-7q0 -10 -21 -21q-10 0 -20 21v7q2 14 13 14zM476 924h7q10 0 21 -21q0 -10 -21 -21q-10 0 -21 21v7q2 14 14 14zM386 875q10 0 20 -21v-7q0 -13 -13 -13h-14
q-14 0 -14 13v7q0 10 21 21zM448 875q10 0 21 -21v-7q0 -13 -14 -13h-14q-14 0 -14 13v7q0 10 21 21zM504 875h7q10 0 21 -21q0 -10 -21 -20h-7q-14 0 -14 13v14q2 14 14 14zM351 820h14q14 -2 14 -14v-7q0 -10 -21 -21q-10 0 -21 21v7q2 14 14 14zM413 820h14q14 -2 14 -14
v-7q0 -10 -21 -21q-10 0 -20 21v7q2 14 13 14zM476 820h14q14 -2 14 -14v-7q0 -14 -14 -14h-14q-14 0 -14 14v7q2 14 14 14zM386 778q10 0 20 -21v-7q0 -14 -13 -14h-14q-14 0 -14 14v7q0 10 21 21zM448 778q10 0 21 -21v-7q0 -14 -14 -14h-14q-14 0 -14 14v7q0 10 21 21z
" />
    <glyph glyph-name="asciicircum" unicode="^" horiz-adv-x="2328" 
d="M1592 1425h21q373 -341 373 -766q0 -83 -234 -297v-11h10q209 49 404 276h32q41 0 64 -202v-10q-64 -404 -266 -404h-1606q-24 0 -42 -11q-19 11 -43 11q-10 0 -10 -11l-54 11h-95q-96 37 -96 191v96q0 198 106 329h11q18 0 74 -287h43q43 236 85 575h21q48 0 330 -628
h11v21l-32 405q257 287 404 308l21 -43q-117 -238 -117 -457v-53h32q56 255 96 255h21q18 -1 128 -138h32q63 21 202 468q39 372 74 372z" />
    <glyph glyph-name="underscore" unicode="_" horiz-adv-x="1545" 
d="M817 1425h25q209 0 291 -208q3 -59 17 -59q21 0 67 9q166 -37 166 -275q0 -12 109 -117v-58q0 -72 -92 -84q17 -32 17 -91q0 -143 -109 -217q-92 -232 -275 -317l-58 -8h-283q-165 0 -325 317q-134 91 -134 216l17 109q-67 0 -67 100q0 21 25 58q-158 144 -158 217l17 8
h58q114 0 342 258q193 142 350 142zM275 733v-8h8q298 67 509 67h100q206 0 508 -67v17q-229 225 -567 225q-333 0 -558 -234zM358 550q13 -125 92 -125q57 -135 142 -225q0 122 58 142l175 -34q63 9 150 34q54 0 67 -75v-109q122 102 183 275q52 0 67 84v41q0 45 -59 84
q0 41 -133 41q-50 17 -217 17h-83q-367 -12 -367 -50q0 -33 -50 -33q-25 -47 -25 -67zM633 633h9q58 0 58 -58q-16 -38 -33 -42h-34q-13 0 -33 34v33q0 13 33 33zM1025 633h8q31 -15 42 -50q-17 -50 -33 -50h-42q-33 14 -33 59q11 41 58 41zM800 483l17 -8h25l41 8v-16
q-8 -25 -50 -25q-38 16 -41 33q8 0 8 8zM675 267v-142h83v42q3 16 17 16h92q25 0 25 -58h75v142q-110 -25 -150 -25q-24 0 -142 25z" />
    <glyph glyph-name="grave" unicode="`" horiz-adv-x="2033" 
d="M771 1431h906q43 -24 43 -68h-9l9 -17v-118q0 -17 -17 -17h-77v-373l60 9h8q127 0 178 -415q17 0 17 -59h51q12 0 25 -26v-85q-8 -25 -51 -25h-50q-12 0 -51 127q-102 153 -271 153q-223 0 -305 -280h-474q-14 0 -51 127q-112 153 -271 153q-218 0 -296 -255h-51
q-13 0 -34 34v17q132 347 322 347h17q0 12 330 619q-85 0 -85 17v8q36 127 127 127zM560 660h144q5 0 42 -42q95 68 101 68q0 8 -33 51v17q0 11 42 42h34q118 -127 118 -169v-9q-21 -42 -67 -42q0 12 -51 51q-127 -91 -127 -102q51 -139 51 -161h237q8 0 118 237
q51 72 314 170v440h-68q-42 0 -110 68h-407q-13 -5 -338 -619zM450 423h8q203 -48 203 -203q-34 -220 -220 -220q-203 40 -203 186v51q0 160 212 186zM1533 423h9q220 -18 220 -220q0 -166 -220 -203q-203 39 -203 195v34q37 194 194 194z" />
    <glyph glyph-name="a" unicode="a" horiz-adv-x="2191" 
d="M1046 1427h35q15 -2 15 -14q-14 -7 -22 -7v-7q22 0 22 -14q0 -22 -29 -22v-7q29 0 29 -14v-14l-29 -28q29 -4 29 -21v-14q0 -22 -36 -22v-7q36 0 36 -49q-12 -28 -50 -28q-32 13 -35 28q0 29 35 56q-28 0 -28 14v22q0 17 28 21l-28 28v7q0 18 28 21v7q-21 0 -21 15v7
q0 14 21 14l-14 21zM1110 1427h35q14 -2 14 -14l-7 -14q21 0 21 -14v-7q0 -15 -21 -15v-7q28 -3 28 -21v-7q0 -21 -28 -21v-7q35 0 35 -28q0 -29 -35 -29q35 -29 35 -35v-21q-3 -15 -35 -28q-49 5 -49 42q0 11 35 42q-21 0 -35 29q7 28 28 28l-28 35q0 18 28 21v7
q-28 0 -28 22q0 14 21 14v7h-14v21zM1018 1420v-14h-14l14 -21q0 -22 -28 -22l21 -28q0 -28 -36 -28v-7q29 -4 29 -21v-14q-15 -29 -36 -29v-7q36 0 36 -35q-10 -35 -50 -35h-7q-11 0 -28 28v14q11 28 42 28v7q-35 5 -35 21v15q15 28 35 28v7q-28 0 -28 21q15 28 35 28v7
q-21 0 -21 15q25 42 71 42zM1180 1420h7q34 0 64 -35v-7q0 -15 -21 -15v-7q35 -2 35 -21v-7q0 -21 -28 -21v-7q21 0 35 -28v-15l-28 -28q21 0 35 -28v-14q0 -11 -28 -28h-21q-11 0 -29 28v21q0 18 29 21l-36 36v14q0 17 29 21v7q-21 0 -36 28q0 18 29 21v7q-36 0 -36 22
q0 14 21 14v7h-21v14zM933 1399l7 -14l-28 -36q14 -2 14 -14v-7l-28 -35q10 0 21 -21v-7q-15 -29 -35 -29q28 -31 28 -35q0 -50 -35 -50v-7q28 -3 28 -21v-7q0 -25 -28 -56q28 0 28 -43v-7q0 -11 -28 -28h-22q-11 0 -28 28v21q12 29 42 29v7q-35 5 -35 21v35q0 19 35 21v7
q-28 0 -35 36q12 35 35 35l-21 28v22q0 17 29 21l-22 28q15 28 36 28v7h-14v22zM1258 1392h14q48 -8 50 -22v-21q10 0 21 -21v-7l-21 -28q35 0 35 -50q-14 -7 -21 -7v-14q28 0 28 -42l-28 -36q28 0 35 -42q0 -7 -28 -42q28 0 28 -43q-5 -35 -21 -35h-28q-29 14 -29 42
q0 7 29 43l-29 35v21q0 18 29 21v15q-21 0 -36 28v14q0 4 29 35q-29 0 -36 43q10 0 21 21v7q-28 0 -28 21v7l14 21v7q-28 0 -28 22v7zM834 1349q14 -2 14 -14v-21q0 -21 -28 -21l21 -28q0 -7 -35 -50q21 0 21 -14v-7q0 -43 -28 -43v-14q21 0 21 -14v-35q0 -10 -21 -21h-21
q-22 7 -22 42q8 28 29 28l-21 29v21q14 28 35 28v7q-21 0 -21 14v21q0 18 28 22l-14 21v14q0 11 42 35zM1371 1342q32 -13 35 -28l-7 -35q11 0 29 -29v-7l-22 -28q29 -3 29 -21v-28q0 -15 -22 -15v-14q29 0 29 -42v-7q0 -10 -22 -21h-14q-11 0 -28 28v28q0 18 28 21v7
q-20 0 -35 29v21q0 14 21 14v14q-28 0 -28 21v22q0 14 21 14v7q-21 0 -35 28v7q0 14 21 14zM778 1307v-14q0 -14 -22 -14v-7l15 -22q0 -6 -29 -42l14 -21q0 -50 -35 -50v-7q28 0 28 -14v-14q0 -37 -21 -42h-14q-14 0 -14 14v42q2 14 14 14q-14 23 -14 43v7q0 17 28 21
l-14 21v14q53 71 64 71zM1428 1300q14 -2 14 -14h-14v14zM1449 1272q9 0 35 -36l-7 -35q10 0 21 -21v-21q0 -11 -21 -22q-35 14 -35 43l21 35q-28 0 -28 21v21q2 15 14 15zM693 1187v-36l-21 -28q10 0 21 -21v-7q0 -24 -21 -49q14 0 14 -22h14q0 29 14 29h14q21 -7 21 -43
q-10 -28 -21 -28h-14l-28 28q0 -28 -14 -28h-7q-15 0 -15 14l-14 -7q-14 0 -14 14v14q2 14 14 14l14 -7q0 22 15 22q-7 13 -7 21l-22 -14h-7q0 20 29 56l7 14l-7 14q0 50 35 50zM1505 1187h14q0 -14 22 -50v-21q5 0 21 -35v-7q-21 0 -21 -14l7 -36h7v14h14v-49h-14v14h-7
q0 -21 -14 -21h-8q-14 0 -14 14v42l14 22q-14 0 -14 21h-14q0 -11 -14 -28q21 -7 21 -43v-7q0 -10 -21 -21h-14q-14 0 -21 42q3 29 21 29q-21 35 -21 56q0 10 21 21h14q14 0 14 -28h14q0 11 14 28q-10 0 -21 21v36zM947 1151h21q11 0 29 -28v-21q0 -11 -29 -28h-28
q-10 0 -21 21v28q0 11 28 28zM1039 1151h28q29 -14 29 -42q-14 -32 -29 -35h-28q-11 0 -28 28v21q0 11 28 28zM1131 1151h35q10 0 21 -21v-35q-7 -21 -42 -21h-14q-10 0 -21 21v35q0 10 21 21zM1230 1151h28q14 0 28 -42q-13 -32 -28 -35h-28q-11 0 -29 28v21q0 11 29 28z
M961 1067q33 -14 36 -29v-28q0 -11 -29 -28h-28q-28 14 -28 42q16 43 49 43zM1060 1067q36 -10 36 -50q-14 -32 -29 -35h-28q-11 0 -28 28v28q11 29 49 29zM1152 1067h7q35 -21 35 -50q-13 -32 -28 -35h-14q-49 0 -49 42q0 43 49 43zM1237 1067h14q9 0 35 -36v-21
q0 -11 -28 -28h-28q-29 11 -29 49v7q1 10 36 29zM799 1060q21 -7 21 -43q-5 -35 -21 -35h-21q-11 0 -22 21v14q0 43 43 43zM1406 1060h14q11 0 22 -22v-35q0 -10 -22 -21h-14q-28 14 -28 42q14 33 28 36zM672 975q14 0 14 -28l28 28h14q21 -7 21 -42v-8l-21 -28l21 -28v-28
l-21 -29q28 0 28 -42l-21 -28q29 0 29 -28q11 0 28 28q-28 0 -28 21v28q0 14 21 14q-29 30 -29 57q11 28 22 28h14q11 0 28 -28v-28q0 -22 -28 -22v-7q21 0 35 -28v-21l-21 -28q28 0 35 -43q-10 0 -21 -21q11 0 28 -28v-14l-7 -14q7 0 7 -8h-7q-49 30 -49 43l7 35
q-18 0 -21 28h-7q0 -11 -15 -28q11 0 22 -21v-7q-64 49 -64 85q7 13 7 21q-10 0 -21 21v21l21 29q-21 0 -21 14v42l14 21l-28 29q0 -18 -14 -36q10 0 21 -21v-21l-21 -28q10 0 21 -22v-28q0 -14 -14 -14q-21 35 -21 56l7 15q-43 44 -43 127l14 7h7v-14zM778 975h14
q11 0 28 -28v-7q0 -37 -21 -43h-21q-22 7 -22 43v14q0 10 22 21zM855 975h22q28 -12 28 -50q0 -10 -36 -42q36 0 36 -42v-7l-28 -36q20 0 35 -28q0 -42 -35 -42v-7q30 0 42 -29v-14l-21 -28q28 -4 28 -21v-14l-14 -22q28 -3 28 -21q0 -14 -14 -14q-49 17 -49 28v22
q-17 0 -22 35q14 7 22 7v14q-29 0 -29 21v21q0 15 21 15q-35 27 -35 56q0 18 28 21l-28 36v35q0 14 28 14q-35 27 -35 57v7q0 11 28 28zM961 975h7q11 0 29 -28v-29q0 -11 -29 -28h-7q-49 0 -49 43q0 42 49 42zM1039 975h7q50 0 50 -50q-14 -32 -29 -35h-28q-11 0 -28 28v29
q0 11 28 28zM1138 975h21q35 -21 35 -50q-9 -35 -49 -35q-33 0 -42 43q9 29 35 42zM1251 975h7q28 -12 28 -50q-13 -32 -28 -35h-28q-29 12 -29 50q10 35 50 35zM1329 975h14q11 0 28 -28v-29q-15 -28 -35 -28v-7q35 0 35 -42q-10 -36 -49 -36q-11 0 -29 29v21q15 28 36 28
q-33 28 -36 50q10 29 36 42zM1406 975h14q11 0 22 -21v-36q0 -10 -22 -21h-21q-21 7 -21 43q14 32 28 35zM1477 975h7q21 -7 21 -42v-8l-21 -28q14 -17 14 -28h14q0 18 14 35q-14 0 -14 14v43q3 14 14 14h8q14 0 14 -21h7v14h14v-50h-14v15h-7q0 -13 -14 -36q17 -14 28 -14
v-7q-25 -42 -36 -42l-28 21q0 -18 -14 -36l14 -21v-21l-28 -35q14 -2 14 -14v-7q-18 -37 -42 -43l-7 14v22q0 3 28 35q-14 0 -14 14v28l21 28q-10 0 -21 22v7q0 23 21 49q-21 28 -21 43q13 32 28 35zM643 933q0 -22 -7 -22q7 -13 7 -21h7q15 0 15 14q-15 17 -15 29h-7z
M1406 890h14q11 0 22 -21v-28q0 -11 -29 -29h-14q-10 0 -21 22v28q0 11 28 28zM940 883h28q11 0 29 -28v-28q0 -11 -22 -22h-28q-11 0 -28 29v28q0 10 21 21zM1039 883h7q50 0 50 -49l-36 -43q21 0 36 -28v-14q0 -11 -29 -28h-28q-11 0 -28 28q0 42 35 42q-35 28 -35 57v7
q0 11 28 28zM1138 883h21q11 0 28 -28v-28q0 -22 -28 -22v-14q28 -3 28 -21v-21q0 -11 -28 -28h-28q-15 3 -28 35q0 30 42 35q-42 38 -42 50q9 29 35 42zM1230 883h28q28 -14 28 -42q0 -36 -42 -36v-7q21 0 35 -28v-21q0 -5 -35 -35q28 -4 28 -22v-14q0 -21 -35 -21v-7
q28 -4 28 -21v-7q0 -22 -28 -22l14 -21v-7q0 -14 -21 -14v-7q77 0 77 -28q-18 -50 -155 -106q-7 -143 -7 -198q0 -8 -7 -21v-7h7l14 49h14v-35h7q21 82 21 99h15l7 -36l-43 -134l14 -7q15 28 15 50h14v-64q21 0 35 127l-7 50q18 0 28 -99h7q0 17 29 49q0 14 -15 71
q17 0 50 -78l14 7q7 -10 7 -42h7v28h14v-14h7l7 35v7l-7 36h14q6 -36 22 -36q12 7 28 7q-28 -37 -28 -63v-50q62 0 70 156h14v-50q0 -25 -7 -63v-7h7q0 44 57 92q49 -91 49 -99h7v14l-21 99q36 -29 36 -64h7v50h14v-29l70 120l22 22v-8l-64 -148q7 -12 7 -35h7q43 49 43 70
q0 12 28 92h14q-28 -132 -28 -162v-21h7l7 70h14q0 -17 7 -56h7l14 49q-7 0 -7 7q16 0 21 92h14l7 -35q-7 -14 -7 -21q7 -14 7 -22l-14 -35l22 -14q21 34 21 64h14v-22q0 -17 -14 -63v-7h7q35 148 49 148h7v-35l-42 -142l14 -7q14 24 14 43h14v-64q24 0 36 120v50h14
q7 -31 7 -106h7q0 25 35 77l-7 64q25 0 64 -127h7q0 6 7 56h14q-14 -84 -14 -212v-35q0 -14 -14 -14h-2042q-14 0 -14 14v71q0 31 28 141h14q-7 -37 -7 -42v-7h7q0 30 50 42q-35 -63 -35 -99q63 0 77 127h7q0 -7 7 -7l-7 -49v-21h7q0 28 43 63h7q0 -15 35 -85h7v7l-21 92
q14 0 28 -49h7v35h14v-28h8q0 40 63 113v-7q-42 -95 -42 -120v-21h7l28 35q19 90 42 106v-7q-21 -94 -21 -113v-21h7v35h14l7 -43h8q21 96 21 121h14v-15l7 -42q-14 -23 -14 -35l21 -14l14 63h14v-7q-7 -37 -7 -42v-7h7q21 81 21 106h15v-57q-36 -94 -36 -99l14 -7
q15 23 15 43h14l-7 -50v-7h14q21 75 21 127q-7 14 -7 21h14q7 -34 7 -91h7q0 9 28 56q-7 50 -7 57q40 -35 57 -99h7q0 35 14 35q0 -7 7 -7l7 14l-7 35h7q19 -28 35 -28q-14 -23 -14 -42v-57q57 20 57 120v22h14v-99h7q0 27 49 77q12 -46 57 -99l-21 99v7q14 0 28 -49h7v42
h14v-35l64 113l21 21v-7q-56 -128 -56 -141q7 -12 7 -28h7q0 21 14 21l14 -7q0 42 28 120v63q0 60 -70 78q-57 31 -78 64v14q0 16 35 21l14 -7q14 7 21 7v7q-28 0 -28 14v7q0 14 21 14v7q-20 0 -35 29q0 17 28 21v7q-20 0 -35 28v7q0 4 28 36q-21 0 -35 28v14q0 11 28 28h21
q26 -13 36 -42q-7 -28 -29 -28v-14q29 -4 29 -22v-21q0 -14 -29 -14v-7q21 0 36 -28v-7q0 -15 -21 -15v-7q28 -3 28 -21l-14 -21l35 -7l7 14q-21 0 -21 14l21 28q-28 0 -28 22q0 17 28 21l-28 28v21q0 10 21 22h28q11 0 29 -29v-7q-29 -31 -29 -35q29 -4 29 -21v-7
q0 -15 -22 -15v-14q22 0 22 -14t-22 -14v-7q11 0 29 -14q0 14 21 14v7q-21 0 -21 14t21 14v7l-21 29q0 17 28 21v14q-28 0 -28 21v7q0 11 28 29h28q11 0 28 -29q0 -10 -35 -42q28 0 28 -14v-14q0 -15 -21 -15v-7l14 -21q0 -14 -21 -14q2 -14 14 -14l35 7v7h-14v14l22 28
q-22 0 -22 15v7q0 4 36 35q-29 0 -29 21v7q15 29 36 29l-29 28v28q0 5 36 35q-36 0 -36 43v7q0 11 29 28zM1526 827q15 -3 15 -15q-17 -42 -29 -42h-7v14q5 43 21 43zM1399 805h21q15 -2 15 -14v-28l-22 -28q15 -18 15 -29q-12 -35 -36 -35l14 -21v-7q-21 -35 -49 -35l-7 14
v14q0 4 28 35q-14 0 -14 14q0 43 35 43v7q-28 0 -28 21q0 38 28 49zM1315 798h28q10 0 21 -21v-21q0 -11 -28 -28h-29q-16 0 -21 35q14 32 29 35zM1307 721h29q10 0 21 -22q-3 -21 -35 -49q21 0 21 -14v-7q-15 -29 -36 -29l8 -14q0 -14 -50 -28v14q0 18 28 21v7
q-21 0 -21 15v14q0 16 35 21v7q-28 0 -28 28q14 32 28 36zM1442 678v-7q0 -14 -14 -14v7q2 14 14 14zM1618 339h14q-21 -21 -21 -49q-13 7 -21 7v7q0 7 7 7l-7 14v7l14 -7q2 14 14 14zM919 318l7 -14q-28 -15 -28 -36h-14l-7 43l21 -14q0 10 21 21zM283 283q-14 -18 -14 -36
q-14 0 -14 14v15q3 0 28 7zM1166 276h14v-15h-14v15zM1053 247q0 -35 -7 -85v-14h7q0 22 14 92zM1562 240q-14 -63 -14 -85l21 -14h7q0 16 7 29l-14 70h-7zM2049 219q-14 -71 -14 -92q12 7 28 7v85h-14zM855 212q-14 -57 -14 -71q2 -14 14 -14h14q0 21 8 21q-8 13 -15 64h-7
zM1689 205v-21h7v21h-7zM212 134l29 -14q0 21 7 21q-7 28 -7 57q-13 0 -29 -64zM1166 198v-14h7v14h-7zM1315 198q-8 -51 -15 -64h15q14 0 14 14l-7 50h-7zM1844 198v-14h7v14h-7zM636 184l-7 -50v-14h7q14 0 14 14l-7 50h-7zM502 177v-15h7v15h-7zM975 177v-15h8v15h-8z
M1159 177v-15h7v15h-7zM460 170q2 -15 14 -15v15h-14zM396 162v-21h7v21h-7zM1866 162q0 -7 -8 -21l15 -7q0 8 7 21zM714 148v-21h7v21h-7zM1138 127v-14q14 0 14 14v14q-14 -2 -14 -14zM481 134v-21q14 0 14 14v7h-14z" />
    <glyph glyph-name="b" unicode="b" horiz-adv-x="947" 
d="M262 1431h16q18 0 101 -37q20 -11 43 -11l53 16h16q64 -62 197 -90h5v-11q-111 -112 -149 -112h-11q-4 0 -42 11h-11q-25 -35 -122 -48q-9 5 -27 5q-56 0 -122 -48v-909q112 26 271 26q415 -17 415 -111t-404 -112h-11q-420 16 -420 112q0 41 112 74v1229q1 11 10 11
q12 0 22 -6q20 11 58 11zM182 1005v-164h16v164h-16zM182 681v-160h16v128q0 5 6 5q-6 9 -6 27h-16zM182 340v-164h11l11 5l-6 37v122h-16zM209 138v-64l64 -5q90 11 90 37v11q0 23 -96 37q-58 -4 -58 -16zM166 122v-21h6v21h-6z" />
    <glyph glyph-name="c" unicode="c" horiz-adv-x="1786" 
d="M1660 1431q68 -49 69 -58v-6q-413 -510 -456 -577q-162 -212 -248 -421q-138 -190 -398 -190l-29 6q-7 -185 -23 -185q-17 0 -35 190q-208 60 -392 225q-98 101 -98 162v17q0 84 110 121q41 24 207 41v-6q0 -6 -5 -6l5 -11v-23l-17 -23q17 0 17 -12v-23l-17 -23
q8 0 17 -17q0 -20 -17 -41q8 0 17 -17q-5 -35 -17 -35l-23 18l-17 -12q-12 0 -12 17h-6q0 -11 -5 -11q5 -17 11 -17q11 5 17 5l12 -17v-17q0 -12 -12 -12q-34 12 -34 29q0 9 -12 23q12 0 12 12v23q-29 0 -29 11v12q29 0 29 11q0 12 23 29l-6 35q9 23 17 23q12 0 12 -17h6
q0 14 11 28q-11 0 -11 18q-185 -16 -185 -81q0 -215 317 -381q7 0 18 6q63 -6 109 -6q15 0 29 17l-6 12v6l12 17q-12 0 -12 12v11q0 12 18 12l-18 23v11q0 15 24 18v5q-24 0 -24 18v17q0 14 24 17v6q-24 0 -24 17v6q4 35 18 35h6q34 0 34 -35q0 -23 -29 -23v-6q29 -4 29 -29
q0 -23 -29 -23v-5q23 -3 23 -18v-11l-17 -23q17 0 17 -12v-6l-17 -23q12 -2 12 -11q-10 -23 -23 -23v-6q34 0 34 -12q-23 -25 -23 -29h6q287 0 369 295q6 39 6 63v12q-58 29 -185 75q0 -18 -11 -18h-12q-8 0 -17 18v23q0 11 23 11v6q-29 0 -29 35l12 6q19 -51 92 -70
q64 -29 81 -29q52 25 190 208q51 38 381 462zM540 842l6 -11q0 -17 -23 -17v-6q23 -3 23 -18v-5q-23 -26 -23 -29q17 0 17 -12v-17q-23 -26 -23 -29q23 -3 23 -17q0 -35 -23 -35v-11q23 0 23 -29q-11 -26 -23 -29q-30 0 -34 17v23l23 29q-23 0 -23 18v17q0 14 23 17l-17 23
v23q0 12 23 12v6q-23 0 -23 23q5 23 23 23v6q-18 0 -18 11q14 9 46 17zM564 842h28q12 -1 12 -11v-6q0 -11 -17 -11v-6q17 0 17 -12v-17q0 -12 -23 -12v-5q23 -3 23 -18v-17q0 -17 -23 -17l23 -23v-23q0 -18 -23 -18l23 -23v-29l-23 -23q23 -3 23 -17v-23q0 -8 -17 -17h-23
q-18 5 -18 34q0 23 29 23v6q-17 0 -29 23v17l23 29q-23 0 -23 35l23 29q-23 0 -23 23q0 5 23 34q-17 0 -17 12v11q0 15 23 18v6q-23 0 -23 17q2 11 12 11zM621 842q29 -11 41 -11v-6l-12 -17q17 0 17 -12v-17q0 -12 -17 -12q23 -23 23 -34q-6 -23 -23 -23q23 -26 23 -29v-17
q0 -18 -29 -18v-6q17 0 29 -23v-17q0 -9 -23 -23h-11q-9 0 -24 23v17l24 29q-24 0 -24 18v17l24 29q-24 0 -24 17v17q0 15 24 18v5q-24 0 -24 12v17q0 12 24 12v6q-24 0 -24 17zM483 825v-11h-12v-6l12 -18v-11q0 -17 -23 -17l17 -23v-18q0 -17 -23 -17v-6q23 0 23 -34
q-23 -26 -23 -29q17 0 17 -12v-29q0 -17 -23 -17v-6q23 0 23 -11v-29q0 -8 -17 -17h-12q-6 0 -29 34q0 -29 -17 -29q23 -26 23 -40l-11 -23q11 -19 11 -35v-6q0 -11 -17 -11v-6q23 0 23 -23q19 17 29 17v6q-20 0 -29 29l17 29q-17 0 -17 11v29q2 12 12 12h17q23 -12 23 -29
l-17 -29q17 -6 17 -35v-5q0 -12 -17 -12l23 -23v-17q0 -12 -18 -12v-6q24 -2 24 -17v-6l-12 -17q23 -3 23 -17q-14 -12 -23 -12q-23 9 -23 17l11 18q-23 0 -23 17v6l12 17q-15 0 -17 23q-9 0 -18 -17q18 -19 18 -29q-6 -11 -6 -17q8 0 17 -18l-11 -5l-29 29q5 0 5 5
q-8 0 -17 18v5l12 18q-23 0 -23 17v12l11 17q-14 0 -17 23h-12l-5 -23q8 0 17 -17l-6 -29q8 0 17 -18v-11h-11q-9 0 -23 23v6l6 11q-15 0 -18 23l-11 -5q-23 11 -23 34q5 0 5 6q-17 0 -17 35q10 5 23 5l6 -11v-29l-6 -12l23 -17q0 6 6 17q-8 0 -17 18v17l11 17q-11 0 -11 12
v23q2 12 11 12h6q8 0 17 -18v-17l-11 -17q11 -15 11 -29q8 0 23 29q-8 0 -17 17v17l17 23q-17 0 -17 12v29q2 11 12 11h17q11 0 11 -17h12q0 17 17 17q-23 26 -23 41q6 23 23 23l-17 23v23q0 14 23 17v6q-23 0 -23 23q0 5 23 35q-11 0 -11 11v17q22 35 46 35zM702 814
q26 -12 29 -24v-11q0 -12 -17 -12v-11q23 0 23 -35q-9 0 -23 -23q23 -3 23 -17v-17l-18 -24l18 -23v-23q0 -8 -18 -17q-40 0 -40 35q6 23 23 23v11q-23 0 -23 29q6 23 23 23v12q-23 0 -23 17v17q0 12 17 12v11q-17 0 -17 12v17q0 9 23 18zM419 796l6 -11v-12l-17 -23
q11 -2 11 -11v-24q0 -8 -17 -17h-12q-14 0 -17 23q6 23 23 23l-11 18v5q10 21 34 29zM748 796q0 -4 29 -29l-6 -11q9 0 23 -23v-12q0 -8 -17 -17h-17q-9 0 -18 17v23q0 12 18 12v6q-23 0 -23 17v6q1 11 11 11zM760 698h17q8 0 17 -17v-23l-17 -23q23 0 23 -35
q-23 -26 -23 -29q23 0 23 -34q0 -9 -23 -23h-12q-8 0 -17 17v23q0 14 23 17v6q-23 0 -23 17v23q0 15 23 18v5q-23 0 -29 35q9 23 18 23zM390 692h12q8 0 17 -17q0 -35 -23 -35l17 -23v-23q0 -8 -17 -17h-6q-8 0 -17 17v23l17 23q-17 0 -17 12v23q0 8 17 17zM327 658
q0 -15 -12 -29q0 -8 18 -17q0 9 11 23q-11 0 -11 23h-6zM823 635h6q17 0 17 -23h12v11h6l23 -40h69q11 -2 11 -12q-18 -11 -28 -11q-31 5 -35 5q-11 -5 -17 -5q0 5 -6 5v-34h69v-17q-17 0 -17 -6l-29 6h-17q-10 0 -18 -41h70v-11q0 -12 -12 -12q-31 6 -52 6q-11 0 -11 -17
h-12q0 6 6 17q-6 32 -6 46q8 0 17 17q-10 0 -17 29l17 29l-23 23q0 -23 -17 -23v-6q17 0 17 -11v-29q0 -12 -17 -12l17 -23v-23q0 -11 -17 -11l17 -23v-12l-6 -12h75v-17h-63q-13 0 -23 6h-6v-6q12 0 12 -6l-18 -29q64 0 64 -11l-12 -6h-69l-6 29v6l18 23q-12 0 -12 11v18
l17 23q-11 0 -11 11v29l11 18l-11 17v23l17 23q-8 0 -17 17v23q0 9 17 18zM321 594q0 -6 -6 -17q9 -23 18 -23q0 9 11 23q-11 0 -11 17h-12zM292 589q0 -7 -5 -18l11 -6q12 0 12 12zM500 571h23q13 0 17 -29q-11 -26 -23 -28h-17q-8 0 -17 17v23q0 8 17 17zM633 571h23
q8 0 17 -17v-6q0 -30 -17 -34h-23q-9 0 -18 17v23q0 8 18 17zM702 571h23q12 -2 12 -11v-29q0 -8 -18 -17h-17q-23 9 -23 40zM500 508h23q17 -6 17 -35q-8 -23 -17 -23h-23q-17 6 -17 35q8 23 17 23zM569 508h18q8 0 17 -18v-23q0 -8 -17 -17h-18q-9 0 -23 23v12q0 9 23 23z
M702 508h17q9 0 18 -18v-5q0 -30 -18 -35h-23q-8 0 -17 17q0 31 23 41zM765 508h18q11 -2 11 -12v-23l-11 -17q6 0 6 -6q-6 0 -6 -6q11 -2 11 -11q0 -35 -23 -35l18 -23q0 -5 -24 -35q12 -1 12 -11q0 -9 -23 -23h-12q-11 0 -11 11v6q0 15 23 17v6q-17 0 -17 12v11l23 29
q-18 0 -18 12v17q0 14 23 17q-23 23 -23 35q12 26 23 29zM500 444h23q8 0 17 -17v-17q0 -18 -23 -18v-5q29 0 29 -29q-8 0 -17 -18q8 0 17 -17v-6l-11 -17q8 0 17 -17l-6 -12q6 -11 6 -17h-23q-8 0 -23 34q6 12 6 18q-9 0 -18 17l18 23q-23 0 -23 17v6q0 15 23 18v5
q-20 0 -29 29q8 23 17 23zM569 444h18q11 -2 23 -29q0 -23 -29 -23v-5q23 -3 23 -18v-11l-17 -23q17 0 17 -12v-11l-12 -18q12 -2 12 -11v-6q0 -6 -6 -6l6 -11v-6h-29q-11 0 -11 11q5 0 5 6q-11 0 -11 12l11 17l-11 17v6l11 17q-8 0 -17 18v11q0 15 23 18v5q-29 0 -29 35z
M696 444h23q9 0 18 -23q-10 -29 -29 -29v-5q23 -3 23 -18v-6l-17 -23l11 -17l-17 -23q6 -11 6 -17q-19 -12 -35 -12q-12 0 -12 12q0 11 18 11v6l-12 17v6q0 12 17 12v5l-11 18v11q0 15 23 18v5q-23 0 -23 18q4 34 17 34z" />
    <glyph glyph-name="d" unicode="d" horiz-adv-x="1550" 
d="M775 1428q416 0 645 -435q44 -101 58 -275q0 -429 -420 -653q-138 -65 -298 -65q-434 0 -652 428q-58 130 -58 253v66q0 349 355 587q167 94 370 94zM891 1080h-181l-22 15h-15l-21 -15q-24 15 -44 15q-22 -15 -58 -15v-14q29 0 29 -15v-145q5 -43 22 -43h94v-15
q-36 -44 -36 -87v-442q0 -13 36 -22q36 10 36 51v326q3 15 15 15q14 -33 14 -95v-43q62 -163 87 -181h29q11 0 22 21v8q-72 152 -72 253v51q0 13 94 167v7q0 19 -181 181l7 15l36 -7h102v-8l-8 -29q20 -72 73 -72h14q80 0 80 109h22l51 -73h14q10 0 22 22q-20 56 -44 65h-79
q-42 36 -73 36q-26 0 -65 -36zM652 1029h7l94 -87l-14 -7h-73q-14 0 -14 15v79z" />
    <glyph glyph-name="e" unicode="e" horiz-adv-x="1255" 
d="M541 1433h17q101 -45 125 -51h17q21 17 40 17q13 0 85 -62q113 -36 113 -51q-115 -119 -147 -119q-17 0 -40 11q-70 -45 -108 -45q-88 0 -136 -34v-204q17 0 17 -6l12 6q221 -58 221 -187q32 -52 68 -91l11 6h6q15 0 22 -45h6v17q8 0 28 -29q-5 -11 -5 -17q13 0 51 -62
q237 -189 237 -204q6 -9 6 -28v-23q-8 0 -45 -51q-157 -96 -527 -96q-469 0 -544 113l-11 29q0 33 119 186q28 80 28 153q-17 150 -17 176q0 132 216 153q29 6 56 6v515q2 11 11 11l23 -5q21 11 45 11zM473 1082v-119h23v119h-23zM360 742q37 -34 102 -34v74h-6
q-96 -12 -96 -40zM507 782v-74q91 11 91 34v17q-60 23 -91 23zM706 663q0 -29 -6 -29l6 -11v-6l-12 -17q12 -1 12 -11v-6l-12 -17q12 -1 12 -11v-11l-12 -17q12 -2 12 -12v-11l-12 -17l12 -17v-17l-12 -17q12 -2 12 -11v-17l-12 -17q12 -2 12 -12v-11l-12 -17l12 -17v-11
l-12 -17q12 0 12 -17q-6 -11 -6 -17l11 -6q12 0 12 12l-12 17l12 17l-12 17v5l12 17q-12 19 -12 28q9 0 17 17q-13 0 -17 29q9 0 17 17q-13 0 -17 28q9 0 17 17q-13 0 -17 28q9 0 17 17q-8 0 -17 17v6l12 17l-12 17l12 17q-12 0 -12 11q2 12 12 12q-8 34 -17 34zM666 646h6
q11 0 11 11h-6q-11 -2 -11 -11zM740 657l5 -11v-6l-5 -11l11 -6q11 0 11 11q-11 0 -11 23h-11zM632 651q0 -17 -11 -17l5 -11v-6q0 -11 -11 -11l6 -11v-12l-12 -17q12 -1 12 -11v-11q0 -12 -17 -12l11 -17v-17l-11 -17q11 -1 11 -11v-17l-11 -17q11 -2 11 -11v-12l-11 -17
q11 -1 11 -11v-17l-11 -17q8 0 17 -17v-5l-12 -17q12 -2 12 -12v-11l-6 -11q11 -2 11 -12v-5l-5 -12l22 -22h6v5h-11v12l5 11q-11 0 -11 11q6 11 6 17q-12 0 -12 12v5l12 17q-12 0 -12 12v11l12 17q-8 0 -17 17v5l11 17l-11 17v12l11 17l-11 17v11q0 11 17 11l-17 23v6
l17 22q-12 0 -12 12v11l12 17q-12 0 -12 11v6q0 11 17 11l-11 17q2 12 11 12l-5 11l5 11h-11zM660 634l6 -11v-6l-11 -17q11 -1 11 -11v-6q0 -11 -17 -11q0 -8 17 -17q8 0 17 17q-11 0 -11 11v6l11 17q-11 0 -11 11l11 17l-11 6zM785 640l-6 -11l12 -6q11 0 11 11
q-6 0 -17 6zM587 623v-6h5q12 0 12 12v5h-6q-11 -1 -11 -11zM751 617l-11 -17q11 -1 11 -11v-6l-11 -17q11 -1 11 -11v-11l-11 -17l17 -12q8 0 17 17q-8 0 -17 17v6q0 11 17 11v6q-17 0 -17 11v6l11 17zM791 617l-12 -17l17 -11l12 17zM587 612l-6 -23h6q11 0 11 11
q0 12 -11 12zM825 612l-6 -12q11 0 11 -17h6q0 6 6 17zM553 600q0 -6 -6 -17h6q11 0 11 12v5h-11zM791 583q0 -6 -6 -17q11 -1 11 -11v-11l-11 -17q11 0 11 -17q8 0 17 17q-11 14 -11 17v11l11 17l-17 11h-5zM581 578l-11 -17l17 -12l5 23zM825 566q11 -1 11 -11v-6
q0 -12 -6 -22q6 -11 6 -17h11q0 6 6 17q-11 0 -11 11v11l11 17l-17 12q-11 -2 -11 -12zM547 572l-6 -28q9 0 17 17q0 11 -11 11zM864 572l-5 -11q11 0 11 -17h6q0 6 5 17zM513 544v-6h6l5 23q-11 0 -11 -17zM660 549q0 -8 -11 -22q11 -2 11 -12v-11l-11 -17l11 -17v-11
l-11 -17l11 -17v-12l-11 -17l11 -17v-11l-11 -17q11 -2 11 -11v-11l-11 -17q8 0 17 -17l-11 -17q11 -2 11 -12v-5l-6 -12l12 -5h5l-5 22l5 12q-5 9 -5 22q5 11 5 17q-11 0 -11 12v5l11 17l-11 17v11q0 12 17 12l-17 22v12q0 11 17 11l-17 23v11q0 11 17 11l-17 23v6l17 22z
M541 538q0 -6 -5 -17q5 -11 5 -17h6q0 9 11 23zM564 521q11 -2 11 -11v-12l-11 -17q11 -1 11 -11v-17l-11 -17q11 -2 11 -11v-12l-11 -17q11 -1 11 -11v-6l-5 -28l17 -11q0 11 5 11q-11 19 -11 34l11 17q-11 0 -11 11v12l11 17q-11 0 -11 11v17l11 17q-11 0 -11 11v12l11 17
q0 11 -11 11q-8 0 -17 -17zM870 538q0 -6 -6 -17l17 -11l6 11q0 8 -17 17zM513 527l-6 -12q2 -11 12 -11q0 6 5 17zM898 527v-6q6 -11 6 -17h6v23h-12zM751 504q0 -9 -11 -23q8 0 17 -17l-17 -28q8 0 17 -17l-17 -28l17 -12q8 0 17 17q-12 0 -12 12v17l12 17q-12 0 -12 11
v17l12 17q-12 0 -12 17h-11zM796 504q0 -9 -11 -23l17 -11q8 0 17 17zM541 498q0 -6 -5 -17q5 -11 5 -17h6q0 6 6 17q-6 11 -6 17h-6zM836 498q0 -6 -6 -17q12 -1 12 -11v-11l-12 -17l12 -17v-12l-12 -17q0 -8 17 -17q0 9 12 23q-12 0 -12 11v6q0 13 6 23q-6 10 -6 22v6
l12 17l-17 11h-6zM864 481q12 0 12 -17h5q0 6 6 17q-6 11 -6 17q-8 0 -17 -17zM513 493q0 -12 -6 -12q6 -11 6 -17h6q0 12 5 12q-5 11 -5 17h-6zM898 481q6 -11 6 -17h6q0 12 5 12q-5 11 -5 17q-12 -2 -12 -12zM490 481v-17h6q0 6 6 17h-12zM921 481v-11h6v11h-6zM541 459
q0 -9 -11 -23l17 -11q0 6 6 17q-6 11 -6 17h-6zM796 459q0 -9 -11 -23l23 -17q0 9 11 23q-11 0 -11 17h-12zM876 459q0 -9 -12 -23q12 -2 12 -11v-12l-12 -17l17 -11q0 11 6 11l-6 29q0 6 6 17q-6 11 -6 17h-5zM507 442q2 -12 12 -12q0 6 5 6q-5 11 -5 17q-12 -2 -12 -11z
M898 442q2 -12 12 -12q0 6 5 6q-5 11 -5 17q-12 -2 -12 -11zM490 447v-17h6v17h-6zM921 447v-11h11v11h-11zM541 419q0 -9 -11 -23q11 -1 11 -11q0 -13 -5 -23q5 -10 5 -16q9 0 17 16q-11 0 -11 12v11l11 17q-11 0 -11 17h-6zM490 413v-17q12 0 12 12zM507 402q2 -11 12 -11
q0 5 5 5q-5 11 -5 17q-12 -1 -12 -11zM796 413q0 -8 -11 -22q11 -2 11 -12v-11l-11 -17q11 -2 11 -11v-11l-11 -17q2 -12 11 -12q8 0 17 17q-11 0 -11 12v11q0 11 17 11l-17 23l11 22q-5 11 -5 17h-12zM904 413l-6 -11q2 -11 12 -11q0 6 5 17zM921 408v-12h6v12h-6zM513 379
q0 -11 -6 -11q6 -11 6 -17q11 0 11 11q-5 11 -5 17h-6zM864 362q6 -10 6 -16l17 11q-6 11 -6 17zM904 374l-6 -12v-5h6q11 0 11 11zM740 351l11 -17v-11l-11 -17q11 -2 11 -11l-11 -17v-6q6 0 17 -6l5 12q-5 9 -5 22q11 0 11 12l-11 17v5l17 23l-17 11q-8 0 -17 -17z
M825 351q11 -2 11 -11v-11q0 -12 -11 -12q5 -11 5 -17l17 12l-5 28l11 17q0 11 -11 11q-9 0 -17 -17zM513 340v-6q6 -11 6 -17q11 0 11 12zM898 340v-11h6v11h-6zM536 323l17 -11q0 5 5 5q-5 11 -5 17h-6q-11 -2 -11 -11zM570 317q11 -2 11 -11q11 6 17 6q-11 13 -11 22
q-8 0 -17 -17zM870 334l-11 -17l11 -5h6q0 6 5 17zM547 300v-5q2 -12 11 -12h6v6q0 11 -11 11h-6zM864 300l-11 -17l11 -5l12 17zM575 283q12 -2 12 -11q11 6 17 6q0 8 -17 17q-12 -2 -12 -12zM791 295l-12 -17l17 -12l12 17zM830 295q0 -12 -11 -12l6 -11v-17h-12v-6h6
q11 6 17 6l-6 11v6l12 17zM587 255l11 -6h6q-6 11 -6 17q-11 -2 -11 -11zM706 261q0 -6 -6 -6l6 -11v-6q0 -6 -6 -6q6 -11 6 -17h5q0 12 6 12l-6 11q6 11 6 17zM740 249l5 -11q-5 -11 -5 -17q11 6 17 6l-6 11l11 17l-11 6q-11 -2 -11 -12zM779 249v-17q9 0 23 23l-11 6
q-12 -2 -12 -12zM672 238l-6 -11l11 -6l6 11zM1187 227l6 -12v-17q0 -143 -249 -181q-148 -17 -284 -17h-85q-394 0 -487 96q-28 27 -28 85q2 12 11 12q0 -102 476 -119h91q448 0 538 136q0 17 11 17z" />
    <glyph glyph-name="f" unicode="f" horiz-adv-x="559" 
d="M282 1431h4q6 0 15 -15v-8q0 -5 -11 -11h-38q-12 0 -50 -351q20 -9 46 -69q97 -54 149 -111q-23 -21 -23 -53h11q0 -10 -11 -27q22 -156 42 -156q57 -71 57 -107v-4q-4 -50 -42 -107q-42 -79 -42 -114q34 -59 34 -84v-77q0 -16 20 -76v-19q0 -6 -50 -31q0 -8 -50 -11
q-26 9 -26 15v8q64 69 64 88l4 23q0 21 -42 133h-4q-38 -103 -38 -111q4 -26 4 -42v-11q0 -11 -53 -15q-6 -15 -27 -15h-19q-5 0 -19 19q36 20 57 53q7 4 15 4v19q10 23 39 149q-7 8 -12 114q4 14 4 38q-8 0 -8 8q19 37 19 80q0 44 -72 84q-22 23 -23 46q8 34 8 49l-8 4
q-42 -49 -84 -49l-8 11v12q0 48 27 87h-4q-16 -15 -30 -15h-19q-8 0 -8 8q19 34 19 46l-4 19q0 47 50 76h27q7 50 7 69l-4 15q4 15 12 27q-4 0 -4 3q14 0 50 329q11 53 49 53zM202 958q0 -12 -4 -27q29 -21 46 -38v-4h4q27 15 27 19q-45 36 -73 50z" />
    <glyph glyph-name="g" unicode="g" horiz-adv-x="1006" 
d="M931 1433h18q13 -4 13 -27q0 -28 -146 -199q-132 -167 -132 -194q-58 -47 -58 -53l5 -9q-8 -31 -18 -31h-22q0 -17 -129 -93q-8 -4 -13 -4q-4 0 -4 4l-22 -4h-14q0 -9 -4 -9q4 -69 22 -120l-4 -8q28 -113 44 -142l-18 -18v-35q0 -54 -17 -128q17 -111 17 -199v-36
q0 -18 18 -44q0 -10 18 -62q-9 -20 -18 -22h-22q-37 0 -44 93q8 14 8 26l-4 9l4 9q-31 113 -48 274q-12 84 -22 84q-36 -157 -89 -194q-93 -136 -93 -146q-9 -62 -35 -142l-22 -4h-27q-6 0 -13 13q16 84 53 137q33 100 58 155q57 31 57 190v5l-13 8l4 23v35q0 29 40 146
l-44 97q-8 36 -49 36q-9 10 -9 17q5 14 9 14q-4 17 -31 17q-8 -4 -13 -4v4q1 9 9 9l9 -4v9l-5 8q7 0 13 14l-4 8q4 8 4 18h-8v22q38 24 62 93q23 44 79 44q33 -9 62 -66v-4l-4 -9q0 -71 115 -71q176 44 208 66q0 -4 4 -4q43 43 279 345q-23 33 -23 49zM184 1031v-5h9v5h-9z
M153 991v-9h4v9h-4zM600 969h8q7 0 14 13h-9q-7 0 -13 -13zM157 964v-9q9 0 9 9h-9zM356 920q0 -17 84 -44l137 75v9h-4q-53 -40 -217 -40z" />
    <glyph glyph-name="h" unicode="h" horiz-adv-x="957" 
d="M333 1428h17q58 0 84 -78l67 -56q36 -62 61 -145q0 -23 -45 -229v-55q0 -23 28 -173q-8 0 -22 -23q91 -215 307 -636h67q11 -1 11 -11v-5q-4 -17 -45 -17h-50q-11 0 -11 11v6l11 16v6q-253 509 -284 552h-6v-55q0 -62 28 -168q0 -6 -6 -17q0 -191 34 -251q17 -45 17 -61
v-11q-6 -17 -34 -17h-17q-44 0 -44 89q-6 0 -6 12q6 47 6 72q-39 206 -78 352q-7 81 -34 133q-11 0 -11 6l-11 -6h-28q-43 -81 -61 -212q-18 0 -45 -156q-7 0 -45 -134q11 -1 11 -11v-61q-50 -37 -72 -67h-56q-11 0 -11 11q0 26 78 134q11 118 56 346l-6 50q6 89 6 106
l-6 22q34 110 45 196q-50 28 -50 139v28q0 169 67 212v22q0 5 -11 45q0 68 94 89z" />
    <glyph glyph-name="i" unicode="i" horiz-adv-x="1244" 
d="M591 1431q25 0 62 -28h468q10 0 21 -21v-14l-468 -356v-454q7 0 7 7q363 -58 363 -97q140 -78 140 -175v-28q0 -180 -412 -258q-40 -7 -112 -7h-69q-401 0 -524 237q0 6 -7 42q0 200 433 279q7 516 7 803q0 55 91 70zM542 1340q7 -744 7 -893q-7 -37 -7 -42q9 -35 49 -35
q31 13 34 28v942q0 42 -41 42h-14q-28 -14 -28 -42zM674 1354v-279q299 222 377 272v7h-377zM674 517v-91q-11 -98 -77 -98h-27q-77 0 -77 175h-7q-377 -61 -377 -224q0 -171 419 -230q54 -7 111 -7q503 44 503 244q0 149 -384 217q-72 7 -84 14z" />
    <glyph glyph-name="j" unicode="j" horiz-adv-x="1215" 
d="M1058 1428q103 -18 103 -79v-12q0 -48 -66 -60h-18q-43 0 -91 42q-266 -445 -266 -454h6q24 -18 48 -18q202 345 242 375q33 6 48 6q97 -22 97 -84q-10 -67 -66 -67h-18q-45 0 -91 42q-37 -54 -37 -66h25q84 -22 84 -91q-20 -54 -66 -54h-24q-45 0 -85 42l-79 -133
q20 0 61 -36v-6q0 -46 -67 -91l6 -31v-12q0 -30 -12 -72q6 -43 6 -49q0 -34 -145 -278q-48 -99 -109 -121q-21 -40 -121 -85q-8 -36 -30 -36q-285 157 -291 175v13l12 18q-18 41 -18 66v49q0 13 6 24q-36 63 -36 97q5 0 18 18q-24 60 -24 121v30q0 169 224 200q0 36 91 36
h24q46 30 97 42q4 41 42 79h12l49 -30h12q0 10 72 127v6q-78 0 -97 109q16 60 61 60q43 0 103 -60l36 60q-75 0 -97 103v12q0 55 73 55q97 -30 97 -109q-9 -33 -218 -387l42 -25q300 506 321 527q39 12 54 12zM1016 1367v-12q31 -42 67 -42q29 10 42 24q-15 49 -61 49h-12
q-36 -4 -36 -19zM726 1349q19 -66 66 -66h12q12 0 12 12v12q0 41 -60 67q-28 -8 -30 -25zM629 1192v-18q10 -67 66 -67q12 6 18 6v25q0 50 -66 60q-12 -6 -18 -6zM1016 1168q0 -44 67 -55q36 13 36 25v12q-21 36 -55 36h-12q-36 -4 -36 -18zM913 998v-18q23 -36 67 -36
q36 6 36 18v18q-25 37 -60 37h-7q-36 -4 -36 -19zM550 920l-6 -12v-12q13 0 266 -152l6 12v6q-31 27 -266 158zM532 853q0 -8 -91 -24q-78 -69 -78 -127q6 -33 6 -55q-115 -190 -134 -199q-58 0 -96 -133q-6 -10 -6 -31q0 -55 90 -84q19 -18 200 -115q43 0 115 84
q42 0 175 267q43 52 43 78v12q0 17 -12 37q18 31 18 60v37q0 13 -6 24l18 30q-17 24 -236 139h-6zM314 781h6q43 8 43 24h-31q-9 0 -18 -24zM96 593q0 -85 43 -85q19 -54 30 -54q75 46 97 103q60 102 60 121v66q-51 -12 -60 -12q-12 15 -12 30h-6q-152 -32 -152 -151v-18z
M683 563h6q18 0 18 -24q-171 -303 -199 -321q-9 0 -18 18v12q167 291 193 315zM108 424q13 -20 13 -31h6l6 31q-6 11 -6 18h-6q-13 0 -13 -18zM151 188q0 -8 236 -140v13z" />
    <glyph glyph-name="k" unicode="k" horiz-adv-x="1563" 
d="M394 1431q11 -6 18 -6v-6q-20 -40 -48 -59h-23q-12 0 -12 12q12 44 47 59h18zM1177 1431q65 -10 65 -65l-12 -6h-23q-28 19 -48 59v6q7 0 18 6zM1260 1413h11q36 -48 36 -64q-28 -48 -42 -48q-37 16 -41 30q4 18 41 18q-11 19 -11 35zM306 1407q11 -1 11 -11v-12
q0 -16 -11 -35q37 0 41 -18q-4 -14 -41 -30q-14 0 -42 48q0 32 42 58zM223 1331h6q24 -7 24 -53q6 0 17 6l30 -6v-6q-19 -41 -53 -41h-12q0 17 -24 35v18q0 5 12 47zM1342 1331h6l18 -53q-30 -35 -30 -47h-12q-31 0 -53 41v6l30 6l23 -12l-6 29q12 27 24 30zM771 1290h29
q226 0 342 -254q17 -61 17 -123q0 -266 -300 -365l-82 -6q-223 0 -342 241q-23 69 -23 142q0 227 241 341q59 24 118 24zM170 1243h6q29 -14 29 -53l12 5h41v-5q-22 -53 -58 -53l-12 17q6 0 6 6q-36 0 -36 35q0 10 12 48zM1395 1243h6q12 -37 12 -59q-35 -47 -53 -47
q-21 2 -47 53v5h41l12 -5q0 39 29 53zM488 930v-17q0 -209 230 -289q40 -6 65 -6h5q207 0 283 218q12 23 12 65v24q0 195 -212 276q-23 12 -65 12h-41q-180 0 -265 -212q-12 -41 -12 -71zM141 1148q29 -25 29 -59l24 18h29v-6q-8 -59 -53 -59q0 10 -41 36v59q2 11 12 11z
M1436 1148l6 -11v-53q0 -11 -35 -30q0 -12 -18 -12q-27 0 -41 65h29l24 -18q0 42 35 59zM94 1048q53 0 53 -65h5q0 31 59 36q-11 -77 -35 -77h-18q-64 20 -64 65q5 10 5 24q-5 11 -5 17zM853 1048q25 -8 36 -29v-30q-10 -23 -42 -23q-23 0 -35 23v30q18 29 41 29zM971 1048
q35 0 41 -47q0 -35 -41 -35h-12q-29 15 -29 47q15 35 41 35zM1477 1048q0 -6 -5 -17l5 -30q0 -37 -64 -59h-18q-35 28 -35 77q59 -5 59 -36h5q0 65 53 65zM788 942q25 -8 36 -29v-24q-15 -29 -47 -29q-36 12 -36 47q12 35 47 35zM912 942q18 0 35 -35q-4 -47 -47 -47
q-24 8 -35 29v24q15 29 47 29zM1030 942h6q8 0 29 -29v-24q-15 -29 -47 -29q-29 8 -29 41q0 41 41 41zM70 930h6q65 -11 65 -58h6q0 41 53 41h11q-16 -94 -41 -94h-12q-11 0 -11 35h-6q0 -24 -12 -24h-18q-27 0 -41 100zM1495 930h6q0 -75 -41 -100h-18q-12 0 -12 18h-6
q0 -29 -11 -29h-12q-25 0 -41 94h11q53 0 53 -41h6q0 47 65 58zM724 842q47 0 47 -59l-30 -23h-11q-42 0 -42 41v12q11 21 36 29zM853 842q25 -8 36 -29v-12q0 -41 -42 -41h-11q-10 0 -24 23v30q18 29 41 29zM977 842q35 -12 35 -47v-6q0 -8 -29 -29h-6q-47 0 -47 47
q12 35 47 35zM229 807q6 -61 6 -71q-8 -24 -30 -35h-5q-12 0 -18 35h-6v-6q6 -11 6 -17l-18 -12q-48 0 -76 88h6q76 0 76 -47h6q0 65 53 65zM1342 807h6q43 0 47 -65h6q0 47 82 47v-6q-32 -82 -76 -82l-24 12q0 -12 -12 -12h-5q-30 17 -30 41q6 40 6 65zM788 748
q36 -12 36 -47q-12 -36 -47 -36q-36 16 -36 42q0 35 47 41zM912 748q27 -12 30 -24v-35q-1 -8 -30 -24q-32 0 -47 30v23q15 30 47 30zM1389 736v-12h6v12h-6zM276 713h12q29 -72 29 -77v-29q0 -8 -29 -30q-41 49 -41 71t29 65zM1283 713h6q35 -26 35 -77q-23 -46 -47 -59
q0 3 -23 30v17q0 16 29 89zM200 654q39 -7 70 -65q0 -12 -35 -24q-33 0 -94 71v6zM1377 654q45 -12 53 -12v-6q-61 -71 -94 -71q-35 12 -35 24q35 65 76 65zM364 601h12q41 -75 41 -89v-11q0 -32 -23 -42q-53 40 -53 71v12q0 13 23 59zM1195 601h12q23 -46 23 -59v-12
q0 -26 -47 -71q-29 9 -29 42v11q0 14 41 89zM1083 542h12q17 -77 17 -83v-11q0 -52 -94 -89q-18 22 -18 41v18q0 34 77 100q6 11 6 24zM476 536h12q0 -18 77 -88l6 -30v-18q0 -31 -24 -41q-88 41 -88 100q0 13 17 77zM276 524h24q31 0 70 -53v-6q-9 -23 -41 -23h-6
q-25 0 -88 53h-6v6q0 15 47 23zM1295 524q44 -7 47 -23v-6q-13 0 -77 -53h-23q-32 0 -41 23v12l59 47h35zM606 471h12q0 -15 100 -59q15 -19 23 -53q-6 -10 -6 -29q-129 0 -129 94v47zM959 465h6v-53q0 -82 -124 -82l-11 29q0 59 123 100q0 6 6 6zM412 412h11q25 0 100 -41
q0 -49 -64 -59q-19 0 -130 47v12q60 41 83 41zM1148 412h11q22 0 83 -41v-12q-109 -47 -136 -47q-53 0 -53 59q67 41 95 41zM306 365h11v-12h-11v12zM1254 365h17v-12h-17v12zM624 342q53 -12 76 -12h6v-18q0 -51 -71 -65q-79 6 -117 6v6q44 83 106 83zM959 342
q46 0 100 -89h-11q-31 0 -118 -6q-65 21 -65 65v18h6q85 12 88 12zM370 130h47q42 0 42 -42q0 -47 -65 -47q0 -41 -12 -41h-12q-11 0 -11 12v106q1 12 11 12zM488 130h41q42 0 42 -42q0 -17 -24 -35l29 -47l-11 -6h-18q-14 0 -29 41h-6q0 -41 -12 -41h-12q-12 0 -12 12v106
q2 12 12 12zM606 130h47q12 -2 12 -12v-6q0 -12 -36 -12v-18q36 0 36 -11v-6q0 -12 -36 -12v-24q36 0 36 -11v-6q0 -12 -12 -12h-47q-12 0 -12 12v106q2 12 12 12zM712 130h18q11 0 29 -59h6q0 29 29 59h18q13 0 29 -124l-11 -6h-12q-18 0 -18 65l-41 -65q-29 49 -29 65h-6
q-5 -65 -18 -65h-12q-12 0 -12 12q15 118 30 118zM871 130h12q11 -2 11 -12v-106q0 -12 -11 -12h-12q-12 0 -12 12v106q2 12 12 12zM930 130h12q11 -2 11 -12v-71q0 -8 18 -18h6q8 0 18 18v71q1 12 11 12h12q12 -2 12 -12v-83q-21 -35 -53 -35h-24q-35 13 -35 59v59
q2 12 12 12zM1083 130h12q19 0 29 -59h12q12 59 29 59h18q17 0 24 -130h-18q-16 0 -24 65h-6q-14 -65 -29 -65q-13 0 -29 65h-6q-6 -65 -24 -65h-18v6q10 124 30 124zM512 106v-29h11q12 0 12 11q0 9 -17 18h-6zM394 100v-18q2 -11 12 -11q11 6 17 6v11q0 12 -11 12h-18z
" />
    <glyph glyph-name="l" unicode="l" horiz-adv-x="657" 
d="M115 1433h4q10 0 50 -168q56 -134 78 -251l-10 -4q-44 27 -50 27q5 -45 5 -68v-50h-5q-33 27 -59 27v-123q32 -9 32 -18v-32q0 -31 -32 -31v-60q28 -20 28 -31q-10 -127 -10 -141q-4 0 -4 -5q27 0 27 -36q9 0 9 -23v-5q-50 -27 -50 -32v-91q19 0 91 -18v155h-4
q-15 -9 -28 -9q0 4 -22 68v5q80 36 95 36h23q27 -27 45 -27h19q29 0 50 27h31q60 0 105 -82q-12 0 -50 -45h-4l-10 4v-50q-109 -75 -109 -168q9 -41 41 -41h9q41 0 50 77q40 59 123 59q18 -21 18 -54q-6 -33 -118 -205q-22 -50 -59 -50q-55 13 -55 50v14q0 25 50 100v4
q-16 -9 -36 -9h-27l-14 9q-15 -9 -27 -9h-14q-11 0 -41 9q55 -83 55 -100v-18q0 -37 -55 -50q-44 0 -118 146l-14 13v-150q0 -9 -9 -9h-4q-10 0 -10 9v182q0 7 -27 68q5 24 27 55v91q-45 0 -45 27q14 246 41 246h4v64q-23 0 -31 40q8 41 31 41v601q2 9 10 9zM333 773h23
q86 -25 86 -86v-41q-28 -77 -86 -77q0 -5 -23 -5q-96 29 -96 96v18q23 95 96 95zM260 691v-4q21 -36 82 -36q77 9 77 36h-4q-35 -27 -77 -27q-39 2 -78 31zM533 469h5q62 -79 68 -119q-7 -36 -41 -36q-127 -14 -127 -127q-8 0 -28 -10q-41 0 -41 41q0 107 119 155q8 5 18 5
q0 14 -18 36v5q21 33 45 50z" />
    <glyph glyph-name="m" unicode="m" horiz-adv-x="1274" 
d="M758 1425l5 -10v-4q-19 0 -48 -29q-19 10 -34 10q-9 -5 -14 -5l-5 9l24 15q16 -5 33 -5q0 12 39 19zM624 1344h14v-10q-17 0 -43 -29l-24 5h-33v5q5 14 28 14q9 0 24 -9q7 24 34 24zM734 1301q9 -5 14 -5v-10q-38 -8 -38 -28h-5q-4 0 -38 9l-19 -5v5q0 7 14 15h14
q11 0 20 -5zM346 1114q50 0 96 -67q86 -38 86 -76l-14 -10h-29q-55 0 -143 62v-4q16 -20 86 -72q0 -31 -91 -53q-110 22 -110 115q0 73 91 105h28zM911 1019q0 -23 162 -67v-5q-13 -17 -153 -77v-277q29 0 29 -10v-4q-3 -15 -38 -15h-15q-35 0 -38 15q0 6 14 14h29v416
q2 10 10 10zM203 918h5q72 0 72 -91q-10 -30 -10 -38h-10q-16 86 -62 86q-32 -8 -43 -33v-5q0 -50 72 -225l-5 -48l77 -244q-29 -301 -48 -301q-26 -19 -48 -19q-34 0 -57 57l28 254q-54 174 -67 182q-57 34 -57 86v19q0 160 72 277q41 43 81 43zM203 866q35 0 67 -125
l-72 -24q-38 76 -38 120q12 29 43 29zM275 727l124 -263q0 -26 -24 -38h-19q-34 0 -86 124q-43 83 -72 158q27 19 77 19zM882 631v-9h-57q-311 0 -388 -48q13 -35 378 -48q363 13 373 48q0 22 -215 43h-34v9h15q200 0 244 -47v-10q0 -48 -388 -62q-363 14 -363 38
q-24 10 -24 38q57 48 421 48h38zM413 454q199 -174 464 -392l10 -5q30 14 72 43h9q34 -25 34 -52v-5q0 -26 -106 -33q-6 22 -114 105q-337 269 -388 315q10 22 19 24z" />
    <glyph glyph-name="n" unicode="n" horiz-adv-x="936" 
d="M151 1436h31q114 0 114 -19v-447h31v334q0 12 19 12q111 7 132 7l19 -26v-12q-17 -32 -50 -32q-55 7 -95 7v-277q2 -13 13 -13h38q14 0 31 183h139q10 0 25 -26v-12q-19 -32 -50 -32q-76 13 -95 19q-13 -89 -13 -132h70q26 0 31 -132q1 -35 252 -259q76 -99 76 -170
q0 -147 -284 -277l-6 -12v-26l6 -37q0 -57 -176 -57h-113q-158 0 -158 63v25q-69 22 -69 69v259q0 58 82 75q0 32 6 95q-50 24 -50 63v75q0 32 56 76v6q0 13 7 139q26 25 50 25h19q-32 218 -44 252q-86 -13 -114 -13q-31 9 -31 44q0 26 120 26h44q12 -56 50 -309h6v409
q-79 -12 -94 -12q-44 15 -44 25v25q0 9 19 19zM548 743q0 -25 -7 -25l7 -13q18 -409 31 -529q239 109 239 240q0 123 -264 315v12h-6z" />
    <glyph glyph-name="o" unicode="o" horiz-adv-x="1010" 
d="M384 1432h16q12 0 60 -152q32 -67 52 -144h4q6 0 12 12q0 8 -60 148q-25 46 -36 108q6 17 20 24h12q35 -60 60 -172q7 0 36 -104h4q7 4 16 4q-30 57 -32 84q0 47 128 88q32 -12 32 -56h24q10 0 16 -32v-28q0 -13 -80 -28q-12 -15 -12 -28v-4q32 0 32 -56q16 0 20 -24
q-6 -16 -12 -16l40 -124q30 0 80 -160q0 -65 108 -312v-8q0 -56 -152 -124q-28 -12 -28 -16q0 -20 12 -20l-4 -16q0 -20 8 -20q52 36 68 36h36q100 -26 100 -100v-32q0 -116 -84 -160h-52q-72 0 -108 60q0 28 -4 88l4 48q-12 64 -24 64q-17 4 -36 48q-44 20 -164 56l-12 20
q-11 0 -192 -100h-4v-24q-9 -84 -68 -84q0 -8 -20 -8q-132 22 -132 72q-4 6 -8 44q23 160 84 160q0 4 12 4h20q112 0 112 -108l92 56q36 108 36 136q-25 0 -32 40v24q0 6 16 16h16l24 -20q12 51 16 60q-8 63 -8 128q-21 0 -32 128v8q0 9 20 12q0 16 -56 168v24
q-28 -20 -52 -20q-28 0 -28 52v4q7 48 44 48h60v4q0 31 -36 48l-20 -4q-128 28 -128 44v20q0 22 16 28h24q114 -22 152 -48v4l-36 108v16q1 8 8 8zM388 1424v-4h12v4h-12zM452 1416l-4 -16q16 6 16 12v4h-12zM388 1408v-4q44 -144 64 -144v-8h4v4q-49 144 -56 152h-12z
M448 1396v-4q0 -18 56 -160h8q8 0 8 12q-30 113 -52 152h-20zM240 1332l-8 -28v-8q107 -28 128 -28l4 36l-120 28h-4zM564 1232q0 -15 48 -116v-8q-4 -7 -4 -16q6 0 20 24q-15 32 -24 80q0 72 88 72q0 4 4 12q0 21 -24 36q-108 -46 -108 -68v-16zM252 1308l84 -24v-8h-4
q-80 15 -80 28v4zM376 1292l-4 -16q52 -33 52 -72q-28 -88 -28 -104l4 -20h16q7 0 16 68q15 16 28 56q-39 88 -84 88zM672 1296q8 -1 8 -8v-8h-4q-8 0 -8 8q-59 -29 -76 -32v4q49 36 80 36zM700 1260v-4h8v4h-8zM616 1196l24 -84h8q0 9 4 16q-8 13 -8 24v8q0 44 88 52l4 8
v12l-4 20q-92 -15 -92 -48v-8h-8v24q17 28 52 28v4h-16q-37 0 -52 -56zM468 1224l4 -20q-4 -28 -4 -32q26 -62 32 -64q0 9 4 16q-12 30 -32 100h-4zM516 1216q24 -57 24 -68h4v12q0 17 -20 64q-8 -1 -8 -8zM316 1176v-60l20 -4q56 24 56 40l12 24h-4q-65 0 -68 -36v-16h-8
l-4 20q0 33 84 44v4h-16q-9 0 -16 -4q-7 4 -16 4q-40 -5 -40 -16zM456 1160q0 -8 -12 -28q20 0 32 -72h20q-20 89 -40 100zM512 1104q0 -9 24 -48h12q48 10 48 48v8l-4 28h-24q-56 -5 -56 -36zM580 1136l4 -8q-52 -21 -52 -32q8 -13 8 -24h-4q-6 0 -12 12v20q3 16 56 32z
M664 1128q-32 -104 -136 -104h-56q0 -7 12 -36h24q56 0 140 64l16 -4q18 7 28 24v8q-20 3 -20 12v36h-8zM440 1124v-32q20 -36 24 -36v8q-12 60 -24 60zM548 1044q-60 4 -84 4v-8q12 0 12 -4l8 4l40 -8q62 0 112 60v4h-4q-55 -52 -84 -52zM504 1080v-4q5 -20 12 -20h4
q-9 24 -16 24zM408 1068v-4q15 -20 40 -108h12q6 0 16 16q-36 85 -36 100q-22 -4 -32 -4zM656 1032q12 -28 12 -40h4q6 0 24 24q-3 28 -8 28q-28 -12 -32 -12zM636 1032v-20q16 -23 16 -32h4v8q-14 44 -20 44zM600 1004q20 -42 20 -48q16 4 16 16l-16 44zM580 996v-4
q20 -42 20 -48h4q0 8 4 8q-15 44 -24 44h-4zM588 928q-4 0 -4 4l-60 -52q5 -20 12 -20q73 65 148 84q20 29 20 40v4l-4 8q-44 -41 -88 -56q-4 -12 -24 -12zM504 972l16 -72q16 0 52 40h12q0 7 -16 44zM452 940l56 -164h20v20q0 23 -36 160h-4q-16 -16 -36 -16zM708 956
q0 -16 -112 -64q-46 -44 -60 -44q4 -8 4 -12q16 0 68 52l88 32l4 -8q-99 -33 -140 -84q-14 -4 -16 -4q12 -29 12 -36h8q46 56 120 80q36 22 36 60q-5 28 -12 28zM428 904q0 -110 52 -124h8q-20 79 -44 140q-16 -4 -16 -16zM728 916q0 -53 -92 -80q-80 -72 -80 -76
q48 -160 72 -208q89 -12 104 -12q47 12 56 12q12 -22 12 -36q0 -36 -84 -36q0 -43 20 -152q172 74 172 116v16q-104 241 -104 304q-41 135 -72 152h-4zM716 836h8q56 -155 68 -168q0 -20 44 -152h-4q-26 35 -52 140q-64 169 -64 180zM504 828h8v-8h-8v8zM660 820h8
q27 -60 40 -132q28 -48 28 -76v-8h-8q-52 151 -52 172q-7 0 -16 40v4zM456 776q8 -19 12 -76h4q16 49 16 64q-3 0 -32 12zM536 760q52 -224 80 -256l4 8q-76 227 -76 248h-8zM592 764h8q35 -130 48 -136q8 -10 8 -16l-4 -8q8 -13 8 -24v-4h-4q-9 0 -20 48q-11 0 -44 140z
M520 752q-12 -57 -48 -176l100 -16q-45 191 -52 192zM500 748q-108 -353 -108 -364v-8h4q44 129 108 368v4h-4zM524 652v-28l-4 -20h-8v16q0 30 12 32zM404 596q-4 -12 -8 -12q13 -40 28 -40q12 34 12 36zM468 564q-8 -20 -8 -32h8q33 0 120 -16q-12 27 -12 32h-12
q-26 0 -96 16zM628 536v-4q8 -16 8 -24h16q29 0 68 -12h4q60 0 60 28q-4 8 -4 12q-16 -8 -44 -8h-16q-24 0 -92 8zM456 516q0 -10 -32 -96h4l52 24l-4 8v4q0 20 -4 60h-16zM488 512q8 -53 8 -56q49 35 56 48v4l-48 4h-16zM576 504q-55 -58 -88 -68v-4h8q4 12 24 12h4
q-2 -9 -108 -72v-4q127 60 188 96h8l-8 20q-32 -15 -56 -32h-4q-8 0 -8 8q60 35 60 40zM620 496v-8q60 -208 80 -208v4q-16 25 -76 212h-4zM640 496v-4q48 0 48 -36l40 -192q-8 -1 -8 -8q8 -48 16 -48l8 28q-28 116 -52 252q-25 8 -32 8h-20zM868 480h4q8 0 12 -28
q-8 -25 -20 -28l-4 8l12 16q-4 22 -4 32zM668 472l12 -60h4v12q0 12 -12 48h-4zM508 396v-8q8 -12 100 -32q0 -4 40 -28h8v4q-40 100 -40 120zM656 452v-8h4v8h-4zM760 452h4q10 0 16 -32v-16h-8q-4 31 -12 48zM800 452h4q11 0 16 -40h-4q-9 0 -16 40zM412 384h4
q47 36 60 36v4h-4q-60 -22 -60 -40zM228 416q20 -22 20 -48v-12q0 -8 -8 -8l-8 4v-8q4 -8 4 -12l8 4h4q16 -12 24 -12l4 8v8q0 76 -44 76h-4zM192 400q36 -8 36 -36h4v4q0 40 -32 40q-8 -1 -8 -8zM156 320v-12h4q0 35 28 60q0 -4 4 -4q-28 -64 -28 -96v-4q0 -13 12 -28
q0 -8 -8 -8q-20 10 -20 36q4 29 8 36v4h-4q-8 -28 -8 -44q3 -44 16 -44h12q22 0 28 16v20h8v8h-28q-8 0 -8 8q1 8 8 8h20v8q0 21 12 36q-21 0 -24 12q11 20 16 20l16 -12q-8 44 -28 44q-23 0 -36 -64zM812 388v-4q0 -7 -52 -24h-4v8q45 20 56 20zM248 296v-8q1 -8 8 -8h4
q8 0 8 20h12l20 4l-4 8q23 23 80 48v16h-4q-59 -35 -116 -80h-8zM216 284v-8q6 0 16 -12h16v4q-16 0 -16 32q13 12 20 12v4h-20q-10 0 -16 -32zM208 192h-8q-8 0 -8 8q16 8 24 24v4h-4q-7 -28 -48 -28q0 -10 32 -16h4q43 0 64 72l-28 -12q0 -33 -28 -52zM884 252
q40 -72 40 -88v-32q0 -45 -60 -108v-8h12q20 11 20 16q-12 0 -12 8q48 36 48 100q0 47 -28 92v8h8q21 0 36 -100l-4 -20v-12h4l4 48q0 81 -52 100q-7 -4 -16 -4zM860 232v-8q6 -44 20 -44q1 8 8 8q0 25 -20 44h-8zM832 184h16l-4 20q-9 0 -12 -20zM824 168q0 -13 -4 -20
q24 -5 24 -20h4q0 10 16 40h-40zM864 124v-20q0 -6 12 -12q15 0 28 68q-10 8 -16 8q-19 0 -24 -44zM820 132v-24q6 0 12 12v4q0 8 -8 8h-4zM844 116q0 -20 -28 -32q4 -7 4 -16q20 12 32 12h8v-12q0 -15 -16 -48q4 0 32 52v4q-28 0 -28 40h-4zM820 52q5 -20 12 -20q0 12 8 28
h-4z" />
    <glyph glyph-name="p" unicode="p" horiz-adv-x="1464" 
d="M710 1431h46q128 0 220 -116v-7q0 -10 -16 -70q0 -54 -46 -54q-69 44 -104 58q-41 12 -70 12h-15q-75 0 -174 -70h-3q-47 0 -47 77q-9 0 -11 47v11q97 112 220 112zM702 1392q0 -9 31 -11l27 4v7l-27 4q-21 -4 -31 -4zM528 1250v-8q0 -28 12 -31h11q96 70 182 70
q84 0 181 -70h15q8 29 8 35q-77 96 -204 96q-121 0 -205 -92zM501 1053h4q193 -144 224 -185q-4 -8 -4 -12h8v20q14 18 166 135q45 42 61 42q159 0 270 -116q178 -152 178 -169v-4q-17 -62 -139 -209h-12q-103 47 -173 101h-8v-641q-6 -15 -27 -15h-640q-27 0 -27 27v633
q-127 -87 -185 -105q-23 0 -128 166q-15 30 -19 35v15q35 43 208 193q96 89 243 89zM440 995q54 -62 181 -224h4q0 7 50 89q-180 147 -189 147q-46 -2 -46 -12zM964 1007l-177 -147v-4q49 -88 54 -88q58 88 177 227q0 12 -54 12zM143 798q45 -84 115 -165q125 84 147 96
q23 -8 23 -31v-652h602q0 12 4 12l-4 27v613q0 23 23 31l146 -93h4q83 99 112 166q-201 185 -243 185q-126 -149 -227 -285h-16q-14 10 -85 131v-23l4 -23q0 -4 -4 -4l4 -19v-147h4q0 19 27 19q19 -5 19 -27v-7q-6 -16 -27 -16q-19 7 -19 20h-4v-8l4 -8q-6 -31 -15 -31h-12
q-6 0 -12 12q-3 166 -3 254q-74 -123 -78 -123h-15q-17 12 -112 143q-101 124 -119 142q-45 0 -243 -189zM100 756l100 -147q12 0 31 12q-44 59 -108 158q-5 0 -23 -23zM1331 779q0 -15 -105 -158q20 -12 31 -12q75 100 101 155q-4 0 -24 15h-3zM767 721h16q6 0 15 -15v-16
q0 -6 -15 -15h-19q-6 0 -12 12v19q0 6 15 15zM509 617h127q8 -1 8 -8v-104q0 -55 -77 -61q-55 0 -66 69v96q1 8 8 8zM532 586v-73q0 -36 50 -39q21 8 31 27v85h-81z" />
    <glyph glyph-name="q" unicode="q" horiz-adv-x="1778" 
d="M1282 1412h12q6 0 16 -16v-1196q0 -8 -8 -8h-28q-8 0 -8 8v884q-82 0 -236 -76q-58 -12 -72 -12q-89 0 -104 56q-32 66 -32 196v12q0 52 8 72q61 -28 116 -28q38 0 192 60q30 8 56 8h16q26 0 56 -8v32q0 6 16 16zM1134 536q104 -6 104 -16v-260q0 -7 -48 -20
q-20 -19 -20 -28q19 -44 100 -44q71 0 88 48l-20 24v260l4 8q384 -92 384 -228v-12q0 -141 -404 -232q-182 -36 -356 -36h-96q-365 0 -696 160q-124 75 -124 132v16q0 104 400 144q450 8 492 40q121 44 192 44zM746 252v-8q0 -40 56 -48q44 14 44 48v8q0 40 -52 48
q-48 -12 -48 -48z" />
    <glyph glyph-name="r" unicode="r" horiz-adv-x="692" 
d="M119 1429h4q12 0 35 -24q6 -3 356 -254h2q0 7 10 9h1q14 -11 14 -15l8 2h1q7 -9 11 -9q0 -2 2 -2h11q12 0 13 -19q8 0 21 -25q3 -6 3 -7q0 -13 -7 -43v-1l1 -6h-1l-5 4q-12 -10 -12 -28q-6 0 -8 -18q-17 -61 -50 -105q-12 -25 -22 -25q-15 2 -53 27q0 -5 13 -28
q16 -28 16 -43l-5 -18q9 0 12 -34q29 -19 29 -76v-5q-8 -31 -15 -80q-1 0 -3 -10q1 -22 1 -32q0 -27 -6 -44l1 -2v-7q0 -83 -15 -107q-2 -4 -2 -7v-2q0 -5 5 -36q-15 -47 -15 -52v-14q0 -53 -15 -139q-24 -76 -24 -107q7 -36 7 -42q-6 -5 -40 -5h-90q-34 0 -46 18q0 9 13 13
h2q2 0 19 -3q12 0 42 18q-7 21 -7 70q4 52 20 161v1h-2q0 -3 -36 -68q-43 -85 -51 -85q-9 0 -32 -21q-24 -24 -24 -80q-2 -11 -13 -11q-52 5 -52 22q-4 7 -8 37l5 50l-4 16v18q0 30 23 38h10l9 -1q16 10 16 27q42 117 46 125l28 30q-10 14 -10 35q-3 7 -8 36v16q0 24 7 62
q-1 8 -1 13v6q0 15 1 33q-6 43 -15 62q-5 28 -5 35q1 12 23 43l2 7q-6 3 -6 10v1q0 4 3 14q-26 11 -26 52v5q1 16 1 26q0 8 -13 59q0 16 -35 56q-9 11 -14 41q-11 22 -11 34v11q0 32 36 46q10 30 15 30l8 -2q-15 14 -23 25l-4 -2h-2q-2 0 -9 19q-2 1 -5 16q-3 3 -9 4l-1 2v5
h1l4 -2v4q0 2 -13 5l-1 2v2q0 6 8 18q-1 10 -1 17q0 45 55 51q11 1 13 1q17 -4 19 -6q13 -20 16 -20l14 -25q11 0 16 -33q-3 -8 -10 -8v-3q21 -60 27 -60q8 0 22 -16q21 -10 68 -17q22 -8 38 -32h2q26 8 58 38v4q-3 2 -3 4q6 34 12 40q-316 230 -374 271q-28 -28 -41 -28
q-15 3 -15 14v7q9 26 39 26zM556 1074q0 -9 -26 -19q-45 -47 -47 -47v-1q6 -9 6 -19h6q18 -15 21 -27q35 38 42 74q0 1 7 10l-2 5l2 8q0 7 -6 16h-3z" />
    <glyph glyph-name="s" unicode="s" horiz-adv-x="1545" 
d="M744 1428h79q550 0 550 -44q13 -22 13 -30q-21 -9 -52 -9v-4q9 -69 9 -118v-57q0 -38 -92 -135v-27h57q70 0 70 -13v-22q0 -8 -9 -8h-39q-14 -13 -31 -13q0 -93 -31 -114v-17l13 -18v-35h53q113 -7 113 -61q18 -40 22 -92h-4q-42 26 -57 27v-5q53 -39 53 -87v-4
q0 -144 -97 -166q-7 -5 -17 -5q-39 0 -79 48h-4q-289 -128 -441 -179q-13 0 -83 96q-13 0 -13 5l-31 -18q19 -28 27 -83q0 -131 -136 -231q-39 -9 -57 -9q-95 0 -183 114q-9 15 -9 39q0 23 26 122l-78 44h-5q-23 -74 -83 -74h-30q-78 0 -118 113v44q0 82 87 126l-17 22
q18 70 109 153q48 303 87 607h-26l-13 9q34 72 467 109zM954 1319q-4 -72 -4 -109v-44q0 -11 69 -122l9 -35q5 0 5 4l26 -4q41 0 170 -5l-4 9q0 18 87 122q9 16 9 35v131q-6 44 -18 44q-249 -13 -349 -26zM356 1319q-30 0 -40 -153q-17 -165 -65 -450q90 79 109 79
q24 4 39 4q94 0 254 -57q13 0 43 581q5 0 5 5h-5q-245 -9 -340 -9zM723 1319l-5 -22l-26 -472v-4h4q0 36 66 74h22q6 0 13 -13v-44h4l22 27q0 18 -48 83q-4 7 -4 17v18q24 26 52 26q41 -9 57 -18q10 22 43 22h79q0 32 -66 122q-8 16 -8 35v149q-5 0 -13 -5q-111 -4 -149 -4
q-11 0 -43 9zM792 974q0 -24 22 -35q10 26 18 26h26q9 0 9 -13h4v13q-26 18 -52 18h-18q-9 -2 -9 -9zM701 786v-4q83 18 83 39v61q-31 0 -83 -96zM980 869q23 -52 31 -52h8q0 13 5 30q0 20 -44 22zM819 808v-4h4q22 0 122 17v26q-45 5 -74 18q-23 0 -52 -57zM1046 856l4 -9
v-35q35 0 61 -43q18 -5 53 -5l8 79q-94 13 -126 13zM971 852v-35h18v4q-13 22 -13 31h-5zM1203 838v-4q17 -31 17 -39q7 0 18 17v18q-8 0 -35 8zM1194 817v-57q9 2 18 22q-13 24 -13 35h-5zM1229 769q4 -9 4 -14h9v22z" />
    <glyph glyph-name="t" unicode="t" horiz-adv-x="815" 
d="M476 1433q17 0 62 -103q42 -31 159 -61q31 -21 31 -47q0 -27 -36 -41q15 -63 15 -82q0 -41 -51 -41q0 5 -5 5v-5q41 -105 82 -226h-5q14 -62 21 -164q-57 -188 -57 -293q-53 -245 -62 -247h-10v-15q-10 -37 -10 -41v-36q-22 -36 -93 -36q-27 0 -51 26v5q10 18 67 51
l-5 10v6q21 0 30 46q-15 0 -15 10v5l31 355h-10q-36 -88 -93 -149q-88 -165 -92 -165h-26v-20q0 -44 5 -129l-10 -5q-87 0 -87 149l-16 21v20q0 36 57 52q54 151 113 205q14 42 25 118q-5 9 -5 21v15l5 10q-10 0 -10 11v5q0 36 41 169h5q-5 10 -5 16l5 10q-20 67 -51 134
q5 0 5 5q-11 2 -41 108q-6 0 -10 20l5 31q-224 -181 -288 -252q14 0 21 -41q-4 -26 -16 -26h-10q-41 0 -41 42v5q0 28 72 66q105 95 277 237v5l-5 31q17 10 26 10q-34 39 -52 87q-5 0 -10 16q31 87 118 87zM564 1228h30v15q-30 -5 -30 -15zM548 1238v-5h10v5h-10z" />
    <glyph glyph-name="u" unicode="u" horiz-adv-x="716" 
d="M632 1431q31 -3 31 -15v-6h-6q-16 11 -30 11q-181 -158 -227 -191l5 -36v-10q-8 -47 -46 -82q20 -8 20 -16q-5 -10 -5 -15q41 -39 41 -108v-11q0 -24 -41 -123q0 -16 -20 -31q5 -10 5 -16h-5q51 -115 51 -164q0 -91 -20 -196q0 -26 82 -87q22 -48 93 -129q87 -12 87 -26
q-20 -159 -82 -159h-11q-7 0 -15 15v10l15 21q-38 123 -175 211q-103 82 -103 93q-10 0 -10 -16q0 -11 16 -62q-6 -129 -6 -205v-16l16 -21v-36q-5 -15 -31 -15q-87 0 -87 21v10l25 41h11v10q0 27 -36 227l-6 72q-30 0 -30 26q-26 194 -26 262l10 36q-16 0 -36 62
q15 26 46 160q-5 0 -5 5l-10 -5h-5q-62 13 -62 61v11q0 48 93 61q68 42 87 42q0 2 -20 25q3 31 15 31l-5 10v6q0 5 5 5l-5 10v16q15 0 15 10q-31 20 -31 26v15q0 10 16 10q33 -10 41 -10q45 15 67 15q26 0 62 -36l226 196h16z" />
    <glyph glyph-name="v" unicode="v" horiz-adv-x="1722" 
d="M499 1428h50q792 -26 792 -62q12 -21 12 -32q-25 -12 -37 -12q6 -137 6 -206l-68 -131q37 -39 37 -87q-6 -12 -6 -19h6q368 -42 368 -56l-6 -31v-44q0 -20 -212 -31v-12q54 0 74 -156q-34 -11 -49 -31q43 -70 43 -106v-44q-30 -156 -206 -156h-6q-78 0 -112 137v6h-44
q-29 0 -106 19q-395 -50 -436 -50l-13 6q-45 -24 -50 -24q-37 0 -37 87v6l6 13h-6l-62 -7v-6q99 -85 99 -181q0 -181 -224 -218h-25q-168 0 -193 200q0 53 25 99q-69 45 -69 113v43q0 59 100 119v6q-25 33 -25 56q0 34 149 150l69 524q-44 10 -44 24v13q98 81 200 81z
M1041 1278v-137q0 -23 57 -143q0 -9 25 -31q33 18 56 18l56 -6v19l62 137q0 97 -12 181zM356 1310v-7q-44 -318 -63 -511q74 42 131 56q0 34 50 455q-73 7 -106 7h-12zM493 1297l-50 -461q81 -32 81 -100l44 -25l12 19l-50 187q-37 6 -37 18q32 25 68 25h13q12 -2 12 -12
v-25q-12 0 -12 -6l31 -156q131 123 131 162q-8 39 -31 68v19q2 13 12 13h13q128 -76 162 -162q6 -13 6 -19v-50q34 -6 56 -6h69v50q-69 36 -69 74q0 81 119 81q-56 133 -56 150v106l6 31q-62 -6 -94 -6h-75q-17 0 -87 25h-274zM842 1303v-12h75v12h-75zM730 998v-7
q2 -12 12 -12h6v12q-6 0 -18 7zM829 904q2 -12 13 -12v12h-13zM617 723q18 -124 50 -124v-13l-6 -12h31q13 0 13 12q0 13 -6 13l6 43v56l-6 38q0 6 124 131v6q-43 0 -43 12q-39 0 -163 -162zM848 867l-68 -75q106 4 106 31q-7 25 -7 44l-12 -6h-6zM536 636q36 -81 44 -81v6
q-12 15 -12 25q0 27 37 31l-19 75q-12 -2 -50 -56zM586 580q2 -13 13 -13l6 13h-19zM374 443v-19q2 -12 13 -12q52 18 118 25q-8 25 -31 37q-100 -13 -100 -31z" />
    <glyph glyph-name="w" unicode="w" horiz-adv-x="786" 
d="M300 1433h24q28 0 92 -42q26 5 37 5l5 -9v-5q-6 -51 -32 -51q0 -15 55 -46q16 -17 28 -75l-5 -23v-46q12 -79 38 -79q65 -60 92 -60l10 4h4q61 -5 61 -46q-16 -60 -61 -60q-46 45 -46 97l-74 60q37 -147 37 -171v-10q-10 -67 -10 -74q14 -41 14 -55v-61
q-18 -178 -41 -320v-125q0 -27 -5 -74q10 -79 37 -79q0 -14 56 -46l4 -19q-7 -18 -13 -18h-154q-9 0 -9 9v18q0 43 19 61l-47 213q0 9 14 97q-264 -237 -264 -292l-65 -88l5 -9v-5q0 -9 -10 -9h-27q-7 0 -14 14v88q0 9 14 9v42q-19 0 -19 9v51q0 13 9 28l98 -9
q45 112 139 190q29 0 46 70v37q-37 108 -37 148q-5 33 -5 84l19 64q-8 21 -23 130q-69 90 -79 149h-5q0 -14 -9 -14h-9q-10 0 -10 14h-4l-14 -10q-28 0 -51 42q-42 0 -42 47q0 29 37 134q-4 26 -4 37q0 33 37 33q23 -10 23 -14l9 4h5q16 -16 42 -27q0 69 78 83zM166 1294
l-9 -14v-14q0 -49 14 -60l46 4h28l9 -4v4l-9 14q0 12 18 14v5q-19 0 -27 23l4 9l-56 19q-8 -5 -13 -5q0 5 -5 5z" />
    <glyph glyph-name="x" unicode="x" horiz-adv-x="606" 
d="M480 1431h21q39 0 39 -34q0 -30 -30 -30h-17q-14 6 -26 34q-80 -54 -127 -98q50 0 72 -64q17 -19 17 -21q0 -8 -8 -8q0 4 -5 4q-4 -23 -4 -26l4 -8q-4 -8 -4 -17v-5l17 -4q32 9 43 9q64 0 64 -115q8 0 8 -22l-8 -29q-5 -185 -5 -201q9 -38 9 -55q17 0 17 -13l-13 -21v-89
q0 -58 -43 -158q5 -23 5 -38v-22q0 -6 -43 -25q-53 -105 -81 -175q43 -6 43 -17v-17q-7 -17 -30 -17h-17v-4q0 -14 4 -21l-4 -30q0 -47 34 -68v-17q0 -9 -9 -9h-68q-31 0 -42 64q-47 41 -47 72v22q-21 0 -21 12q6 73 34 73q43 60 68 128q47 39 47 51l-5 21l5 43
q-32 72 -56 102q-17 32 -17 59h-51q-8 0 -8 9v51l-30 213h-4q-16 0 -103 8l-8 -4q-25 0 -47 30v9q0 29 60 153q-26 8 -26 17v8q0 31 64 69q0 4 4 4h9q8 0 8 -13h5q127 89 298 217q0 13 8 13zM199 1201l4 -8l-12 -18l4 -25q-4 -8 -4 -13h4q32 0 76 9q20 -9 39 -9
q-3 30 -26 30q-13 26 -13 34v4q2 9 9 9l-4 21v21h-5q-68 -55 -72 -55zM156 1095q-17 -43 -17 -52q9 0 9 -12h4q23 34 68 34q0 4 9 4v9q-64 17 -73 17z" />
    <glyph glyph-name="y" unicode="y" horiz-adv-x="868" 
d="M666 1431q68 0 107 -77v-41q0 -18 -20 -41v-51q0 -11 -10 -11q-11 0 -16 41l-66 -35l-31 5q-17 -36 -57 -36q-10 5 -15 5v-5l15 -21v-15q0 -77 -56 -190q-10 -41 -10 -51v-16q20 -61 20 -102q0 -5 -5 -5q10 -73 41 -118q0 -13 -10 -67q179 -415 190 -451v-26h61
q8 0 16 -15q0 -8 -16 -16h-87q-10 0 -10 11v5l20 20v16q-175 427 -195 446q-30 0 -30 25q-21 0 -36 26v26l5 25q-41 24 -41 98q-26 77 -46 102q-37 -15 -67 -61q0 -21 51 -103l5 -51q-10 -33 -10 -41q0 -36 10 -36q0 -67 -41 -190q-5 -98 -15 -174q0 -144 118 -144
q0 -28 46 -41q10 -16 10 -25q-30 -26 -61 -26q-231 0 -231 31q0 6 -31 25v11q0 25 41 107q5 49 5 93v51q0 6 -10 56v6q0 19 21 107q0 43 -16 87h-56q-7 8 -62 16q0 33 -51 323v5q0 109 169 359q84 123 205 123l62 -20l31 5h5q15 0 15 -21z" />
    <glyph glyph-name="z" unicode="z" horiz-adv-x="882" 
d="M191 1433q21 0 51 -28q24 0 56 -42q60 -19 75 -19q36 84 84 84h18q33 0 70 -46q56 -5 56 -28q-17 -41 -28 -42h-32v-5l9 -14v-5q-11 -10 -28 -56q65 -34 65 -88q-14 -43 -37 -80l177 -163h5q33 0 52 9q29 -9 32 -23v-14q0 -31 -42 -56h-5q-84 103 -219 233v5h-5
q-18 -40 -51 -266q19 -43 19 -80v-9q0 -131 -47 -224q5 -48 5 -75v-9q-10 -68 -10 -75v-107q24 -18 33 -84q72 -51 89 -51q32 -11 32 -19v-5q0 -20 -93 -23h-103q-60 0 -60 37v19l9 14q-30 0 -51 145q-56 -53 -108 -126q-12 0 -28 -70l5 -10v-28q0 -9 -14 -9q-89 9 -89 65
q5 19 5 33q-12 0 -28 56v9q133 169 219 332q0 9 -23 257v4q0 36 23 84q5 50 10 61q-5 8 -5 19q11 63 19 74v5q-27 89 -42 89q-31 14 -94 28q-37 50 -37 65v5q0 56 42 177q-5 25 -5 42v5q0 6 24 23zM214 1340q-14 -73 -14 -98v-14h9q44 0 80 4q46 -3 46 -9q7 5 28 5v4
q-44 53 -93 89l-9 -5h-5l-28 24h-14zM326 1293v-5l51 -46l10 14q-6 0 -61 37z" />
    <glyph glyph-name="braceleft" unicode="{" horiz-adv-x="839" 
d="M528 1433q59 0 84 -37q19 0 19 -38v-14q150 -33 150 -103q-103 -92 -103 -108q0 -28 -33 -32q42 -122 42 -249v-61q37 -109 51 -229q0 -19 -46 -23q-13 -202 -52 -305q-19 -48 -19 -75q18 -57 61 -117v-14q-18 -19 -61 -19q-47 0 -47 52q-37 16 -37 23q5 94 28 94v28
q0 24 5 70q-88 -51 -150 -121q5 -9 5 -19q-61 -62 -61 -127l-14 -9h-10q-56 0 -56 187q3 52 38 52q14 0 65 -19q143 173 183 173l4 24q-10 79 -37 79q-14 0 -14 33q-4 0 -28 -19h-9q-15 0 -15 29h-4l-10 -5q-14 20 -14 108v51q0 11 5 19q-9 15 -9 28t32 61q0 33 5 33l-5 9
v14l10 14v5l-10 14v4q0 10 19 10q-33 134 -75 182l-4 29q9 0 9 9l-9 5h-10q-88 -159 -281 -431v9l267 426l-5 10q17 0 24 51q-23 -33 -28 -33v10l9 18h-5q-15 -9 -23 -9v9q42 0 42 99q22 140 75 140q17 5 52 5zM649 1278q10 -17 10 -42h4q12 10 19 10v4q0 7 -28 28h-5z
M111 693h5v-9h-5v9zM102 679h4v-9h-4v9zM97 665v-9l-19 -28q56 -31 56 -85v-4q0 -7 -18 -15q-40 0 -66 47v28q0 20 47 66z" />
    <glyph glyph-name="bar" unicode="|" horiz-adv-x="740" 
d="M499 1433q68 0 76 -95v-42q24 -27 24 -47l-10 -5h-5l-23 19h-10q0 -29 -19 -29v-9q142 -40 142 -71v-28q-7 -19 -33 -19h-5q-23 12 -23 38v4q0 13 9 29q-12 9 -104 42l-5 -9q43 -25 43 -62v-14q0 -19 -118 -194q0 -52 -62 -156q0 -11 -4 -19q61 -27 61 -47l-5 -47
q81 -190 81 -275q-15 -39 -114 -170l5 -19l-5 -33q8 -31 38 -38l5 -9v-14q0 -19 -71 -24q0 -22 76 -38l4 -24v-4q0 -21 -75 -24h-10q-33 0 -52 9q-9 0 -38 -9q-56 12 -56 24v33q37 79 37 156q0 100 38 189v9q0 5 -9 38q-16 0 -100 -9q-66 207 -66 255v66q0 39 24 86l-5 47
q13 3 33 61q19 0 38 123v5q-101 -39 -128 -43q-28 12 -28 29q0 54 71 250v10q-22 19 -24 33q13 33 48 33q14 0 75 -57q10 0 175 -56q22 21 33 99q14 52 71 52zM249 1315v-5q86 -33 104 -47q15 9 23 9q0 -5 5 -5v10q-18 0 -128 38h-4zM173 1286q-19 -29 -33 -94q80 55 80 61
v5z" />
    <glyph glyph-name="braceright" unicode="}" horiz-adv-x="657" 
d="M91 1425h4q8 0 41 -144q81 -225 81 -262v-13h-5l-54 27v-5q9 -58 9 -108q0 -9 -9 -9q0 16 -54 31v-121q24 0 32 -41v-4q-4 -36 -32 -36v-109q42 -13 63 -13q0 14 18 40q31 -8 45 -27q-14 -72 -72 -72q-21 0 -54 14v-149q0 -5 -4 -5l4 -9v-405h-22v572l-18 18v23
q0 2 18 22v100q-32 0 -32 45v9q13 27 32 27v595q1 9 9 9zM352 1006h23q81 -22 81 -91v-9q-18 -90 -90 -90h-18q-68 0 -86 99q21 91 90 91zM284 929q15 -32 68 -32h27q50 7 50 23v4h-5q-30 -22 -67 -22q-38 3 -68 27h-5zM330 798h49q108 0 149 -113q5 -7 5 -18l-46 -22
q-18 25 -18 36h-4q0 -33 -50 -36h-4q-10 0 -18 4h-5v-4l32 -9h18l-5 -41q0 -22 90 -194q-65 -22 -166 -40q-74 13 -163 40q90 164 90 194q-4 18 -4 36v5h14l31 9v4l-22 -4h-9q-20 0 -46 22h-4q0 -22 -14 -22q-45 18 -45 31q52 122 145 122zM537 658q18 0 45 -203
q-9 -20 -18 -22h-22q-8 0 -19 18q0 54 -31 189q34 18 45 18zM253 374q99 -19 99 -31v-307q-17 -36 -49 -36q-19 0 -41 36v235q0 45 -14 99q5 0 5 4zM465 374q0 -4 4 -4q-9 -23 -9 -81v-239q0 -39 -54 -50q-40 16 -40 45v298q7 14 99 31z" />
    <glyph glyph-name="asciitilde" unicode="~" horiz-adv-x="1333" 
d="M421 1444q62 0 135 -100l4 -30q-6 -18 -13 -18h-4l4 22q-52 109 -113 109q0 7 -22 8q-15 0 -43 -13v-4q126 -31 126 -70q16 0 43 -21q-4 -22 -8 -22l4 -9v-4q-36 -26 -48 -26q-8 4 -13 4v9h5l21 -5l9 13h-4l-44 -4l9 -13q-5 0 -5 -4h18q-25 -12 -31 -57q-12 -14 -60 -30
q-1 -6 -22 -18h-13q-6 0 -13 13l13 9h13v-9h-9v-4h13q0 7 9 17v5q-35 5 -35 17v4h17q35 0 35 -17h9q30 0 30 26h-4l-30 -4q-96 9 -96 30l9 13q-3 21 -40 48q-34 49 -34 52v5q0 56 78 56v-8h-9q-56 -10 -56 -44q9 -26 17 -26l18 13h34q11 70 39 70q11 17 57 17zM356 1409
q-13 -16 -13 -39v-17q68 8 78 8q23 -4 43 -4v4q-46 48 -108 48zM286 1340v-5l22 -4q11 9 17 9v4l-30 4q-9 -1 -9 -8zM378 1348v-4h21v4h-21zM386 1335v-4q23 0 52 -26q40 7 40 35h-5q-13 0 -52 -13v8h13v5h-26zM491 1331q0 -20 -40 -31l5 -8q17 8 30 8l31 -4l4 9h-4
q-8 -5 -18 -5l18 18v9q-14 4 -26 4zM286 1327q7 -18 13 -18q0 5 5 13zM317 1322v-22h4l4 22h-8zM378 1322q7 -17 30 -17h9v4q-27 13 -35 13h-4zM343 1318l-9 -13v-9q0 -10 65 -13q9 4 13 4v5q-42 5 -69 26zM412 1279v-5l22 -4h13q-4 8 -4 13q-18 -4 -31 -4zM343 1274v-4h39
v4h-39zM360 1261v-4l31 -4h21v4l-21 4h-31zM321 1253v-9q10 0 17 -4h5v4q-8 0 -22 9zM360 1248q0 -8 -13 -8v-5q52 -8 57 -8l30 4v9l-30 -5h-31q-9 0 -9 9q5 0 5 4h-9zM791 1213q8 -1 8 -8v-48q0 -9 -8 -9q-6 6 -9 61zM743 1187q0 -4 4 -4q-13 -24 -13 -48l18 13h8
q7 0 18 -17q-9 -26 -35 -26q-9 10 -9 26h-4q0 -39 -13 -39l-9 13l17 65v4l-8 -4l4 -9q-6 -18 -22 -26h-4q-6 0 -13 13v18q0 17 61 21zM234 1174q49 0 91 -61q79 -26 79 -60q0 -7 -13 -13h-22q-67 0 -139 56v-4q37 -39 56 -44q31 -21 31 -26q-33 -48 -70 -48h-30
q-83 27 -83 87v22q0 71 100 91zM634 1170h13v-22l22 5l4 -9q0 -9 -26 -13v-13l9 4h9q8 -1 8 -9q-26 0 -30 -34h-5q-4 8 -4 13h-13v-18h-13q0 13 -4 13q-9 -4 -13 -4l-5 9q14 8 22 8v13l-22 -8l-4 8q26 13 39 40q4 -8 4 -18q9 0 9 9v26zM699 1166q0 -5 -4 -13h9v13h-5z
M538 1144q20 -8 35 -31v-21q0 -8 -48 -31h-8q-7 0 -13 13q8 39 21 39h18q8 0 8 -21h5v21l-18 13h-13q-30 -18 -30 -56v-9l30 -8q23 0 48 26q9 -2 9 -9v-4q-32 -31 -65 -31q-35 0 -35 39q9 70 56 70zM752 1131v-9h8v9h-8zM799 1135q9 -1 9 -9t-9 -8q-8 0 -8 8q1 9 8 9z
M621 1113v-4h13v13h-4q-9 -1 -9 -9zM525 1096q0 -10 -4 -17h9v17h-5zM138 953h22q10 0 17 -70q4 0 40 43v5l-18 17l9 5h43q9 -2 9 -9q-7 0 -17 -18l39 -43q3 70 17 70h13q96 -28 96 -122q0 -61 -30 -105l-57 35q0 13 9 35h-9q0 -45 -83 -161l-17 17l-26 -4h-5
q-52 109 -52 148h-4v-17l4 -22q-55 -26 -65 -26q-13 35 -13 65v30q0 77 78 127zM317 752q46 -16 61 -39v-4q-36 -73 -105 -161h-9q-2 0 -39 52v5q61 77 92 147zM138 748q47 -113 135 -226v-9q0 -28 -39 -35h-4q-61 49 -105 135q-16 13 -48 100v5q0 10 61 30zM204 644h13
q8 0 13 -26l-9 -5q-17 7 -17 31zM338 631h9q26 -186 48 -444q0 -9 -9 -9h-8q-25 41 -53 157q-48 138 -48 170l5 8l-5 26q61 84 61 92zM108 613h4l92 -130q-24 -335 -53 -335l-30 -9q-44 0 -57 52zM269 487q74 -228 95 -317h79q17 -7 17 -31v-4q0 -24 -22 -35h-4
q-83 22 -83 44l5 8q-105 306 -105 322zM264 387h9l74 -235v-8l-9 -5q-61 0 -61 135zM430 370h826q9 -2 9 -9q0 -9 -9 -9h-826q-9 0 -9 9q1 9 9 9zM582 161q9 -1 9 -9t-9 -8t-9 8q2 9 9 9zM617 161q8 -1 8 -9t-8 -8q-9 0 -9 8q1 9 9 9zM652 161q8 -1 8 -9t-8 -8q-9 0 -9 8
q1 9 9 9zM682 161h4q9 -1 9 -9t-9 -8h-4q-9 0 -9 8q2 9 9 9zM717 161h4q9 -1 9 -9t-9 -8h-4q-9 0 -9 8q1 9 9 9zM752 157h4q9 -2 9 -9q0 -9 -9 -9h-4q-9 0 -9 9q1 9 9 9zM786 157q9 -2 9 -9v-4q0 -9 -9 -9l-8 13q1 9 8 9zM547 152h9v-8h-9v8zM821 152l9 -13l-9 -4q-9 0 -9 9
q2 8 9 8zM991 152q56 -8 56 -26v-9q0 -16 -56 -21q-52 5 -52 17v17q19 22 52 22zM847 139h13v-13h-4q-9 0 -9 9v4zM878 117h8v-8q0 -9 -8 -9q-9 0 -9 9q1 8 9 8zM1126 109h13v-9h-26q-6 0 -27 -30l-4 8q0 28 44 31zM904 96q8 -2 8 -9v-4q0 -9 -8 -9q-9 0 -9 9v4q1 9 9 9z
M1134 91q9 -1 9 -8q-23 -4 -39 -26l-4 8v5q11 21 34 21zM926 74h4q6 0 13 -13l-13 -9l-13 18zM1165 74q19 0 35 -31v-17q0 -6 -27 -26h-13q-23 0 -34 22v26q15 26 39 26zM952 57h13q8 -2 8 -9v-5h-13q-8 0 -8 9v5zM991 48h4q9 -2 9 -9q0 -9 -9 -9h-4q-9 0 -9 9q1 9 9 9z
M1026 43h8v-17h-8q-9 0 -9 9q1 8 9 8zM1060 39q9 -1 9 -9t-9 -8q-8 0 -8 8q1 9 8 9zM1086 35h9v-9h-9v9z" />
    <glyph glyph-name="exclamdown" unicode="&#xa1;" horiz-adv-x="837" 
d="M722 1433h21q26 -13 26 -42v-21q-15 -27 -58 -42q-3 -26 -15 -26h-6q-10 0 -10 10v6q0 40 63 52v32q-16 0 -16 5q-7 0 -37 -21q-10 0 -10 10v11q13 26 42 26zM622 1428h11q10 -2 10 -11q-23 -105 -31 -105q-11 0 -11 16q0 100 21 100zM601 1297h11q10 -2 10 -11
q-10 -24 -21 -26q-7 0 -16 16q8 21 16 21zM680 1286h16q10 -2 10 -10v-6q0 -10 -10 -10h-21q-11 0 -11 10q0 8 16 16zM449 1265q121 -21 121 -115q5 0 5 -6q0 -89 -105 -120h-26q-111 22 -111 110v5q0 91 90 121q17 0 26 5zM333 1207q0 -5 6 -5q-14 -22 -21 -89
q-25 0 -48 -42q11 -24 21 -26q0 -42 -36 -74h-16q-63 58 -63 105q0 86 157 131zM538 1171v-11h5v11h-5zM360 1165v-5q24 -42 94 -42q61 0 84 37h-5q-46 -21 -68 -21h-11q-56 0 -94 31zM307 1029q0 -8 74 -53q0 -13 10 -68q42 30 42 58q-7 0 -16 16l11 5h58v-5
q-21 -24 -21 -27q7 0 47 -52h5v5q0 79 21 79h11q114 0 141 -168h-5q-3 0 -73 -26q-11 44 -11 52h-5v-331q-118 -131 -131 -131h-6v158h-21v-189q-120 -128 -120 -137q-11 0 -11 11v115q0 5 5 5l-5 11v556l-52 48q18 7 47 68h5zM696 814q21 -53 21 -158v-31h5q0 6 26 36h11
q12 -10 21 -10v-11l-63 -68v-42q-7 -47 -48 -47h-15l-16 10q-467 -452 -478 -477h-63q-47 10 -47 26v10q0 30 37 58q74 -42 94 -42l446 467v126q-5 74 -5 126zM591 436l5 -11v-357q-17 -63 -58 -63h-31q-48 31 -48 74v110q0 5 6 5l-6 11v89q0 25 79 89q0 11 53 53zM428 283
h10v-215q-10 -68 -63 -68t-68 73v79q2 8 89 95q32 20 32 36z" />
    <glyph glyph-name="cent" unicode="&#xa2;" horiz-adv-x="1040" 
d="M557 1431q15 -20 30 -70l-10 -5q-30 25 -30 65q2 10 10 10zM507 1381h5v-60q19 25 40 25l15 -20q-7 -21 -25 -31h-5q-13 0 -15 21h-5q0 -41 -10 -41q-10 17 -10 30v56h-10v-5l5 -20q-7 -26 -15 -26h-15q-9 0 -15 31q20 40 60 40zM803 1356h5q50 -7 50 -51v-15
q0 -7 -20 -20q10 -20 10 -35q-11 -50 -50 -50h-10q-18 0 -40 20h-5q-38 -35 -45 -35l-5 10l75 65q10 -1 10 -10q-8 0 -20 -20q20 -10 35 -10q40 0 40 45q-10 0 -10 10l15 25v15q-15 36 -40 36q-18 0 -40 -20h-5q0 15 -10 15q-32 0 -40 -46q0 -20 20 -30h5v15h10l10 -5
q-27 -49 -60 -75h-5q30 46 30 55q-7 0 -25 25v25q0 28 30 46h35zM467 1346v-10q1 -10 10 -10v20h-10zM592 1346q10 -2 10 -10q0 -10 -10 -10h-10v10q2 10 10 10zM537 1326q5 -10 5 -16h5v21zM396 1331h16l5 -26q16 11 25 11l5 -11q-25 -13 -25 -20q1 -10 10 -10q0 8 15 15
q10 -1 10 -10q-7 0 -25 -25l10 -15q0 -10 -10 -10l-15 10h-5q0 -30 -11 -30q0 7 -15 15q0 -10 -10 -10h-5v15q0 10 15 10v15l-20 -15q-10 0 -10 10q20 19 25 55h5q5 -8 5 -20h5q10 0 10 10q-10 17 -10 31v5zM401 1275v-20h11v20h-11zM306 1265q45 -8 45 -45q0 -21 -30 -35
q0 -7 -15 -15h-15q-10 0 -10 10v20q0 35 35 35q10 0 10 -25q10 0 10 10v5q-8 20 -35 20h-10q-14 0 -20 -40q4 -45 15 -45h15q28 0 60 45h10q-22 -65 -70 -65h-20q-17 0 -25 55v10q5 60 50 60zM301 1210v-20q10 0 10 10t-10 10zM557 1205h40q91 -34 91 -105v-15
q0 -84 -106 -106h-25q-100 25 -100 111q0 74 75 110q8 5 25 5zM803 1125q20 -56 40 -56q33 11 46 11q0 -8 -16 -16h-45q-25 13 -35 56zM482 1115v-5q30 -41 90 -41h10q44 0 76 36v5q-42 -25 -71 -25h-15q-50 0 -90 30zM783 1115q10 -17 10 -30v-5h-10q0 12 -10 25
q2 10 10 10zM286 1095h20q50 -12 50 -51q46 10 56 10l5 -10q-56 -15 -96 -20l-5 10q8 5 25 5q0 36 -50 36q-30 -12 -30 -36q5 0 5 -5q-35 -10 -35 -40q3 -40 40 -40q26 5 30 5v-20q9 -5 20 -5h15q25 13 25 40v10q0 10 -10 10q-9 -5 -20 -5v5q59 40 86 40v-10
q-41 -20 -46 -20q0 -10 10 -35q-11 -50 -50 -50h-20q-25 13 -25 20l-25 -5h-15q-27 13 -40 40v15q0 30 40 50q0 34 40 56zM783 1069h10v-15q-19 -30 -45 -30v10q35 13 35 35zM889 1054l5 -10q-43 -12 -46 -25v-5q0 -10 10 -50h-5q-14 0 -20 50v5q25 35 56 35zM793 1019h5
q35 -12 35 -60h-10q0 45 -35 45h-10l-25 -5v5q3 15 40 15zM482 944h10q17 0 20 -80q4 0 45 50l-15 25v5h55q10 -2 10 -10q-20 -8 -20 -15v-5q0 -3 45 -50q9 80 21 80h30q51 -17 75 -65q40 -81 40 -121q-60 -6 -75 -15q-5 10 -5 15h-5v-201l-5 -10q-213 106 -221 106h-5
l-40 -30h-5v170h-5q-10 -37 -10 -45l-36 5h-35q-10 0 -10 15q37 176 141 176zM346 748q71 0 71 -20v-136q4 0 70 56l236 -116v196q0 17 65 20h5q15 0 15 -80v-65q0 -36 -5 -111q74 -38 116 -45q16 -20 30 -96q0 -6 -25 -25h-15q-46 10 -46 25q10 80 10 91q-10 0 -80 35
q-8 -20 -35 -20q-20 0 -35 25v30q-108 39 -171 80q0 16 -45 26h-15q-37 0 -75 -61l5 -10q0 -39 -26 -50h-30l-15 10q0 -4 -221 -181l-20 25q54 49 231 181q-10 78 -10 126q0 90 15 90zM507 608q55 -20 55 -66v-216q-7 -70 -65 -70q-60 0 -60 65v206q0 81 70 81zM582 567
q5 -7 126 -60l5 -10v-417q0 -62 -65 -80q-53 0 -66 70v397q0 55 -10 95zM934 497q45 -6 45 -45v-15q0 -10 -10 -10q0 47 -35 65v5zM919 477h15q25 -13 25 -40q0 -10 -10 -10q-4 24 -30 50zM356 467h5l20 -15l25 5v-5q0 -10 -10 -10q-37 0 -40 15v10zM351 452q13 -25 40 -25
l21 10l5 -10q0 -10 -11 -10h-40q-6 0 -25 25q2 10 10 10zM95 417h10v-10q-40 0 -40 -51h-5q-10 0 -10 16q15 45 45 45zM100 397h5q10 -2 10 -10q-25 0 -25 -36h-15v21q0 6 25 25z" />
    <glyph glyph-name="sterling" unicode="&#xa3;" horiz-adv-x="1335" 
d="M425 1428q67 0 136 -92q55 -13 98 -74v-12q0 -9 -18 -19h-25q-93 0 -197 86v-6q47 -55 117 -92q-39 -74 -135 -74q-111 38 -111 92q-11 0 -12 62q0 94 117 129h30zM247 1176q85 0 98 -105l-12 -62h-6q-12 0 -37 87q-33 24 -55 24q-56 -21 -56 -61q42 -150 93 -265v-49
q0 -14 -7 -25q99 -288 99 -314v-6q-29 -375 -55 -375q-17 -25 -44 -25h-43q-49 35 -49 68q0 84 37 326q-75 218 -86 234q-74 35 -74 104v117q60 308 142 308q0 14 55 19zM247 1108q45 0 80 -160q-73 -25 -92 -25q-10 8 -50 136q0 41 62 49zM333 936l166 -351
q-10 -28 -37 -43h-18q-49 0 -129 190q-43 80 -74 173q26 26 92 31zM512 572q203 -160 234 -197l381 -313l86 61h13q49 -35 49 -68v-6q-10 -38 -136 -43q-26 42 -400 339q-246 194 -246 203q9 24 19 24z" />
    <glyph glyph-name="currency" unicode="&#xa4;" horiz-adv-x="1057" 
d="M811 1428q8 0 23 -28q-6 -11 -6 -17q14 0 45 -89v-5h-6q-61 39 -100 39q-72 0 -162 -106q-80 -53 -173 -129q-100 -67 -229 -173q-21 -11 -83 -55q33 -63 33 -106q-27 -28 -61 -28q-28 6 -28 44q0 101 39 101q467 367 580 446v33q22 34 50 34q0 24 73 33q0 6 5 6z
M750 1311h34q31 0 78 -34q113 -5 122 -39v-5q-26 -39 -100 -39h-45q-41 0 -78 16v-5q10 -11 129 -39v-6q0 -76 -118 -100h-11q-122 21 -122 123q20 128 111 128zM862 1082l5 -11q-20 -54 -89 -195q-22 -109 -22 -218q95 -223 95 -452q0 -200 -51 -200l-33 -6q-38 0 -67 67
q11 61 11 139v6q0 161 -61 329q-106 0 -106 206q39 268 89 268q0 18 61 34q2 11 11 11q29 -17 56 -17h11q37 0 90 39zM600 547q56 0 78 -129q9 0 16 -111q-8 -96 -167 -290l-17 -11h-44q-51 35 -51 72q0 19 118 184q67 153 67 251l-6 28q6 0 6 6z" />
    <glyph glyph-name="yen" unicode="&#xa5;" horiz-adv-x="885" 
d="M453 1433h37q29 0 90 -36q102 0 132 -42v-6q-20 -42 -150 -42q-30 0 -91 18q0 -26 133 -43l6 -12v-12q-48 -96 -120 -96h-37q-82 0 -114 126v19q0 94 114 126zM785 1252q48 0 48 -60v-12q-9 -11 -115 -54q0 -61 42 -205q0 -12 -96 -30q0 18 -18 72h-6v-861
q0 -82 -60 -102h-12q-78 12 -78 72v548h-25v-548q0 -51 -78 -72q-78 19 -78 90v608q66 79 132 241q10 0 24 24v24q0 11 -66 133v6h12q30 -36 79 -36q25 10 54 36h72q31 0 90 -60v30q0 20 -12 84q58 72 91 72zM345 1126q29 0 60 -78q-36 0 -120 -115h12q0 14 96 103h24
q32 -21 42 -49q-31 -87 -186 -198q-24 -6 -42 -6q-43 17 -43 54v6q34 283 157 283zM170 981l18 -36q-12 -23 -12 -66v-54q12 -60 79 -60l36 18l6 -12v-325q-193 32 -193 114q-54 166 -54 181q40 22 72 54q-12 129 -12 156zM760 903q19 -62 19 -174v-91q0 -63 -25 -78l6 -42
q0 -150 19 -343l-12 -6h-19q-24 0 -24 349q0 22 -48 66v157q0 42 -6 132q56 30 90 30zM369 849v-6q-33 -71 -54 -90l-6 12v30q30 40 60 54z" />
    <glyph glyph-name="brokenbar" unicode="&#xa6;" horiz-adv-x="1183" 
d="M560 1428q23 0 114 -42q92 0 120 -42q-23 -48 -132 -48q-37 0 -102 18h-6v-6q52 -27 132 -36l6 -12q-39 -108 -126 -108h-18q-126 30 -126 126v18q0 110 138 132zM266 1260l42 -12h102q9 0 18 -24q-27 -12 -78 -12h-42q6 -105 24 -126q-26 -72 -42 -84h-12
q-66 41 -66 210h-30q-42 0 -132 -6v42h168q42 12 48 12zM860 1260l42 -12h90l60 6q78 -70 78 -96q-18 -42 -54 -42h-24q-21 0 -48 114l-42 -6h-60v-36q0 -155 -72 -192q-21 8 -42 96q12 0 18 132h-114v6q0 9 18 18h102q42 12 48 12zM470 1122q6 -6 12 -90h12l48 60
q-9 0 -24 24l12 6h54q12 -2 12 -12q-9 0 -18 -18v-6q45 -60 54 -60q0 96 24 96q125 0 144 -96q12 -25 12 -36h-42q-26 0 -48 12v-936q0 -36 -54 -66h-48q-48 27 -48 66v546h-24v-540q-21 -72 -66 -72h-36q-54 40 -54 72v930q-20 -12 -36 -12h-42l-12 6q39 114 90 114
q0 11 78 12z" />
    <glyph glyph-name="section" unicode="&#xa7;" horiz-adv-x="1587" 
d="M1447 1428q85 -31 85 -84q-40 -93 -376 -561q-49 0 -146 -176q-224 -296 -231 -361q-180 -238 -261 -238q-52 -8 -84 -8q-239 0 -307 69q-77 92 -77 177q0 161 146 215h8q44 0 337 -254q141 177 192 177l307 453q0 65 93 169q261 414 291 414q15 8 23 8z" />
    <glyph glyph-name="dieresis" unicode="&#xa8;" horiz-adv-x="1537" 
d="M770 1431q417 0 646 -420q65 -139 65 -300q0 -468 -493 -679q-131 -32 -186 -32h-49q-425 0 -646 437q-57 120 -57 291q0 407 420 638q161 65 300 65zM446 1075q24 -40 24 -64q-97 -41 -97 -154v-8q0 -81 138 -154q0 -24 -16 -64q0 -151 178 -170l40 8q51 -146 162 -146
h24q41 0 105 57q24 0 81 -32q162 161 162 347v16q0 338 -348 469q-65 17 -138 17h-8q-165 0 -307 -122zM867 1108h40q57 -29 57 -81v-33q-22 -39 -33 -40q-11 0 -32 65q-21 22 -105 32v8q20 49 73 49zM608 1027q71 0 89 -105q-17 -49 -33 -49h-16q-11 81 -81 81h-48v8
q32 65 89 65zM187 841v-33q11 -72 73 -72h33v8q-41 42 -41 73v16l16 56h-8q-44 0 -73 -48zM1036 889q54 0 89 -64v-41q0 -44 -40 -64q-14 0 -32 80l-89 49q30 26 72 40zM681 744q105 -15 105 -89v-16q-16 -73 -41 -73h-24l8 40q-29 89 -121 89v8q0 25 73 41zM964 606h32
q65 -32 65 -97q-22 -64 -41 -64h-24v32q0 65 -97 81v8q21 40 65 40zM357 420q0 -30 49 -64h32q42 0 49 24v8q-81 0 -81 89v16h-8q-41 -20 -41 -73zM689 234l-8 -16v-24q12 -73 72 -73q81 19 81 81h-8q-26 -16 -48 -16h-33q-9 0 -56 48z" />
    <glyph glyph-name="copyright" unicode="&#xa9;" horiz-adv-x="2593" 
d="M974 1604q129 0 160 -92q14 -50 14 -89v-53q0 -260 -305 -408q-102 -39 -181 -39h-67q-57 0 -68 -153q0 -73 57 -88q119 35 220 177q39 117 78 117q14 7 39 7h57q7 -1 7 -7v-32q0 -39 -71 -198q-2 -30 -21 -54v-3q191 159 230 276q61 183 188 256q41 25 103 25
q125 0 160 -110q3 -14 3 -29v-53q0 -98 -64 -241q-3 -6 -3 -18v-3h3q54 9 110 78q63 90 149 347q38 44 47 103q0 28 63 139q34 7 54 7h28q30 0 46 -22v-28q0 -32 -67 -199q0 -11 -46 -103q0 -9 -164 -411l15 -28q47 13 138 134q59 91 82 121q56 164 184 451q0 56 99 149
q53 28 110 28h14q110 0 110 -124v-39q0 -82 -102 -281q-51 -144 -132 -251q-79 -71 -159 -71q-43 -22 -43 -39q0 -25 82 -36q109 0 227 139q47 81 78 81h25q28 0 28 -28v-43q0 -36 -74 -120q-119 -110 -185 -110q-124 0 -124 -61q0 -130 -124 -319q-56 -49 -92 -53h-61
q-88 13 -88 88q-4 15 -4 25q0 61 35 128q6 39 47 110q7 27 7 32q-53 -28 -103 -28h-29q-99 0 -99 120v21h-3q-37 -17 -68 -17h-74q-81 -96 -110 -96q-50 -25 -110 -25h-36q-113 15 -113 103q-4 0 -4 21v11h-3q-135 -114 -249 -177q-61 -167 -131 -231q-70 -39 -82 -39
q-13 -4 -28 -4h-46q-75 0 -99 68l-4 21v57q0 110 199 170q45 26 64 46h-4q-67 -46 -124 -46h-39q-135 0 -135 167v53q0 66 18 153q-128 74 -128 81q-96 75 -96 252v11q0 113 96 202q31 35 64 35h18q60 -12 60 -56v-29q0 -19 -67 -81q-47 -61 -47 -114q0 -64 107 -149l25 -14
h3q18 6 46 106q22 17 78 142q121 203 263 263q71 21 138 21zM609 1047l18 -3h10q174 0 330 209q19 38 43 138q-8 71 -64 71q-109 0 -295 -316q-42 -92 -42 -99zM2117 916q74 59 124 195q45 74 78 181q39 70 39 124l-7 4q-61 -58 -71 -114q-44 -74 -75 -184q-31 -49 -88 -206
zM1201 721q11 -43 36 -43q38 10 81 64l4 7q-7 41 -7 60q0 63 46 75q57 0 85 191q-14 50 -42 50q-35 0 -118 -145q-49 -73 -49 -128q-20 -24 -36 -131zM1882 334q18 0 78 128l39 117q4 14 4 28v11q-12 0 -57 -131q-17 -28 -64 -153zM545 377q4 -7 4 -11q28 0 81 74v4
q-77 -34 -85 -67zM236 103h8q28 0 28 -31q0 -55 -75 -68h-7v-25q1 -7 7 -7h15q32 0 60 61q11 21 39 21h3q29 0 29 -29v-7q0 -15 -7 -28h3q20 13 39 60h22q3 0 3 -3q12 7 21 7h11q5 0 11 -11q17 11 28 11h11q5 0 10 -14q-17 -50 -17 -61v-3h3q18 6 43 71q3 3 57 7l10 -14v-15
q0 -13 -14 -46q16 5 39 68l7 3h14l7 -3q-17 -40 -24 -71h3q31 17 60 106h22l7 -3q-36 -77 -36 -103q17 2 36 53q17 25 39 25h7q19 0 25 -14v-11q0 -35 -46 -39q-7 3 -11 3v-3q5 -14 11 -14h3q43 0 64 64q15 14 28 14q16 -4 25 -4q12 32 18 32h21v-3q-35 -93 -35 -103h3
q25 19 25 32h7q7 -1 7 -7q-22 -43 -49 -43h-11l-14 11q-4 -11 -21 -11h-8q-14 6 -14 21q-21 -21 -46 -21h-10q-14 0 -32 18q0 -6 -22 -18h-17q-9 0 -11 14h-4l-21 -14h-18q-9 0 -10 14h-4q-19 -14 -32 -14h-14q-12 0 -25 11q-11 -43 -21 -43h-14q-7 0 -7 7q10 20 10 29h-3
q-6 -4 -14 -4h-11q-5 0 -11 11v10q0 13 14 50h-3q-20 0 -43 -67h-24v3l21 64q-25 0 -43 -64l-7 -3h-21v7l3 7h-3q-43 -18 -46 -18h-11q-16 0 -32 21q0 -14 -46 -28h-14q-32 5 -32 32v28q-24 0 -32 36v10q0 21 21 36l14 -18l-10 -14v-7q2 -21 10 -21h8q0 44 63 70zM1425 103
h14l7 -3q0 -49 -57 -117l-35 -25h-21q-8 0 -8 7l22 92q-18 0 -43 -21v-7l11 -14v-11l-4 -7q-32 7 -32 32v4q0 30 82 56q3 11 21 11q7 -1 7 -7v-4q-15 -14 -28 -96q36 22 60 107q0 3 4 3zM641 89q14 -5 14 -10v-11q0 -5 -11 -11h-10q-11 4 -11 22q12 10 18 10zM1865 89
q14 -5 14 -10v-11q0 -5 -11 -11h-10q-11 4 -11 22q12 10 18 10zM1219 82h21v-3q-35 -93 -35 -103h3q25 19 25 32h7q7 -1 7 -7q-22 -43 -49 -43h-11l-14 11q-4 -11 -21 -11h-7q-15 7 -15 18q-18 -18 -32 -18h-10q-5 0 -11 11v10q0 13 14 50h-3q-21 0 -43 -67q-18 0 -60 -4
q0 5 -11 11q-13 -11 -25 -11h-7q-14 7 -14 21q0 46 39 75h18l14 -11q1 7 7 7h21v-3q-21 -56 -21 -68v-3q19 0 46 74h25q4 0 4 -3q11 7 21 7h11q5 0 10 -14q-17 -50 -17 -61v-3h3q19 14 46 71q12 7 21 7q16 -4 25 -4q12 32 18 32zM1631 82h17l7 -3l-7 -15h11v-7
q-21 -10 -21 -21q-22 -48 -22 -60h7q16 5 43 64q15 14 35 14h4q28 0 28 -29l-3 -35q14 6 32 43l-4 17q7 16 14 18h4l11 -7l-4 -7v-4q0 -2 25 -25v-3q0 -8 -11 -46h4q13 4 39 71l7 3h14l7 -3q-18 -40 -25 -71h4q18 10 53 78h7q57 0 57 -11v-3l-46 -50l25 -4h3q4 0 43 61l25 7
h7q19 0 25 -14v-11q0 -35 -47 -39q-6 3 -10 3v-3q5 -14 10 -14h4q43 0 60 64q15 14 29 14q15 -4 25 -4q11 32 17 32h22v-3q-36 -93 -36 -103h4q24 19 24 32h8q7 -1 7 -7q-23 -43 -50 -43h-11l-14 11q-3 -11 -21 -11h-7q-14 7 -14 18q-20 -18 -43 -18h-11q-28 4 -28 21
q-22 -21 -35 -21h-8l-24 7l-18 -3l-4 7v3l46 50l-7 3h-10q-8 -3 -32 -49l-25 -18h-18q-9 0 -10 14q-15 -14 -29 -14h-7q-14 7 -14 21q11 32 11 43q0 7 -8 7q0 -42 -85 -71h-10q-25 0 -25 18h-4q-23 -18 -35 -18h-11q-2 0 -18 18q0 -13 -39 -18h-10q-16 0 -32 21
q-13 -21 -43 -21h-10q-20 0 -29 18v17q10 61 50 61h7q19 0 25 -14v-11q0 -35 -46 -39q-7 3 -11 3v-3q5 -14 11 -14h3q40 0 64 64q19 14 32 14h7q25 0 25 -25q-2 -25 -11 -25h-21v4l4 25q-19 0 -25 -43v-7q1 -7 7 -7h3q64 14 64 74h-7v7q19 11 29 25zM2230 82h18l7 -3
q-11 -18 -11 -29l7 4h18q5 0 11 -11v-14q0 -15 -11 -39h4q11 5 35 60h18l7 -3q-25 -62 -25 -68h7q11 3 36 68l7 3h14q7 -1 7 -7q-28 -66 -28 -71h3q3 0 36 36q7 -1 7 -7q-14 -27 -61 -57q-9 -36 -35 -36h-11q-5 0 -14 15q0 27 36 31v4q-26 0 -36 18q-45 -18 -53 -18h-4
q-19 0 -24 14v21q0 25 35 89zM201 29h3q40 12 40 43l-8 3h-3q-32 -27 -32 -46zM286 -14v-10h4q5 0 10 10q-3 7 -3 15q17 9 17 14v21h-3q-17 0 -25 -50zM1677 -7v-17h3q11 3 11 7l-4 18q18 9 18 14v21h-4q-13 0 -24 -43zM733 11h11q5 0 10 11v11q-10 0 -21 -22zM1453 11h11
q5 0 10 11v11q-12 -3 -21 -22zM1996 11h11q5 0 10 11v11q-10 0 -21 -22zM524 -28q39 8 39 53v4q-26 0 -39 -57zM815 -10v-11h3q16 0 29 46l-8 4h-3q-11 0 -21 -39zM957 -17q3 0 3 -4q28 13 28 50h-10q-21 -24 -21 -46zM1159 -10v-11h3q16 0 29 46l-7 4h-4q-11 0 -21 -39z
M2074 -10v-11h4q15 0 28 46l-7 4h-4q-10 0 -21 -39zM2230 18v-7l4 -18h10q7 29 7 36h-10q-5 0 -11 -11zM2219 -10v-7q2 -7 8 -7l3 7zM2290 -70v-4h7q6 0 11 14h-3q-15 -5 -15 -10zM463 -102h18q78 -12 78 -96v-18q-10 -99 -64 -99q0 -4 -14 -4h-18q-67 0 -78 103v7
q11 103 64 103q0 4 14 4zM659 -102h17q78 -12 78 -96v-18q-10 -99 -64 -99q0 -4 -14 -4h-17q-68 0 -78 103v7q10 103 63 103q0 4 15 4zM1038 -102h18q42 0 42 -14l-3 -18q-42 7 -50 7q-57 -10 -57 -82v-7q0 -68 57 -78h7q12 0 39 18h4q5 0 14 -18q-24 -25 -53 -25h-21
q-67 0 -78 100v14q13 103 81 103zM2294 -102h25q27 0 32 -14q0 -18 -7 -18t-39 7q-19 0 -29 -18v-25q1 -11 68 -42q21 -26 21 -50q0 -45 -64 -57h-18q-20 0 -39 15q7 11 7 21q2 0 54 -11q28 9 28 32q0 30 -71 60q-18 20 -18 43v3q8 54 50 54zM130 -106h21q14 0 46 -145h4
q39 145 50 145q10 0 46 -138h7q34 138 42 138h18q7 -1 7 -7q-49 -166 -64 -206h-3q-12 0 -53 146h-4q-38 -146 -50 -146q-13 13 -67 213zM797 -106h57q81 -17 81 -81v-29q0 -80 -71 -96q-4 -3 -25 -3h-42q-7 0 -7 7v195q1 7 7 7zM1148 -106h14q7 -1 7 -7v-131q4 -50 46 -50
q43 0 43 46v135q1 7 7 7h14q7 -1 7 -7v-152q0 -42 -63 -54h-22q-60 9 -60 61v145q1 7 7 7zM1315 -106h152q7 -1 7 -7v-11q0 -7 -7 -7h-60v-177q0 -7 -7 -7h-18q-7 0 -7 7v177h-60q-7 0 -7 7v11q1 7 7 7zM1485 -106h153q7 -1 7 -7v-11q0 -7 -7 -7h-61v-177q0 -7 -7 -7h-17
q-8 0 -8 7v177h-60q-7 0 -7 7v11q1 7 7 7zM1677 -106h110q7 -1 7 -7v-11q0 -7 -7 -7h-89v-56h60q7 -2 7 -8v-10q0 -7 -7 -7h-60v-78h89q7 -1 7 -7v-11q0 -7 -7 -7h-110q-7 0 -7 7v195q1 7 7 7zM1833 -106h53q48 0 67 -35v-29q0 -36 -39 -49q51 -79 57 -96h-28l-61 89h-24
v-82q0 -7 -8 -7h-17q-7 0 -7 7v195q1 7 7 7zM2106 -106h110q7 -1 7 -7v-11q0 -7 -7 -7h-89v-56h60q8 -2 8 -8v-10q0 -7 -8 -7h-60v-78h89q7 -1 7 -7v-11q0 -7 -7 -7h-110q-7 0 -7 7v195q1 7 7 7zM417 -209q0 -85 57 -85q53 9 53 75v21q0 71 -60 71q-50 -10 -50 -71v-11z
M612 -209q0 -85 57 -85q53 9 53 75v21q0 71 -60 71q-50 -10 -50 -71v-11zM818 -134v-149q1 -7 7 -7h14q55 0 64 67v32q0 60 -71 60zM1858 -138v-57q1 -7 7 -7h3q53 4 53 22v21q0 28 -53 28h-3q-7 -1 -7 -7zM2014 -276h14q5 0 14 -14v-14q0 -6 -14 -15h-14q-6 0 -15 15v14
q0 5 15 14z" />
    <glyph glyph-name="ordfeminine" unicode="&#xaa;" horiz-adv-x="2593" 
d="M974 1604q129 0 160 -92q14 -50 14 -89v-53q0 -260 -305 -408q-102 -39 -181 -39h-67q-57 0 -68 -153q0 -73 57 -88q119 35 220 177q39 117 78 117q14 7 39 7h57q7 -1 7 -7v-32q0 -39 -71 -198q-2 -30 -21 -54v-3q191 159 230 276q61 183 188 256q41 25 103 25
q125 0 160 -110q3 -14 3 -29v-53q0 -98 -64 -241q-3 -6 -3 -18v-3h3q54 9 110 78q63 90 149 347q38 44 47 103q0 28 63 139q34 7 54 7h28q30 0 46 -22v-28q0 -32 -67 -199q0 -11 -46 -103q0 -9 -164 -411l15 -28q47 13 138 134q59 91 82 121q56 164 184 451q0 56 99 149
q53 28 110 28h14q110 0 110 -124v-39q0 -82 -102 -281q-51 -144 -132 -251q-79 -71 -159 -71q-43 -22 -43 -39q0 -25 82 -36q109 0 227 139q47 81 78 81h25q28 0 28 -28v-43q0 -36 -74 -120q-119 -110 -185 -110q-124 0 -124 -61q0 -130 -124 -319q-56 -49 -92 -53h-61
q-88 13 -88 88q-4 15 -4 25q0 61 35 128q6 39 47 110q7 27 7 32q-53 -28 -103 -28h-29q-99 0 -99 120v21h-3q-37 -17 -68 -17h-74q-81 -96 -110 -96q-50 -25 -110 -25h-36q-113 15 -113 103q-4 0 -4 21v11h-3q-135 -114 -249 -177q-61 -167 -131 -231q-70 -39 -82 -39
q-13 -4 -28 -4h-46q-75 0 -99 68l-4 21v57q0 110 199 170q45 26 64 46h-4q-67 -46 -124 -46h-39q-135 0 -135 167v53q0 66 18 153q-128 74 -128 81q-96 75 -96 252v11q0 113 96 202q31 35 64 35h18q60 -12 60 -56v-29q0 -19 -67 -81q-47 -61 -47 -114q0 -64 107 -149l25 -14
h3q18 6 46 106q22 17 78 142q121 203 263 263q71 21 138 21zM609 1047l18 -3h10q174 0 330 209q19 38 43 138q-8 71 -64 71q-109 0 -295 -316q-42 -92 -42 -99zM2117 916q74 59 124 195q45 74 78 181q39 70 39 124l-7 4q-61 -58 -71 -114q-44 -74 -75 -184q-31 -49 -88 -206
zM1201 721q11 -43 36 -43q38 10 81 64l4 7q-7 41 -7 60q0 63 46 75q57 0 85 191q-14 50 -42 50q-35 0 -118 -145q-49 -73 -49 -128q-20 -24 -36 -131zM1882 334q18 0 78 128l39 117q4 14 4 28v11q-12 0 -57 -131q-17 -28 -64 -153zM545 377q4 -7 4 -11q28 0 81 74v4
q-77 -34 -85 -67zM236 103h8q28 0 28 -31q0 -55 -75 -68h-7v-25q1 -7 7 -7h15q32 0 60 61q11 21 39 21h3q29 0 29 -29v-7q0 -15 -7 -28h3q20 13 39 60h22q3 0 3 -3q12 7 21 7h11q5 0 11 -11q17 11 28 11h11q5 0 10 -14q-17 -50 -17 -61v-3h3q18 6 43 71q3 3 57 7l10 -14v-15
q0 -13 -14 -46q16 5 39 68l7 3h14l7 -3q-17 -40 -24 -71h3q31 17 60 106h22l7 -3q-36 -77 -36 -103q17 2 36 53q17 25 39 25h7q19 0 25 -14v-11q0 -35 -46 -39q-7 3 -11 3v-3q5 -14 11 -14h3q43 0 64 64q15 14 28 14q16 -4 25 -4q12 32 18 32h21v-3q-35 -93 -35 -103h3
q25 19 25 32h7q7 -1 7 -7q-22 -43 -49 -43h-11l-14 11q-4 -11 -21 -11h-8q-14 6 -14 21q-21 -21 -46 -21h-10q-14 0 -32 18q0 -6 -22 -18h-17q-9 0 -11 14h-4l-21 -14h-18q-9 0 -10 14h-4q-19 -14 -32 -14h-14q-12 0 -25 11q-11 -43 -21 -43h-14q-7 0 -7 7q10 20 10 29h-3
q-6 -4 -14 -4h-11q-5 0 -11 11v10q0 13 14 50h-3q-20 0 -43 -67h-24v3l21 64q-25 0 -43 -64l-7 -3h-21v7l3 7h-3q-43 -18 -46 -18h-11q-16 0 -32 21q0 -14 -46 -28h-14q-32 5 -32 32v28q-24 0 -32 36v10q0 21 21 36l14 -18l-10 -14v-7q2 -21 10 -21h8q0 44 63 70zM1425 103
h14l7 -3q0 -49 -57 -117l-35 -25h-21q-8 0 -8 7l22 92q-18 0 -43 -21v-7l11 -14v-11l-4 -7q-32 7 -32 32v4q0 30 82 56q3 11 21 11q7 -1 7 -7v-4q-15 -14 -28 -96q36 22 60 107q0 3 4 3zM641 89q14 -5 14 -10v-11q0 -5 -11 -11h-10q-11 4 -11 22q12 10 18 10zM1865 89
q14 -5 14 -10v-11q0 -5 -11 -11h-10q-11 4 -11 22q12 10 18 10zM1219 82h21v-3q-35 -93 -35 -103h3q25 19 25 32h7q7 -1 7 -7q-22 -43 -49 -43h-11l-14 11q-4 -11 -21 -11h-7q-15 7 -15 18q-18 -18 -32 -18h-10q-5 0 -11 11v10q0 13 14 50h-3q-21 0 -43 -67q-18 0 -60 -4
q0 5 -11 11q-13 -11 -25 -11h-7q-14 7 -14 21q0 46 39 75h18l14 -11q1 7 7 7h21v-3q-21 -56 -21 -68v-3q19 0 46 74h25q4 0 4 -3q11 7 21 7h11q5 0 10 -14q-17 -50 -17 -61v-3h3q19 14 46 71q12 7 21 7q16 -4 25 -4q12 32 18 32zM1631 82h17l7 -3l-7 -15h11v-7
q-21 -10 -21 -21q-22 -48 -22 -60h7q16 5 43 64q15 14 35 14h4q28 0 28 -29l-3 -35q14 6 32 43l-4 17q7 16 14 18h4l11 -7l-4 -7v-4q0 -2 25 -25v-3q0 -8 -11 -46h4q13 4 39 71l7 3h14l7 -3q-18 -40 -25 -71h4q18 10 53 78h7q57 0 57 -11v-3l-46 -50l25 -4h3q4 0 43 61l25 7
h7q19 0 25 -14v-11q0 -35 -47 -39q-6 3 -10 3v-3q5 -14 10 -14h4q43 0 60 64q15 14 29 14q15 -4 25 -4q11 32 17 32h22v-3q-36 -93 -36 -103h4q24 19 24 32h8q7 -1 7 -7q-23 -43 -50 -43h-11l-14 11q-3 -11 -21 -11h-7q-14 7 -14 18q-20 -18 -43 -18h-11q-28 4 -28 21
q-22 -21 -35 -21h-8l-24 7l-18 -3l-4 7v3l46 50l-7 3h-10q-8 -3 -32 -49l-25 -18h-18q-9 0 -10 14q-15 -14 -29 -14h-7q-14 7 -14 21q11 32 11 43q0 7 -8 7q0 -42 -85 -71h-10q-25 0 -25 18h-4q-23 -18 -35 -18h-11q-2 0 -18 18q0 -13 -39 -18h-10q-16 0 -32 21
q-13 -21 -43 -21h-10q-20 0 -29 18v17q10 61 50 61h7q19 0 25 -14v-11q0 -35 -46 -39q-7 3 -11 3v-3q5 -14 11 -14h3q40 0 64 64q19 14 32 14h7q25 0 25 -25q-2 -25 -11 -25h-21v4l4 25q-19 0 -25 -43v-7q1 -7 7 -7h3q64 14 64 74h-7v7q19 11 29 25zM2230 82h18l7 -3
q-11 -18 -11 -29l7 4h18q5 0 11 -11v-14q0 -15 -11 -39h4q11 5 35 60h18l7 -3q-25 -62 -25 -68h7q11 3 36 68l7 3h14q7 -1 7 -7q-28 -66 -28 -71h3q3 0 36 36q7 -1 7 -7q-14 -27 -61 -57q-9 -36 -35 -36h-11q-5 0 -14 15q0 27 36 31v4q-26 0 -36 18q-45 -18 -53 -18h-4
q-19 0 -24 14v21q0 25 35 89zM201 29h3q40 12 40 43l-8 3h-3q-32 -27 -32 -46zM286 -14v-10h4q5 0 10 10q-3 7 -3 15q17 9 17 14v21h-3q-17 0 -25 -50zM1677 -7v-17h3q11 3 11 7l-4 18q18 9 18 14v21h-4q-13 0 -24 -43zM733 11h11q5 0 10 11v11q-10 0 -21 -22zM1453 11h11
q5 0 10 11v11q-12 -3 -21 -22zM1996 11h11q5 0 10 11v11q-10 0 -21 -22zM524 -28q39 8 39 53v4q-26 0 -39 -57zM815 -10v-11h3q16 0 29 46l-8 4h-3q-11 0 -21 -39zM957 -17q3 0 3 -4q28 13 28 50h-10q-21 -24 -21 -46zM1159 -10v-11h3q16 0 29 46l-7 4h-4q-11 0 -21 -39z
M2074 -10v-11h4q15 0 28 46l-7 4h-4q-10 0 -21 -39zM2230 18v-7l4 -18h10q7 29 7 36h-10q-5 0 -11 -11zM2219 -10v-7q2 -7 8 -7l3 7zM2290 -70v-4h7q6 0 11 14h-3q-15 -5 -15 -10zM463 -102h18q78 -12 78 -96v-18q-10 -99 -64 -99q0 -4 -14 -4h-18q-67 0 -78 103v7
q11 103 64 103q0 4 14 4zM659 -102h17q78 -12 78 -96v-18q-10 -99 -64 -99q0 -4 -14 -4h-17q-68 0 -78 103v7q10 103 63 103q0 4 15 4zM1038 -102h18q42 0 42 -14l-3 -18q-42 7 -50 7q-57 -10 -57 -82v-7q0 -68 57 -78h7q12 0 39 18h4q5 0 14 -18q-24 -25 -53 -25h-21
q-67 0 -78 100v14q13 103 81 103zM2294 -102h25q27 0 32 -14q0 -18 -7 -18t-39 7q-19 0 -29 -18v-25q1 -11 68 -42q21 -26 21 -50q0 -45 -64 -57h-18q-20 0 -39 15q7 11 7 21q2 0 54 -11q28 9 28 32q0 30 -71 60q-18 20 -18 43v3q8 54 50 54zM130 -106h21q14 0 46 -145h4
q39 145 50 145q10 0 46 -138h7q34 138 42 138h18q7 -1 7 -7q-49 -166 -64 -206h-3q-12 0 -53 146h-4q-38 -146 -50 -146q-13 13 -67 213zM797 -106h57q81 -17 81 -81v-29q0 -80 -71 -96q-4 -3 -25 -3h-42q-7 0 -7 7v195q1 7 7 7zM1148 -106h14q7 -1 7 -7v-131q4 -50 46 -50
q43 0 43 46v135q1 7 7 7h14q7 -1 7 -7v-152q0 -42 -63 -54h-22q-60 9 -60 61v145q1 7 7 7zM1315 -106h152q7 -1 7 -7v-11q0 -7 -7 -7h-60v-177q0 -7 -7 -7h-18q-7 0 -7 7v177h-60q-7 0 -7 7v11q1 7 7 7zM1485 -106h153q7 -1 7 -7v-11q0 -7 -7 -7h-61v-177q0 -7 -7 -7h-17
q-8 0 -8 7v177h-60q-7 0 -7 7v11q1 7 7 7zM1677 -106h110q7 -1 7 -7v-11q0 -7 -7 -7h-89v-56h60q7 -2 7 -8v-10q0 -7 -7 -7h-60v-78h89q7 -1 7 -7v-11q0 -7 -7 -7h-110q-7 0 -7 7v195q1 7 7 7zM1833 -106h53q48 0 67 -35v-29q0 -36 -39 -49q51 -79 57 -96h-28l-61 89h-24
v-82q0 -7 -8 -7h-17q-7 0 -7 7v195q1 7 7 7zM2106 -106h110q7 -1 7 -7v-11q0 -7 -7 -7h-89v-56h60q8 -2 8 -8v-10q0 -7 -8 -7h-60v-78h89q7 -1 7 -7v-11q0 -7 -7 -7h-110q-7 0 -7 7v195q1 7 7 7zM417 -209q0 -85 57 -85q53 9 53 75v21q0 71 -60 71q-50 -10 -50 -71v-11z
M612 -209q0 -85 57 -85q53 9 53 75v21q0 71 -60 71q-50 -10 -50 -71v-11zM818 -134v-149q1 -7 7 -7h14q55 0 64 67v32q0 60 -71 60zM1858 -138v-57q1 -7 7 -7h3q53 4 53 22v21q0 28 -53 28h-3q-7 -1 -7 -7zM2014 -276h14q5 0 14 -14v-14q0 -6 -14 -15h-14q-6 0 -15 15v14
q0 5 15 14z" />
    <glyph glyph-name="guillemotleft" unicode="&#xab;" horiz-adv-x="1676" 
d="M954 1428q415 0 638 -534q24 -109 24 -174q0 -408 -383 -639q-198 -81 -337 -81h-116q-399 0 -662 337q-57 103 -58 220v82q0 321 244 580q280 209 650 209zM95 604q0 -289 302 -453h11v12q-26 0 -46 46q0 26 58 35q70 -27 70 -81q-29 -24 -58 -24q0 -35 104 -46l-12 23
q31 57 47 58q128 -18 128 -58v-35l-12 -23l23 -12h81l-11 24v58l81 23q70 0 70 -81l-12 -24h58l-11 58q58 47 69 47l-11 23v12h23q23 -4 23 -23v-35q0 -32 -23 -70q169 21 360 197q162 245 162 453v23q0 235 -244 500q-204 139 -325 151q-695 0 -847 -465q-58 -98 -58 -313z
M966 1370q53 -23 58 -46v-12q0 -23 -24 -23h-46q-17 0 -35 35v11q0 29 47 35zM838 1358h35q23 -3 23 -23v-11q-35 -59 -81 -59q-82 16 -82 47q16 46 105 46zM687 1335l23 -11q-19 -53 -70 -82h-34l-24 12q35 81 105 81zM803 1324v-24h23q23 0 23 24h-46zM1093 1324
q53 -23 58 -47v-35h-46q-47 23 -47 70q23 12 35 12zM501 1265h35q23 -3 23 -23v-11q-48 -82 -69 -82h-35q-23 0 -23 24v23q0 16 69 69zM780 1265q58 -14 58 -34v-24q-37 -69 -128 -69h-23q-23 0 -23 35q29 92 116 92zM977 1265h23q93 -8 93 -81q-17 -46 -35 -46h-11
q-139 31 -139 104q38 23 69 23zM699 1173h23q81 16 81 46l-23 12h-23q-16 0 -58 -58zM966 1231q0 -47 92 -47q-11 47 -69 47h-23zM1209 1242q48 -16 70 -58v-23q0 -23 -23 -23h-12q-58 0 -81 58v11q0 29 46 35zM490 1219l-12 -23v-12h12q0 13 11 35h-11zM1209 1196
q4 -23 24 -23h11q0 23 -23 23h-12zM594 1184q23 -3 23 -23v-58q-47 -70 -116 -70h-11q-24 0 -24 23q0 96 128 128zM373 1161q17 0 35 -35q0 -60 -58 -93h-11q-24 0 -24 23v47q0 16 58 58zM1140 1161h23q70 -49 70 -93q-12 -70 -70 -70v-11q58 -9 58 -93v-46q0 -24 -23 -24
h-35q-70 37 -70 128v12q0 31 58 34q-58 89 -58 128zM501 1068h12q69 27 69 47v23h-23q-17 0 -58 -70zM861 1149l23 -46q-49 -116 -139 -116h-12q-16 0 -34 35v23q0 104 162 104zM1314 1149q70 -24 70 -93v-23q0 -23 -24 -23h-11q-43 0 -70 128q23 11 35 11zM733 1056l24 -34
q81 23 81 93h-23q-82 -45 -82 -59zM942 1126h35q81 -47 81 -139l-34 -23h-47q-81 0 -81 81q27 81 46 81zM1140 1115q11 -70 35 -70h11v35q0 16 -35 35h-11zM350 1103v-23h12v23h-12zM1325 1103v-23q4 -24 24 -24v24q0 23 -24 23zM942 1091v-58q12 -35 70 -35q0 12 12 12
q-24 63 -70 81h-12zM408 1045h24q23 -4 23 -23v-93q-16 -116 -105 -116q-23 38 -23 69v35q0 65 81 128zM582 1045h58q35 -12 35 -70v-35q0 -104 -104 -104q-58 15 -58 35v35q0 98 69 139zM257 1033q17 0 35 -35v-58q-23 -104 -58 -104h-23q-23 0 -23 23v35q0 98 69 139z
M362 894v-12q3 -23 23 -23q35 12 35 70v69q-35 0 -58 -104zM582 998q-34 -44 -34 -104l34 -23q53 22 58 46v58l-11 23l-23 -11zM246 987l-23 -81v-24q15 0 46 70q-12 22 -12 35h-11zM1291 998q104 -35 104 -127q-27 -70 -46 -70h-24q-28 0 -58 139zM861 987q23 -38 23 -70
v-35q-29 -58 -93 -58h-46q-17 0 -35 47q71 116 151 116zM1442 987q34 0 58 -105v-23q-5 -24 -58 -46q-35 42 -35 81q0 86 35 93zM1128 964q0 -105 58 -105v23q0 63 -46 82h-12zM757 882v-23h58q23 0 23 23q-12 0 -12 12q13 0 35 12q-12 22 -12 34q-60 0 -92 -58zM1314 940
v-23l23 -81h12q0 26 11 46q-23 38 -23 58h-23zM1442 929v-70h23v47q0 23 -23 23zM1012 929q53 -23 58 -47v-46q0 -60 -35 -70h-35l-81 23v59q0 81 93 81zM966 882l-24 -46q45 -35 70 -35l23 35v23q0 23 -69 23zM432 848h34q17 0 35 -35q0 -63 -58 -82l-23 47zM652 824h47
q46 -19 46 -81q0 -75 -70 -104q-58 0 -93 58v23q0 64 70 104zM304 801h11q35 -12 35 -70v-34q0 -61 -35 -70h-23q-20 0 -35 58q24 116 47 116zM652 789q-35 -42 -35 -81q29 -23 47 -23q46 12 46 70q0 26 -58 34zM815 801h46q70 -7 70 -35v-35q0 -81 -82 -81h-34
q-16 0 -58 58q0 63 58 93zM164 789h47q23 -3 23 -23v-23q0 -90 -58 -116h-23q-23 0 -23 23v47q0 85 34 92zM791 731v-11q0 -17 35 -35h12l58 12v34q0 17 -35 35h-35q-16 0 -35 -35zM1186 778h35q17 0 35 -35v-46q0 -63 -47 -82h-23q-35 12 -35 70v58q0 17 35 35zM304 755
q0 -36 -12 -82h23q0 13 12 35q-12 21 -12 47h-11zM176 743l-12 -58v-12h12l35 35q-12 23 -12 35h-23zM1186 743v-93h12q11 0 35 47q-12 20 -12 46h-35zM1453 755h12q16 0 35 -35v-81q0 -19 -47 -47q-35 12 -35 70q8 93 35 93zM1070 731h12q34 -11 34 -69q-34 -82 -104 -82
h-23q-35 12 -35 70v23q26 58 116 58zM1325 731h24q35 -11 35 -69v-12q0 -63 -59 -93h-23q-26 0 -35 58q0 87 58 116zM443 720h23q70 -52 70 -151q0 -18 -46 -47q-67 0 -82 128q12 70 35 70zM1465 708l-12 -46v-23h12l11 58v11h-11zM989 662v-12q0 -17 35 -35h34q0 47 24 47
q-12 22 -12 35h-46q-17 0 -35 -35zM1325 697q-23 -43 -23 -93v-12h12q17 0 35 35v46q0 24 -24 24zM455 673l-12 -58q18 -46 35 -46h23q0 29 -23 104h-23zM315 615h24q32 0 46 -116v-11q0 -63 -46 -82q-35 0 -58 105v35q7 69 34 69zM733 615q12 0 12 -11l23 11h47
q18 0 46 -46v-35q0 -62 -46 -81h-24q-104 23 -104 58v58q0 18 46 46zM722 557v-11q0 -18 46 -47h47l11 58v12l-58 11h-23q-23 -3 -23 -23zM315 569v-23l12 -82h23v82q0 23 -23 23h-12zM176 569q55 0 70 -105q-24 -69 -47 -69h-11q-47 11 -47 127q18 47 35 47zM1105 569
l23 -35v-23q-23 -116 -116 -116h-12q-16 0 -34 35q27 139 139 139zM1407 557h11q17 0 35 -35q0 -90 -58 -116q-17 0 -35 35v23q14 87 47 93zM1000 441l24 -11h11q58 29 58 92v12q-52 0 -93 -93zM188 511q-12 -23 -12 -35q12 -22 12 -35q23 0 23 23v24q0 23 -23 23zM1407 511
q0 -13 -12 -35v-23h12q0 26 11 46v12h-11zM571 511q128 -49 128 -81v-47q0 -17 -35 -35h-12q-91 0 -128 70v46q0 19 47 47zM1221 499h12q23 -3 23 -23v-46q-38 -67 -81 -93h-24q-35 11 -35 69q31 93 105 93zM559 464v-23q30 -58 105 -58v35q0 30 -93 46h-12zM1151 406
q12 -22 12 -34q14 0 58 69v23h-12q-11 0 -58 -58zM873 453h46q47 -23 47 -70q-46 -38 -140 -70q-46 18 -46 35v47q30 58 93 58zM815 383v-23h58q28 23 46 23v23q-12 0 -35 12q-69 -12 -69 -35zM223 395h11q116 -27 116 -116v-12q0 -17 -35 -35h-11q-81 57 -81 128v35z
M1337 395h23q24 -4 24 -23v-47q0 -63 -59 -93h-11q-17 0 -35 35v12q0 90 58 116zM408 383h58q16 0 58 -58v-46q-24 -47 -58 -47q-81 23 -81 93v35q4 23 23 23zM420 360v-12q7 -69 35 -69h35v23q0 15 -58 58h-12zM1314 313v-34q17 0 35 34v35q-17 0 -35 -35zM269 337v-12
q12 -38 46 -46v11q-8 35 -46 47zM1012 337q70 -24 70 -47q-31 -93 -140 -93q-58 15 -58 35v35q0 40 128 70zM722 313q67 -37 93 -81v-11q0 -19 -47 -47h-69q-117 14 -117 47v46q0 17 35 35h23q12 0 12 -12q38 23 70 23zM919 244h35l81 11v47h-11q-105 -26 -105 -58zM687 279
l12 -24q-12 0 -12 -11q-48 23 -70 23v-23q0 -35 128 -35h23v12q-35 58 -81 58zM1221 267q17 0 35 -35q0 -93 -105 -93h-11q-17 0 -35 35v23q47 70 116 70zM1140 174h11q70 0 70 58h-35q-24 -5 -46 -58zM559 128q12 -35 70 -35h35v23l-58 12h-47zM815 104v-34h58q23 0 23 23
l-12 23zM1000 104v-23h12q23 0 23 23h-35z" />
    <glyph glyph-name="logicalnot" unicode="&#xac;" horiz-adv-x="2593" 
d="M974 1604q129 0 160 -92q14 -50 14 -89v-53q0 -260 -305 -408q-102 -39 -181 -39h-67q-57 0 -68 -153q0 -73 57 -88q119 35 220 177q39 117 78 117q14 7 39 7h57q7 -1 7 -7v-32q0 -39 -71 -198q-2 -30 -21 -54v-3q191 159 230 276q61 183 188 256q41 25 103 25
q125 0 160 -110q3 -14 3 -29v-53q0 -98 -64 -241q-3 -6 -3 -18v-3h3q54 9 110 78q63 90 149 347q38 44 47 103q0 28 63 139q34 7 54 7h28q30 0 46 -22v-28q0 -32 -67 -199q0 -11 -46 -103q0 -9 -164 -411l15 -28q47 13 138 134q59 91 82 121q56 164 184 451q0 56 99 149
q53 28 110 28h14q110 0 110 -124v-39q0 -82 -102 -281q-51 -144 -132 -251q-79 -71 -159 -71q-43 -22 -43 -39q0 -25 82 -36q109 0 227 139q47 81 78 81h25q28 0 28 -28v-43q0 -36 -74 -120q-119 -110 -185 -110q-124 0 -124 -61q0 -130 -124 -319q-56 -49 -92 -53h-61
q-88 13 -88 88q-4 15 -4 25q0 61 35 128q6 39 47 110q7 27 7 32q-53 -28 -103 -28h-29q-99 0 -99 120v21h-3q-37 -17 -68 -17h-74q-81 -96 -110 -96q-50 -25 -110 -25h-36q-113 15 -113 103q-4 0 -4 21v11h-3q-135 -114 -249 -177q-61 -167 -131 -231q-70 -39 -82 -39
q-13 -4 -28 -4h-46q-75 0 -99 68l-4 21v57q0 110 199 170q45 26 64 46h-4q-67 -46 -124 -46h-39q-135 0 -135 167v53q0 66 18 153q-128 74 -128 81q-96 75 -96 252v11q0 113 96 202q31 35 64 35h18q60 -12 60 -56v-29q0 -19 -67 -81q-47 -61 -47 -114q0 -64 107 -149l25 -14
h3q18 6 46 106q22 17 78 142q121 203 263 263q71 21 138 21zM609 1047l18 -3h10q174 0 330 209q19 38 43 138q-8 71 -64 71q-109 0 -295 -316q-42 -92 -42 -99zM2117 916q74 59 124 195q45 74 78 181q39 70 39 124l-7 4q-61 -58 -71 -114q-44 -74 -75 -184q-31 -49 -88 -206
zM1201 721q11 -43 36 -43q38 10 81 64l4 7q-7 41 -7 60q0 63 46 75q57 0 85 191q-14 50 -42 50q-35 0 -118 -145q-49 -73 -49 -128q-20 -24 -36 -131zM1882 334q18 0 78 128l39 117q4 14 4 28v11q-12 0 -57 -131q-17 -28 -64 -153zM545 377q4 -7 4 -11q28 0 81 74v4
q-77 -34 -85 -67zM236 103h8q28 0 28 -31q0 -55 -75 -68h-7v-25q1 -7 7 -7h15q32 0 60 61q11 21 39 21h3q29 0 29 -29v-7q0 -15 -7 -28h3q20 13 39 60h22q3 0 3 -3q12 7 21 7h11q5 0 11 -11q17 11 28 11h11q5 0 10 -14q-17 -50 -17 -61v-3h3q18 6 43 71q3 3 57 7l10 -14v-15
q0 -13 -14 -46q16 5 39 68l7 3h14l7 -3q-17 -40 -24 -71h3q31 17 60 106h22l7 -3q-36 -77 -36 -103q17 2 36 53q17 25 39 25h7q19 0 25 -14v-11q0 -35 -46 -39q-7 3 -11 3v-3q5 -14 11 -14h3q43 0 64 64q15 14 28 14q16 -4 25 -4q12 32 18 32h21v-3q-35 -93 -35 -103h3
q25 19 25 32h7q7 -1 7 -7q-22 -43 -49 -43h-11l-14 11q-4 -11 -21 -11h-8q-14 6 -14 21q-21 -21 -46 -21h-10q-14 0 -32 18q0 -6 -22 -18h-17q-9 0 -11 14h-4l-21 -14h-18q-9 0 -10 14h-4q-19 -14 -32 -14h-14q-12 0 -25 11q-11 -43 -21 -43h-14q-7 0 -7 7q10 20 10 29h-3
q-6 -4 -14 -4h-11q-5 0 -11 11v10q0 13 14 50h-3q-20 0 -43 -67h-24v3l21 64q-25 0 -43 -64l-7 -3h-21v7l3 7h-3q-43 -18 -46 -18h-11q-16 0 -32 21q0 -14 -46 -28h-14q-32 5 -32 32v28q-24 0 -32 36v10q0 21 21 36l14 -18l-10 -14v-7q2 -21 10 -21h8q0 44 63 70zM1425 103
h14l7 -3q0 -49 -57 -117l-35 -25h-21q-8 0 -8 7l22 92q-18 0 -43 -21v-7l11 -14v-11l-4 -7q-32 7 -32 32v4q0 30 82 56q3 11 21 11q7 -1 7 -7v-4q-15 -14 -28 -96q36 22 60 107q0 3 4 3zM641 89q14 -5 14 -10v-11q0 -5 -11 -11h-10q-11 4 -11 22q12 10 18 10zM1865 89
q14 -5 14 -10v-11q0 -5 -11 -11h-10q-11 4 -11 22q12 10 18 10zM1219 82h21v-3q-35 -93 -35 -103h3q25 19 25 32h7q7 -1 7 -7q-22 -43 -49 -43h-11l-14 11q-4 -11 -21 -11h-7q-15 7 -15 18q-18 -18 -32 -18h-10q-5 0 -11 11v10q0 13 14 50h-3q-21 0 -43 -67q-18 0 -60 -4
q0 5 -11 11q-13 -11 -25 -11h-7q-14 7 -14 21q0 46 39 75h18l14 -11q1 7 7 7h21v-3q-21 -56 -21 -68v-3q19 0 46 74h25q4 0 4 -3q11 7 21 7h11q5 0 10 -14q-17 -50 -17 -61v-3h3q19 14 46 71q12 7 21 7q16 -4 25 -4q12 32 18 32zM1631 82h17l7 -3l-7 -15h11v-7
q-21 -10 -21 -21q-22 -48 -22 -60h7q16 5 43 64q15 14 35 14h4q28 0 28 -29l-3 -35q14 6 32 43l-4 17q7 16 14 18h4l11 -7l-4 -7v-4q0 -2 25 -25v-3q0 -8 -11 -46h4q13 4 39 71l7 3h14l7 -3q-18 -40 -25 -71h4q18 10 53 78h7q57 0 57 -11v-3l-46 -50l25 -4h3q4 0 43 61l25 7
h7q19 0 25 -14v-11q0 -35 -47 -39q-6 3 -10 3v-3q5 -14 10 -14h4q43 0 60 64q15 14 29 14q15 -4 25 -4q11 32 17 32h22v-3q-36 -93 -36 -103h4q24 19 24 32h8q7 -1 7 -7q-23 -43 -50 -43h-11l-14 11q-3 -11 -21 -11h-7q-14 7 -14 18q-20 -18 -43 -18h-11q-28 4 -28 21
q-22 -21 -35 -21h-8l-24 7l-18 -3l-4 7v3l46 50l-7 3h-10q-8 -3 -32 -49l-25 -18h-18q-9 0 -10 14q-15 -14 -29 -14h-7q-14 7 -14 21q11 32 11 43q0 7 -8 7q0 -42 -85 -71h-10q-25 0 -25 18h-4q-23 -18 -35 -18h-11q-2 0 -18 18q0 -13 -39 -18h-10q-16 0 -32 21
q-13 -21 -43 -21h-10q-20 0 -29 18v17q10 61 50 61h7q19 0 25 -14v-11q0 -35 -46 -39q-7 3 -11 3v-3q5 -14 11 -14h3q40 0 64 64q19 14 32 14h7q25 0 25 -25q-2 -25 -11 -25h-21v4l4 25q-19 0 -25 -43v-7q1 -7 7 -7h3q64 14 64 74h-7v7q19 11 29 25zM2230 82h18l7 -3
q-11 -18 -11 -29l7 4h18q5 0 11 -11v-14q0 -15 -11 -39h4q11 5 35 60h18l7 -3q-25 -62 -25 -68h7q11 3 36 68l7 3h14q7 -1 7 -7q-28 -66 -28 -71h3q3 0 36 36q7 -1 7 -7q-14 -27 -61 -57q-9 -36 -35 -36h-11q-5 0 -14 15q0 27 36 31v4q-26 0 -36 18q-45 -18 -53 -18h-4
q-19 0 -24 14v21q0 25 35 89zM201 29h3q40 12 40 43l-8 3h-3q-32 -27 -32 -46zM286 -14v-10h4q5 0 10 10q-3 7 -3 15q17 9 17 14v21h-3q-17 0 -25 -50zM1677 -7v-17h3q11 3 11 7l-4 18q18 9 18 14v21h-4q-13 0 -24 -43zM733 11h11q5 0 10 11v11q-10 0 -21 -22zM1453 11h11
q5 0 10 11v11q-12 -3 -21 -22zM1996 11h11q5 0 10 11v11q-10 0 -21 -22zM524 -28q39 8 39 53v4q-26 0 -39 -57zM815 -10v-11h3q16 0 29 46l-8 4h-3q-11 0 -21 -39zM957 -17q3 0 3 -4q28 13 28 50h-10q-21 -24 -21 -46zM1159 -10v-11h3q16 0 29 46l-7 4h-4q-11 0 -21 -39z
M2074 -10v-11h4q15 0 28 46l-7 4h-4q-10 0 -21 -39zM2230 18v-7l4 -18h10q7 29 7 36h-10q-5 0 -11 -11zM2219 -10v-7q2 -7 8 -7l3 7zM2290 -70v-4h7q6 0 11 14h-3q-15 -5 -15 -10zM463 -102h18q78 -12 78 -96v-18q-10 -99 -64 -99q0 -4 -14 -4h-18q-67 0 -78 103v7
q11 103 64 103q0 4 14 4zM659 -102h17q78 -12 78 -96v-18q-10 -99 -64 -99q0 -4 -14 -4h-17q-68 0 -78 103v7q10 103 63 103q0 4 15 4zM1038 -102h18q42 0 42 -14l-3 -18q-42 7 -50 7q-57 -10 -57 -82v-7q0 -68 57 -78h7q12 0 39 18h4q5 0 14 -18q-24 -25 -53 -25h-21
q-67 0 -78 100v14q13 103 81 103zM2294 -102h25q27 0 32 -14q0 -18 -7 -18t-39 7q-19 0 -29 -18v-25q1 -11 68 -42q21 -26 21 -50q0 -45 -64 -57h-18q-20 0 -39 15q7 11 7 21q2 0 54 -11q28 9 28 32q0 30 -71 60q-18 20 -18 43v3q8 54 50 54zM130 -106h21q14 0 46 -145h4
q39 145 50 145q10 0 46 -138h7q34 138 42 138h18q7 -1 7 -7q-49 -166 -64 -206h-3q-12 0 -53 146h-4q-38 -146 -50 -146q-13 13 -67 213zM797 -106h57q81 -17 81 -81v-29q0 -80 -71 -96q-4 -3 -25 -3h-42q-7 0 -7 7v195q1 7 7 7zM1148 -106h14q7 -1 7 -7v-131q4 -50 46 -50
q43 0 43 46v135q1 7 7 7h14q7 -1 7 -7v-152q0 -42 -63 -54h-22q-60 9 -60 61v145q1 7 7 7zM1315 -106h152q7 -1 7 -7v-11q0 -7 -7 -7h-60v-177q0 -7 -7 -7h-18q-7 0 -7 7v177h-60q-7 0 -7 7v11q1 7 7 7zM1485 -106h153q7 -1 7 -7v-11q0 -7 -7 -7h-61v-177q0 -7 -7 -7h-17
q-8 0 -8 7v177h-60q-7 0 -7 7v11q1 7 7 7zM1677 -106h110q7 -1 7 -7v-11q0 -7 -7 -7h-89v-56h60q7 -2 7 -8v-10q0 -7 -7 -7h-60v-78h89q7 -1 7 -7v-11q0 -7 -7 -7h-110q-7 0 -7 7v195q1 7 7 7zM1833 -106h53q48 0 67 -35v-29q0 -36 -39 -49q51 -79 57 -96h-28l-61 89h-24
v-82q0 -7 -8 -7h-17q-7 0 -7 7v195q1 7 7 7zM2106 -106h110q7 -1 7 -7v-11q0 -7 -7 -7h-89v-56h60q8 -2 8 -8v-10q0 -7 -8 -7h-60v-78h89q7 -1 7 -7v-11q0 -7 -7 -7h-110q-7 0 -7 7v195q1 7 7 7zM417 -209q0 -85 57 -85q53 9 53 75v21q0 71 -60 71q-50 -10 -50 -71v-11z
M612 -209q0 -85 57 -85q53 9 53 75v21q0 71 -60 71q-50 -10 -50 -71v-11zM818 -134v-149q1 -7 7 -7h14q55 0 64 67v32q0 60 -71 60zM1858 -138v-57q1 -7 7 -7h3q53 4 53 22v21q0 28 -53 28h-3q-7 -1 -7 -7zM2014 -276h14q5 0 14 -14v-14q0 -6 -14 -15h-14q-6 0 -15 15v14
q0 5 15 14z" />
    <glyph glyph-name="registered" unicode="&#xae;" horiz-adv-x="2593" 
d="M974 1604q129 0 160 -92q14 -50 14 -89v-53q0 -260 -305 -408q-102 -39 -181 -39h-67q-57 0 -68 -153q0 -73 57 -88q119 35 220 177q39 117 78 117q14 7 39 7h57q7 -1 7 -7v-32q0 -39 -71 -198q-2 -30 -21 -54v-3q191 159 230 276q61 183 188 256q41 25 103 25
q125 0 160 -110q3 -14 3 -29v-53q0 -98 -64 -241q-3 -6 -3 -18v-3h3q54 9 110 78q63 90 149 347q38 44 47 103q0 28 63 139q34 7 54 7h28q30 0 46 -22v-28q0 -32 -67 -199q0 -11 -46 -103q0 -9 -164 -411l15 -28q47 13 138 134q59 91 82 121q56 164 184 451q0 56 99 149
q53 28 110 28h14q110 0 110 -124v-39q0 -82 -102 -281q-51 -144 -132 -251q-79 -71 -159 -71q-43 -22 -43 -39q0 -25 82 -36q109 0 227 139q47 81 78 81h25q28 0 28 -28v-43q0 -36 -74 -120q-119 -110 -185 -110q-124 0 -124 -61q0 -130 -124 -319q-56 -49 -92 -53h-61
q-88 13 -88 88q-4 15 -4 25q0 61 35 128q6 39 47 110q7 27 7 32q-53 -28 -103 -28h-29q-99 0 -99 120v21h-3q-37 -17 -68 -17h-74q-81 -96 -110 -96q-50 -25 -110 -25h-36q-113 15 -113 103q-4 0 -4 21v11h-3q-135 -114 -249 -177q-61 -167 -131 -231q-70 -39 -82 -39
q-13 -4 -28 -4h-46q-75 0 -99 68l-4 21v57q0 110 199 170q45 26 64 46h-4q-67 -46 -124 -46h-39q-135 0 -135 167v53q0 66 18 153q-128 74 -128 81q-96 75 -96 252v11q0 113 96 202q31 35 64 35h18q60 -12 60 -56v-29q0 -19 -67 -81q-47 -61 -47 -114q0 -64 107 -149l25 -14
h3q18 6 46 106q22 17 78 142q121 203 263 263q71 21 138 21zM609 1047l18 -3h10q174 0 330 209q19 38 43 138q-8 71 -64 71q-109 0 -295 -316q-42 -92 -42 -99zM2117 916q74 59 124 195q45 74 78 181q39 70 39 124l-7 4q-61 -58 -71 -114q-44 -74 -75 -184q-31 -49 -88 -206
zM1201 721q11 -43 36 -43q38 10 81 64l4 7q-7 41 -7 60q0 63 46 75q57 0 85 191q-14 50 -42 50q-35 0 -118 -145q-49 -73 -49 -128q-20 -24 -36 -131zM1882 334q18 0 78 128l39 117q4 14 4 28v11q-12 0 -57 -131q-17 -28 -64 -153zM545 377q4 -7 4 -11q28 0 81 74v4
q-77 -34 -85 -67zM236 103h8q28 0 28 -31q0 -55 -75 -68h-7v-25q1 -7 7 -7h15q32 0 60 61q11 21 39 21h3q29 0 29 -29v-7q0 -15 -7 -28h3q20 13 39 60h22q3 0 3 -3q12 7 21 7h11q5 0 11 -11q17 11 28 11h11q5 0 10 -14q-17 -50 -17 -61v-3h3q18 6 43 71q3 3 57 7l10 -14v-15
q0 -13 -14 -46q16 5 39 68l7 3h14l7 -3q-17 -40 -24 -71h3q31 17 60 106h22l7 -3q-36 -77 -36 -103q17 2 36 53q17 25 39 25h7q19 0 25 -14v-11q0 -35 -46 -39q-7 3 -11 3v-3q5 -14 11 -14h3q43 0 64 64q15 14 28 14q16 -4 25 -4q12 32 18 32h21v-3q-35 -93 -35 -103h3
q25 19 25 32h7q7 -1 7 -7q-22 -43 -49 -43h-11l-14 11q-4 -11 -21 -11h-8q-14 6 -14 21q-21 -21 -46 -21h-10q-14 0 -32 18q0 -6 -22 -18h-17q-9 0 -11 14h-4l-21 -14h-18q-9 0 -10 14h-4q-19 -14 -32 -14h-14q-12 0 -25 11q-11 -43 -21 -43h-14q-7 0 -7 7q10 20 10 29h-3
q-6 -4 -14 -4h-11q-5 0 -11 11v10q0 13 14 50h-3q-20 0 -43 -67h-24v3l21 64q-25 0 -43 -64l-7 -3h-21v7l3 7h-3q-43 -18 -46 -18h-11q-16 0 -32 21q0 -14 -46 -28h-14q-32 5 -32 32v28q-24 0 -32 36v10q0 21 21 36l14 -18l-10 -14v-7q2 -21 10 -21h8q0 44 63 70zM1425 103
h14l7 -3q0 -49 -57 -117l-35 -25h-21q-8 0 -8 7l22 92q-18 0 -43 -21v-7l11 -14v-11l-4 -7q-32 7 -32 32v4q0 30 82 56q3 11 21 11q7 -1 7 -7v-4q-15 -14 -28 -96q36 22 60 107q0 3 4 3zM641 89q14 -5 14 -10v-11q0 -5 -11 -11h-10q-11 4 -11 22q12 10 18 10zM1865 89
q14 -5 14 -10v-11q0 -5 -11 -11h-10q-11 4 -11 22q12 10 18 10zM1219 82h21v-3q-35 -93 -35 -103h3q25 19 25 32h7q7 -1 7 -7q-22 -43 -49 -43h-11l-14 11q-4 -11 -21 -11h-7q-15 7 -15 18q-18 -18 -32 -18h-10q-5 0 -11 11v10q0 13 14 50h-3q-21 0 -43 -67q-18 0 -60 -4
q0 5 -11 11q-13 -11 -25 -11h-7q-14 7 -14 21q0 46 39 75h18l14 -11q1 7 7 7h21v-3q-21 -56 -21 -68v-3q19 0 46 74h25q4 0 4 -3q11 7 21 7h11q5 0 10 -14q-17 -50 -17 -61v-3h3q19 14 46 71q12 7 21 7q16 -4 25 -4q12 32 18 32zM1631 82h17l7 -3l-7 -15h11v-7
q-21 -10 -21 -21q-22 -48 -22 -60h7q16 5 43 64q15 14 35 14h4q28 0 28 -29l-3 -35q14 6 32 43l-4 17q7 16 14 18h4l11 -7l-4 -7v-4q0 -2 25 -25v-3q0 -8 -11 -46h4q13 4 39 71l7 3h14l7 -3q-18 -40 -25 -71h4q18 10 53 78h7q57 0 57 -11v-3l-46 -50l25 -4h3q4 0 43 61l25 7
h7q19 0 25 -14v-11q0 -35 -47 -39q-6 3 -10 3v-3q5 -14 10 -14h4q43 0 60 64q15 14 29 14q15 -4 25 -4q11 32 17 32h22v-3q-36 -93 -36 -103h4q24 19 24 32h8q7 -1 7 -7q-23 -43 -50 -43h-11l-14 11q-3 -11 -21 -11h-7q-14 7 -14 18q-20 -18 -43 -18h-11q-28 4 -28 21
q-22 -21 -35 -21h-8l-24 7l-18 -3l-4 7v3l46 50l-7 3h-10q-8 -3 -32 -49l-25 -18h-18q-9 0 -10 14q-15 -14 -29 -14h-7q-14 7 -14 21q11 32 11 43q0 7 -8 7q0 -42 -85 -71h-10q-25 0 -25 18h-4q-23 -18 -35 -18h-11q-2 0 -18 18q0 -13 -39 -18h-10q-16 0 -32 21
q-13 -21 -43 -21h-10q-20 0 -29 18v17q10 61 50 61h7q19 0 25 -14v-11q0 -35 -46 -39q-7 3 -11 3v-3q5 -14 11 -14h3q40 0 64 64q19 14 32 14h7q25 0 25 -25q-2 -25 -11 -25h-21v4l4 25q-19 0 -25 -43v-7q1 -7 7 -7h3q64 14 64 74h-7v7q19 11 29 25zM2230 82h18l7 -3
q-11 -18 -11 -29l7 4h18q5 0 11 -11v-14q0 -15 -11 -39h4q11 5 35 60h18l7 -3q-25 -62 -25 -68h7q11 3 36 68l7 3h14q7 -1 7 -7q-28 -66 -28 -71h3q3 0 36 36q7 -1 7 -7q-14 -27 -61 -57q-9 -36 -35 -36h-11q-5 0 -14 15q0 27 36 31v4q-26 0 -36 18q-45 -18 -53 -18h-4
q-19 0 -24 14v21q0 25 35 89zM201 29h3q40 12 40 43l-8 3h-3q-32 -27 -32 -46zM286 -14v-10h4q5 0 10 10q-3 7 -3 15q17 9 17 14v21h-3q-17 0 -25 -50zM1677 -7v-17h3q11 3 11 7l-4 18q18 9 18 14v21h-4q-13 0 -24 -43zM733 11h11q5 0 10 11v11q-10 0 -21 -22zM1453 11h11
q5 0 10 11v11q-12 -3 -21 -22zM1996 11h11q5 0 10 11v11q-10 0 -21 -22zM524 -28q39 8 39 53v4q-26 0 -39 -57zM815 -10v-11h3q16 0 29 46l-8 4h-3q-11 0 -21 -39zM957 -17q3 0 3 -4q28 13 28 50h-10q-21 -24 -21 -46zM1159 -10v-11h3q16 0 29 46l-7 4h-4q-11 0 -21 -39z
M2074 -10v-11h4q15 0 28 46l-7 4h-4q-10 0 -21 -39zM2230 18v-7l4 -18h10q7 29 7 36h-10q-5 0 -11 -11zM2219 -10v-7q2 -7 8 -7l3 7zM2290 -70v-4h7q6 0 11 14h-3q-15 -5 -15 -10zM463 -102h18q78 -12 78 -96v-18q-10 -99 -64 -99q0 -4 -14 -4h-18q-67 0 -78 103v7
q11 103 64 103q0 4 14 4zM659 -102h17q78 -12 78 -96v-18q-10 -99 -64 -99q0 -4 -14 -4h-17q-68 0 -78 103v7q10 103 63 103q0 4 15 4zM1038 -102h18q42 0 42 -14l-3 -18q-42 7 -50 7q-57 -10 -57 -82v-7q0 -68 57 -78h7q12 0 39 18h4q5 0 14 -18q-24 -25 -53 -25h-21
q-67 0 -78 100v14q13 103 81 103zM2294 -102h25q27 0 32 -14q0 -18 -7 -18t-39 7q-19 0 -29 -18v-25q1 -11 68 -42q21 -26 21 -50q0 -45 -64 -57h-18q-20 0 -39 15q7 11 7 21q2 0 54 -11q28 9 28 32q0 30 -71 60q-18 20 -18 43v3q8 54 50 54zM130 -106h21q14 0 46 -145h4
q39 145 50 145q10 0 46 -138h7q34 138 42 138h18q7 -1 7 -7q-49 -166 -64 -206h-3q-12 0 -53 146h-4q-38 -146 -50 -146q-13 13 -67 213zM797 -106h57q81 -17 81 -81v-29q0 -80 -71 -96q-4 -3 -25 -3h-42q-7 0 -7 7v195q1 7 7 7zM1148 -106h14q7 -1 7 -7v-131q4 -50 46 -50
q43 0 43 46v135q1 7 7 7h14q7 -1 7 -7v-152q0 -42 -63 -54h-22q-60 9 -60 61v145q1 7 7 7zM1315 -106h152q7 -1 7 -7v-11q0 -7 -7 -7h-60v-177q0 -7 -7 -7h-18q-7 0 -7 7v177h-60q-7 0 -7 7v11q1 7 7 7zM1485 -106h153q7 -1 7 -7v-11q0 -7 -7 -7h-61v-177q0 -7 -7 -7h-17
q-8 0 -8 7v177h-60q-7 0 -7 7v11q1 7 7 7zM1677 -106h110q7 -1 7 -7v-11q0 -7 -7 -7h-89v-56h60q7 -2 7 -8v-10q0 -7 -7 -7h-60v-78h89q7 -1 7 -7v-11q0 -7 -7 -7h-110q-7 0 -7 7v195q1 7 7 7zM1833 -106h53q48 0 67 -35v-29q0 -36 -39 -49q51 -79 57 -96h-28l-61 89h-24
v-82q0 -7 -8 -7h-17q-7 0 -7 7v195q1 7 7 7zM2106 -106h110q7 -1 7 -7v-11q0 -7 -7 -7h-89v-56h60q8 -2 8 -8v-10q0 -7 -8 -7h-60v-78h89q7 -1 7 -7v-11q0 -7 -7 -7h-110q-7 0 -7 7v195q1 7 7 7zM417 -209q0 -85 57 -85q53 9 53 75v21q0 71 -60 71q-50 -10 -50 -71v-11z
M612 -209q0 -85 57 -85q53 9 53 75v21q0 71 -60 71q-50 -10 -50 -71v-11zM818 -134v-149q1 -7 7 -7h14q55 0 64 67v32q0 60 -71 60zM1858 -138v-57q1 -7 7 -7h3q53 4 53 22v21q0 28 -53 28h-3q-7 -1 -7 -7zM2014 -276h14q5 0 14 -14v-14q0 -6 -14 -15h-14q-6 0 -15 15v14
q0 5 15 14z" />
    <glyph glyph-name="macron" unicode="&#xaf;" horiz-adv-x="670" 
 />
    <glyph glyph-name="degree" unicode="&#xb0;" horiz-adv-x="674" 
 />
    <glyph glyph-name="plusminus" unicode="&#xb1;" 
 />
    <glyph glyph-name="uni00B2" unicode="&#xb2;" 
 />
    <glyph glyph-name="uni00B3" unicode="&#xb3;" 
 />
    <glyph glyph-name="acute" unicode="&#xb4;" horiz-adv-x="2593" 
d="M974 1604q129 0 160 -92q14 -50 14 -89v-53q0 -260 -305 -408q-102 -39 -181 -39h-67q-57 0 -68 -153q0 -73 57 -88q119 35 220 177q39 117 78 117q14 7 39 7h57q7 -1 7 -7v-32q0 -39 -71 -198q-2 -30 -21 -54v-3q191 159 230 276q61 183 188 256q41 25 103 25
q125 0 160 -110q3 -14 3 -29v-53q0 -98 -64 -241q-3 -6 -3 -18v-3h3q54 9 110 78q63 90 149 347q38 44 47 103q0 28 63 139q34 7 54 7h28q30 0 46 -22v-28q0 -32 -67 -199q0 -11 -46 -103q0 -9 -164 -411l15 -28q47 13 138 134q59 91 82 121q56 164 184 451q0 56 99 149
q53 28 110 28h14q110 0 110 -124v-39q0 -82 -102 -281q-51 -144 -132 -251q-79 -71 -159 -71q-43 -22 -43 -39q0 -25 82 -36q109 0 227 139q47 81 78 81h25q28 0 28 -28v-43q0 -36 -74 -120q-119 -110 -185 -110q-124 0 -124 -61q0 -130 -124 -319q-56 -49 -92 -53h-61
q-88 13 -88 88q-4 15 -4 25q0 61 35 128q6 39 47 110q7 27 7 32q-53 -28 -103 -28h-29q-99 0 -99 120v21h-3q-37 -17 -68 -17h-74q-81 -96 -110 -96q-50 -25 -110 -25h-36q-113 15 -113 103q-4 0 -4 21v11h-3q-135 -114 -249 -177q-61 -167 -131 -231q-70 -39 -82 -39
q-13 -4 -28 -4h-46q-75 0 -99 68l-4 21v57q0 110 199 170q45 26 64 46h-4q-67 -46 -124 -46h-39q-135 0 -135 167v53q0 66 18 153q-128 74 -128 81q-96 75 -96 252v11q0 113 96 202q31 35 64 35h18q60 -12 60 -56v-29q0 -19 -67 -81q-47 -61 -47 -114q0 -64 107 -149l25 -14
h3q18 6 46 106q22 17 78 142q121 203 263 263q71 21 138 21zM609 1047l18 -3h10q174 0 330 209q19 38 43 138q-8 71 -64 71q-109 0 -295 -316q-42 -92 -42 -99zM2117 916q74 59 124 195q45 74 78 181q39 70 39 124l-7 4q-61 -58 -71 -114q-44 -74 -75 -184q-31 -49 -88 -206
zM1201 721q11 -43 36 -43q38 10 81 64l4 7q-7 41 -7 60q0 63 46 75q57 0 85 191q-14 50 -42 50q-35 0 -118 -145q-49 -73 -49 -128q-20 -24 -36 -131zM1882 334q18 0 78 128l39 117q4 14 4 28v11q-12 0 -57 -131q-17 -28 -64 -153zM545 377q4 -7 4 -11q28 0 81 74v4
q-77 -34 -85 -67zM236 103h8q28 0 28 -31q0 -55 -75 -68h-7v-25q1 -7 7 -7h15q32 0 60 61q11 21 39 21h3q29 0 29 -29v-7q0 -15 -7 -28h3q20 13 39 60h22q3 0 3 -3q12 7 21 7h11q5 0 11 -11q17 11 28 11h11q5 0 10 -14q-17 -50 -17 -61v-3h3q18 6 43 71q3 3 57 7l10 -14v-15
q0 -13 -14 -46q16 5 39 68l7 3h14l7 -3q-17 -40 -24 -71h3q31 17 60 106h22l7 -3q-36 -77 -36 -103q17 2 36 53q17 25 39 25h7q19 0 25 -14v-11q0 -35 -46 -39q-7 3 -11 3v-3q5 -14 11 -14h3q43 0 64 64q15 14 28 14q16 -4 25 -4q12 32 18 32h21v-3q-35 -93 -35 -103h3
q25 19 25 32h7q7 -1 7 -7q-22 -43 -49 -43h-11l-14 11q-4 -11 -21 -11h-8q-14 6 -14 21q-21 -21 -46 -21h-10q-14 0 -32 18q0 -6 -22 -18h-17q-9 0 -11 14h-4l-21 -14h-18q-9 0 -10 14h-4q-19 -14 -32 -14h-14q-12 0 -25 11q-11 -43 -21 -43h-14q-7 0 -7 7q10 20 10 29h-3
q-6 -4 -14 -4h-11q-5 0 -11 11v10q0 13 14 50h-3q-20 0 -43 -67h-24v3l21 64q-25 0 -43 -64l-7 -3h-21v7l3 7h-3q-43 -18 -46 -18h-11q-16 0 -32 21q0 -14 -46 -28h-14q-32 5 -32 32v28q-24 0 -32 36v10q0 21 21 36l14 -18l-10 -14v-7q2 -21 10 -21h8q0 44 63 70zM1425 103
h14l7 -3q0 -49 -57 -117l-35 -25h-21q-8 0 -8 7l22 92q-18 0 -43 -21v-7l11 -14v-11l-4 -7q-32 7 -32 32v4q0 30 82 56q3 11 21 11q7 -1 7 -7v-4q-15 -14 -28 -96q36 22 60 107q0 3 4 3zM641 89q14 -5 14 -10v-11q0 -5 -11 -11h-10q-11 4 -11 22q12 10 18 10zM1865 89
q14 -5 14 -10v-11q0 -5 -11 -11h-10q-11 4 -11 22q12 10 18 10zM1219 82h21v-3q-35 -93 -35 -103h3q25 19 25 32h7q7 -1 7 -7q-22 -43 -49 -43h-11l-14 11q-4 -11 -21 -11h-7q-15 7 -15 18q-18 -18 -32 -18h-10q-5 0 -11 11v10q0 13 14 50h-3q-21 0 -43 -67q-18 0 -60 -4
q0 5 -11 11q-13 -11 -25 -11h-7q-14 7 -14 21q0 46 39 75h18l14 -11q1 7 7 7h21v-3q-21 -56 -21 -68v-3q19 0 46 74h25q4 0 4 -3q11 7 21 7h11q5 0 10 -14q-17 -50 -17 -61v-3h3q19 14 46 71q12 7 21 7q16 -4 25 -4q12 32 18 32zM1631 82h17l7 -3l-7 -15h11v-7
q-21 -10 -21 -21q-22 -48 -22 -60h7q16 5 43 64q15 14 35 14h4q28 0 28 -29l-3 -35q14 6 32 43l-4 17q7 16 14 18h4l11 -7l-4 -7v-4q0 -2 25 -25v-3q0 -8 -11 -46h4q13 4 39 71l7 3h14l7 -3q-18 -40 -25 -71h4q18 10 53 78h7q57 0 57 -11v-3l-46 -50l25 -4h3q4 0 43 61l25 7
h7q19 0 25 -14v-11q0 -35 -47 -39q-6 3 -10 3v-3q5 -14 10 -14h4q43 0 60 64q15 14 29 14q15 -4 25 -4q11 32 17 32h22v-3q-36 -93 -36 -103h4q24 19 24 32h8q7 -1 7 -7q-23 -43 -50 -43h-11l-14 11q-3 -11 -21 -11h-7q-14 7 -14 18q-20 -18 -43 -18h-11q-28 4 -28 21
q-22 -21 -35 -21h-8l-24 7l-18 -3l-4 7v3l46 50l-7 3h-10q-8 -3 -32 -49l-25 -18h-18q-9 0 -10 14q-15 -14 -29 -14h-7q-14 7 -14 21q11 32 11 43q0 7 -8 7q0 -42 -85 -71h-10q-25 0 -25 18h-4q-23 -18 -35 -18h-11q-2 0 -18 18q0 -13 -39 -18h-10q-16 0 -32 21
q-13 -21 -43 -21h-10q-20 0 -29 18v17q10 61 50 61h7q19 0 25 -14v-11q0 -35 -46 -39q-7 3 -11 3v-3q5 -14 11 -14h3q40 0 64 64q19 14 32 14h7q25 0 25 -25q-2 -25 -11 -25h-21v4l4 25q-19 0 -25 -43v-7q1 -7 7 -7h3q64 14 64 74h-7v7q19 11 29 25zM2230 82h18l7 -3
q-11 -18 -11 -29l7 4h18q5 0 11 -11v-14q0 -15 -11 -39h4q11 5 35 60h18l7 -3q-25 -62 -25 -68h7q11 3 36 68l7 3h14q7 -1 7 -7q-28 -66 -28 -71h3q3 0 36 36q7 -1 7 -7q-14 -27 -61 -57q-9 -36 -35 -36h-11q-5 0 -14 15q0 27 36 31v4q-26 0 -36 18q-45 -18 -53 -18h-4
q-19 0 -24 14v21q0 25 35 89zM201 29h3q40 12 40 43l-8 3h-3q-32 -27 -32 -46zM286 -14v-10h4q5 0 10 10q-3 7 -3 15q17 9 17 14v21h-3q-17 0 -25 -50zM1677 -7v-17h3q11 3 11 7l-4 18q18 9 18 14v21h-4q-13 0 -24 -43zM733 11h11q5 0 10 11v11q-10 0 -21 -22zM1453 11h11
q5 0 10 11v11q-12 -3 -21 -22zM1996 11h11q5 0 10 11v11q-10 0 -21 -22zM524 -28q39 8 39 53v4q-26 0 -39 -57zM815 -10v-11h3q16 0 29 46l-8 4h-3q-11 0 -21 -39zM957 -17q3 0 3 -4q28 13 28 50h-10q-21 -24 -21 -46zM1159 -10v-11h3q16 0 29 46l-7 4h-4q-11 0 -21 -39z
M2074 -10v-11h4q15 0 28 46l-7 4h-4q-10 0 -21 -39zM2230 18v-7l4 -18h10q7 29 7 36h-10q-5 0 -11 -11zM2219 -10v-7q2 -7 8 -7l3 7zM2290 -70v-4h7q6 0 11 14h-3q-15 -5 -15 -10zM463 -102h18q78 -12 78 -96v-18q-10 -99 -64 -99q0 -4 -14 -4h-18q-67 0 -78 103v7
q11 103 64 103q0 4 14 4zM659 -102h17q78 -12 78 -96v-18q-10 -99 -64 -99q0 -4 -14 -4h-17q-68 0 -78 103v7q10 103 63 103q0 4 15 4zM1038 -102h18q42 0 42 -14l-3 -18q-42 7 -50 7q-57 -10 -57 -82v-7q0 -68 57 -78h7q12 0 39 18h4q5 0 14 -18q-24 -25 -53 -25h-21
q-67 0 -78 100v14q13 103 81 103zM2294 -102h25q27 0 32 -14q0 -18 -7 -18t-39 7q-19 0 -29 -18v-25q1 -11 68 -42q21 -26 21 -50q0 -45 -64 -57h-18q-20 0 -39 15q7 11 7 21q2 0 54 -11q28 9 28 32q0 30 -71 60q-18 20 -18 43v3q8 54 50 54zM130 -106h21q14 0 46 -145h4
q39 145 50 145q10 0 46 -138h7q34 138 42 138h18q7 -1 7 -7q-49 -166 -64 -206h-3q-12 0 -53 146h-4q-38 -146 -50 -146q-13 13 -67 213zM797 -106h57q81 -17 81 -81v-29q0 -80 -71 -96q-4 -3 -25 -3h-42q-7 0 -7 7v195q1 7 7 7zM1148 -106h14q7 -1 7 -7v-131q4 -50 46 -50
q43 0 43 46v135q1 7 7 7h14q7 -1 7 -7v-152q0 -42 -63 -54h-22q-60 9 -60 61v145q1 7 7 7zM1315 -106h152q7 -1 7 -7v-11q0 -7 -7 -7h-60v-177q0 -7 -7 -7h-18q-7 0 -7 7v177h-60q-7 0 -7 7v11q1 7 7 7zM1485 -106h153q7 -1 7 -7v-11q0 -7 -7 -7h-61v-177q0 -7 -7 -7h-17
q-8 0 -8 7v177h-60q-7 0 -7 7v11q1 7 7 7zM1677 -106h110q7 -1 7 -7v-11q0 -7 -7 -7h-89v-56h60q7 -2 7 -8v-10q0 -7 -7 -7h-60v-78h89q7 -1 7 -7v-11q0 -7 -7 -7h-110q-7 0 -7 7v195q1 7 7 7zM1833 -106h53q48 0 67 -35v-29q0 -36 -39 -49q51 -79 57 -96h-28l-61 89h-24
v-82q0 -7 -8 -7h-17q-7 0 -7 7v195q1 7 7 7zM2106 -106h110q7 -1 7 -7v-11q0 -7 -7 -7h-89v-56h60q8 -2 8 -8v-10q0 -7 -8 -7h-60v-78h89q7 -1 7 -7v-11q0 -7 -7 -7h-110q-7 0 -7 7v195q1 7 7 7zM417 -209q0 -85 57 -85q53 9 53 75v21q0 71 -60 71q-50 -10 -50 -71v-11z
M612 -209q0 -85 57 -85q53 9 53 75v21q0 71 -60 71q-50 -10 -50 -71v-11zM818 -134v-149q1 -7 7 -7h14q55 0 64 67v32q0 60 -71 60zM1858 -138v-57q1 -7 7 -7h3q53 4 53 22v21q0 28 -53 28h-3q-7 -1 -7 -7zM2014 -276h14q5 0 14 -14v-14q0 -6 -14 -15h-14q-6 0 -15 15v14
q0 5 15 14z" />
    <glyph glyph-name="mu" unicode="&#xb5;" horiz-adv-x="703" 
d="M244 1436q28 -53 37 -53l74 -29q44 4 77 4q61 0 94 -45v-20q49 -2 49 -17q-4 -16 -53 -16q107 -93 107 -151v-17q0 -42 -54 -86v-4q0 -16 9 -90q-54 -243 -54 -286q-5 0 -12 -49l4 -8q-18 -179 -32 -213q4 -8 4 -12q0 -34 -13 -213q21 -66 21 -86q0 -7 -8 -20l-25 4
q-27 0 -69 -4q-66 4 -66 24l29 61q-13 5 -13 25v29q0 17 5 45q-5 8 -5 12q-118 -131 -139 -131l-20 -4h-4l-41 12h-4q-16 0 -33 -86l-16 -12h-13q-17 0 -20 57v8q0 152 37 152q90 7 90 45q34 45 69 114q34 0 37 127v29q0 10 -20 102q0 56 45 143h4q0 91 -62 168q0 18 -45 57
q0 5 -57 45q-17 23 -33 78v8q0 40 54 168q-9 31 -9 57q0 52 45 70zM187 1371v-5h4q0 25 41 33h12v4q-4 8 -4 13q-53 -14 -53 -45zM207 1350h25v-8l-25 -21h4l29 5q8 -25 12 -25q23 12 33 12q8 -8 45 -8q12 19 12 37q-62 19 -94 41h-20zM338 1248q0 -119 45 -119l70 -8
q0 8 41 25q-4 7 -4 12q15 41 32 41q-12 12 -24 49q-73 -33 -78 -33q0 -16 -8 -16h-8q0 9 -21 24v4q-8 -1 -8 -8l4 -28l8 4q8 -2 8 -9v-8q0 -6 -12 -12h-8q-10 0 -16 45v8q2 25 12 25h16q13 0 13 -17h4q0 29 8 29t8 -33h4q0 18 57 33v4q-20 7 -94 16q-7 -4 -16 -4q-8 0 -8 9
q0 4 16 12q57 -8 102 -8l29 4v24q-44 29 -98 29q-63 0 -74 -94zM215 1305l29 -290v-9q18 -20 45 -20v20q-45 33 -45 193q-12 57 -12 94v8l-4 8q-8 -4 -13 -4zM199 1305q0 -11 -45 -110l-4 -25q4 -36 4 -61v-4q8 0 57 49l-4 28v62q0 20 -4 61h-4zM248 1281q0 -31 12 -123
q62 12 66 12q-4 48 -4 70v36q0 6 -41 21q-28 -16 -33 -16zM530 1227v-4q13 -20 13 -32q-29 -10 -29 -33q-4 -37 -37 -37v-8q22 0 29 -17q0 -8 -8 -8q-60 19 -135 29q-43 33 -66 33q-11 0 -37 -13q0 -73 41 -122v-33q0 -6 -12 -12h-20v-4q57 -65 77 -180q15 -7 148 -17
q53 0 53 78q4 43 4 69q0 38 -12 164l8 4q16 -28 16 -57h4q41 21 41 78q0 62 -78 122zM158 1080q18 -33 49 -37q1 -16 17 -16v29q0 53 -9 73q-46 -32 -57 -49zM322 1109q26 -29 131 -41q25 0 49 -29q-8 -4 -12 -4q-21 21 -119 33q-54 23 -57 37zM318 1047q53 -67 53 -163v-25
q0 -26 -8 -57h-8v4q8 37 8 53q0 104 -53 184zM334 769q-45 -77 -45 -143q25 -41 25 -94q-9 -99 -9 -123q5 -8 5 -12q-9 0 -37 -45q-19 -8 -49 -86q-54 -48 -54 -111v-4q5 -35 5 -41h16q64 0 221 230q12 29 12 36l-8 13q102 175 102 356q4 0 4 12l-28 -4q-131 8 -160 16z
M490 499q-41 -84 -41 -102q0 -61 -82 -147q4 -52 4 -62q-4 -42 -4 -49q0 -5 28 -33q70 13 70 29v4q0 168 29 323v37h-4zM76 82q0 -17 9 -62q10 0 28 82l17 13h20v4q0 18 4 90h-4q-61 -7 -61 -29q-13 -94 -13 -98zM375 90q-16 -32 -16 -41v-4h4q22 0 57 4q36 -4 61 -4l4 8
h-85q-22 0 -25 12l12 9h90v4q-9 24 -16 24q-67 -12 -86 -12z" />
    <glyph glyph-name="paragraph" unicode="&#xb6;" horiz-adv-x="1590" 
d="M846 1420q273 0 401 -80v-96q115 80 169 80q92 0 120 -137q-20 -409 -144 -409q0 -16 -32 -16t-129 80q-16 -56 -32 -56h-8q-31 0 -72 40q-113 -155 -225 -200v-113l40 -48v-16q-6 -64 -56 -64q0 -27 8 -40l-8 -48q0 -78 105 -137l56 8q62 0 80 -40v-32q-75 -96 -209 -96
h-184q-228 0 -313 96v32q32 46 217 129l8 40v72q-49 57 -49 88q0 36 57 81q0 32 8 32q0 58 -113 152q-54 97 -72 104q-20 -40 -64 -40q-40 24 -40 56q-100 -80 -129 -80q-152 44 -152 225q-24 120 -24 192v8q17 129 104 129h32q60 0 153 -72v8l-8 40q0 120 160 120
q310 8 345 8zM413 1364q133 -88 369 -88q230 0 409 56v8q-150 48 -417 48q-183 0 -361 -24zM541 1348h113q123 0 337 -8l8 -16l-8 -16l-73 8q-70 0 -385 8l-8 16zM381 1324v-145q0 -122 48 -216q0 -27 144 -225q113 -82 113 -192q0 -33 -64 -81v-16q56 -72 56 -104
q0 -136 -72 -136l-89 -57q54 -56 225 -56q37 6 225 16v16q-93 89 -129 89q-64 8 -64 32l16 8q44 -8 64 -8v8q-8 14 -8 32v40q-41 0 -48 24q48 0 48 40l56 56l-40 48v137q143 99 233 200q120 195 120 418q0 13 -16 48q-130 -40 -361 -56q-234 0 -457 80zM92 1139
q36 -329 120 -329q0 -8 8 -8h16q39 0 121 80q-8 0 -8 9l16 8h16l24 -17l-8 -40q8 -24 16 -24q13 0 32 32q0 61 -96 97q-26 -14 -88 -32q-113 0 -113 192q0 104 72 104h8q38 0 121 -72h8q0 102 -177 153q-88 0 -88 -153zM1239 1139q81 72 169 72q40 -47 40 -104
q0 -184 -88 -184h-32q-52 0 -81 24q-60 0 -96 -97q0 -24 40 -24q8 14 8 32q-8 16 -8 24q27 17 48 17l8 -17q-8 0 -8 -8l113 -80q120 45 120 169q14 0 32 184q0 125 -80 145q-185 -40 -185 -153zM453 1227l56 -248q14 -46 105 -161q8 -14 8 -32h-8q-177 175 -177 385v40
q3 16 16 16zM782 1203q88 -8 88 -32q-8 -172 -8 -256q-8 -43 -8 -49q8 0 8 -8l16 8h16q16 -2 16 -16v-24q0 -41 -24 -48h-112q-96 0 -96 32v24q10 73 72 73q8 14 8 32v72l-48 -40h-24q-40 19 -40 40q77 117 136 192zM204 1179q-24 -43 -24 -72q0 -160 73 -160q109 32 128 32
q0 -8 8 -8v8q-16 32 -40 120q-90 80 -145 80zM1199 971q4 0 32 8q115 -32 121 -32q55 0 64 144l-24 88q-43 0 -153 -80q-21 0 -40 -128zM686 1003h8l64 56h16q16 -3 16 -16v-32q0 -145 -32 -145q-48 0 -48 -16v-16q0 -11 24 -24h144v24l-40 -8l-16 24q16 203 16 313h-40
q-112 -133 -112 -160zM959 907h32q40 -21 40 -73q-30 -24 -56 -24q-41 11 -41 56v16q0 12 25 25zM967 882q0 -8 -8 -24l24 -16h16l-8 40h-24zM469 144l-24 -32q92 -88 337 -88h40q194 0 257 88v8q0 16 -16 16q-35 0 -64 -16l8 -16v-16q-129 -16 -257 -16h-80q-113 0 -201 72
z" />
    </font>
</defs>
</svg>
